<!DOCTYPE svg PUBLIC "-//W3C//DTD SVG 1.1//EN" "http://www.w3.org/Graphics/SVG/1.1/DTD/svg11.dtd">
<!-- Uploaded to: SVG Repo, www.svgrepo.com, Transformed by: SVG Repo Mixer Tools -->
<svg fill="#618f97ff" height="800px" width="800px" version="1.1" id="Layer_1" xmlns="http://www.w3.org/2000/svg" xmlns:xlink="http://www.w3.org/1999/xlink" viewBox="0 0 512 512" xml:space="preserve" stroke="#618f97ff">
<g id="SVGRepo_bgCarrier" stroke-width="0"/>
<g id="SVGRepo_tracerCarrier" stroke-linecap="round" stroke-linejoin="round"/>
<g id="SVGRepo_iconCarrier"> <g> <g> <g> <path d="M447.168,134.56c-0.535-1.288-1.318-2.459-2.304-3.445l-128-128c-2.003-1.988-4.709-3.107-7.531-3.115H74.667 C68.776,0,64,4.776,64,10.667v490.667C64,507.224,68.776,512,74.667,512h362.667c5.891,0,10.667-4.776,10.667-10.667V138.667 C447.997,137.256,447.714,135.86,447.168,134.56z M320,36.416L411.584,128H320V36.416z M426.667,490.667H85.333V21.333h213.333 v117.333c0,5.891,4.776,10.667,10.667,10.667h117.333V490.667z"/> <path d="M160,170.667h96c5.891,0,10.667-4.776,10.667-10.667s-4.776-10.667-10.667-10.667h-96 c-5.891,0-10.667,4.776-10.667,10.667S154.109,170.667,160,170.667z"/> <path d="M149.333,224c0,5.891,4.776,10.667,10.667,10.667h192c5.891,0,10.667-4.776,10.667-10.667 c0-5.891-4.776-10.667-10.667-10.667H160C154.109,213.333,149.333,218.109,149.333,224z"/> <path d="M352,277.333H160c-5.891,0-10.667,4.776-10.667,10.667s4.776,10.667,10.667,10.667h192 c5.891,0,10.667-4.776,10.667-10.667S357.891,277.333,352,277.333z"/> <path d="M352,341.333H160c-5.891,0-10.667,4.776-10.667,10.667s4.776,10.667,10.667,10.667h192 c5.891,0,10.667-4.776,10.667-10.667S357.891,341.333,352,341.333z"/> <path d="M352,405.333H160c-5.891,0-10.667,4.776-10.667,10.667s4.776,10.667,10.667,10.667h192 c5.891,0,10.667-4.776,10.667-10.667S357.891,405.333,352,405.333z"/> </g> </g> </g> </g>
</svg>