<svg xmlns="http://www.w3.org/2000/svg" version="1.1" viewBox="0 0 288 288"><svg xmlns="http://www.w3.org/2000/svg" fill-rule="evenodd" stroke-linejoin="round" stroke-miterlimit="2" clip-rule="evenodd" viewBox="0 0 24 24"><path d="M0 0h24v24H0z" fill="none" class="selectable"/><path d="M15.408 2.913c1.388-.97 2.194-1.596 2.705-1.746.366-.108.675-.08.946.03.318.13.634.41.87.974a5.748 5.748 0 0 1 .25 3.64 6.051 6.051 0 0 1 1.242 3.682c0 2.286-.568 3.848-1.414 4.934-.977 1.254-2.352 1.894-3.806 2.226.222.56.32 1.169.278 1.783V22a.9.9 0 0 1-1.8 0v-3.59c0-.024.003-.046.004-.07a2.286 2.286 0 0 0-.603-1.736.9.9 0 0 1 .553-1.51c1.46-.169 2.986-.529 3.957-1.773.653-.839 1.034-2.062 1.034-3.828a4.239 4.239 0 0 0-1.11-2.869.9.9 0 0 1-.185-.917 3.93 3.93 0 0 0 .008-2.657 4 4 0 0 0-.24.15c-.48.327-1.122.82-2.003 1.43a.9.9 0 0 1-.755.126 10.768 10.768 0 0 0-5.806 0 .9.9 0 0 1-.755-.127C7.673 3.86 6.87 3.57 6.416 3.46a3.945 3.945 0 0 0 .129 2.246.9.9 0 0 1-.186.917 4.24 4.24 0 0 0-1.11 2.897c0 1.751.38 2.965 1.034 3.801.973 1.244 2.505 1.613 3.97 1.802a.899.899 0 0 1 .542 1.507 2.287 2.287 0 0 0-.604 1.718c.002.02.002.04.002.061V22a.9.9 0 0 1-1.8 0v-1.648c-1.017.16-1.8.047-2.427-.197-.87-.339-1.47-.946-1.973-1.583-.258-.325-.486-.656-.737-.925-.143-.154-.286-.293-.48-.343a.9.9 0 0 1 .45-1.742c.726.186 1.27.72 1.79 1.39.44.567.856 1.284 1.702 1.56.436.145.976.161 1.675.011v-.09a4.113 4.113 0 0 1 .284-1.765c-1.455-.343-2.833-.988-3.81-2.238-.849-1.084-1.417-2.637-1.417-4.905A6.054 6.054 0 0 1 4.694 5.81a5.748 5.748 0 0 1 .253-3.64.902.902 0 0 1 .568-.515s1.23-.507 3.942 1.26a12.562 12.562 0 0 1 5.953-.002Z" fill="#fff" class="svgShape color2c2c2c-2 selectable"/></svg></svg>