<svg xmlns="http://www.w3.org/2000/svg" version="1.1" viewBox="0 0 288 288"><svg xmlns="http://www.w3.org/2000/svg" viewBox="0 0 100 100"><path d="M87.877 5.608H11.174c-3.673 0-6.65 2.886-6.65 6.448v77.101c0 3.562 2.978 6.451 6.65 6.451h76.703c3.673 0 6.646-2.89 6.646-6.451V12.056c0-3.561-2.973-6.448-6.646-6.448zM31.809 80.944H18.211V40.31h13.598v40.634zM25.01 34.759h-.091c-4.56 0-7.516-3.119-7.516-7.023 0-3.983 3.043-7.017 7.693-7.017 4.65 0 7.512 3.033 7.602 7.017 0 3.905-2.95 7.023-7.688 7.023zm55.816 46.185H67.233v-21.74c0-5.464-1.97-9.19-6.886-9.19-3.761 0-5.993 2.514-6.973 4.941-.364.868-.453 2.08-.453 3.292v22.696H39.329s.178-36.823 0-40.634h13.593v5.761c1.805-2.768 5.029-6.717 12.249-6.717 8.949 0 15.658 5.804 15.658 18.291v23.3zM52.834 46.2c.024-.04.056-.085.088-.13v.129h-.088z" fill="#fff" class="svgShape color000000-0 selectable"/></svg></svg>