<svg xmlns="http://www.w3.org/2000/svg" xmlns:v="https://svgstorm.com"
viewBox = "0 0 311 366"
width="311"
height="366">
<g fill="None" fill-opacity="0.0" stroke="#D1D5DA" stroke-opacity="1.00" stroke-width="0.3"><path d="
M 0.00 3.00 
C 5.05 3.65 10.05 2.10 14.00 0.00
L 0.00 0.00
L 0.00 3.00 Z"/>
</g>
<g fill="None" fill-opacity="0.0" stroke="#A1A6B2" stroke-opacity="1.00" stroke-width="0.3"><path d="
M 0.00 3.00 
L 0.00 21.00
C 11.54 16.83 16.74 18.16 24.00 27.00
C 26.24 27.90 34.40 23.09 39.69 21.69 C 44.99 20.29 52.61 17.59 57.00 16.00
C 62.75 23.63 67.98 31.88 74.00 39.00
C 70.93 40.47 73.59 43.33 72.00 46.00
C 68.07 42.70 63.87 41.19 60.23 41.43 C 56.60 41.67 53.08 31.80 48.00 36.00
C 56.02 36.35 60.80 47.52 65.00 53.00
C 75.47 52.61 85.48 49.34 95.00 46.00
C 86.09 28.95 69.22 16.17 59.00 0.00
L 14.00 0.00
C 10.05 2.10 5.05 3.65 0.00 3.00 Z"/>
</g>
<g fill="None" fill-opacity="0.0" stroke="#E5E1DF" stroke-opacity="1.00" stroke-width="0.3"><path d="
M 48.00 36.00 
C 34.16 37.97 32.74 37.64 24.00 27.00
C 16.74 18.16 11.54 16.83 0.00 21.00
L 0.00 23.00
C 11.85 16.03 23.13 31.03 27.00 40.00
C 28.69 40.62 30.58 39.66 32.00 39.00
C 33.83 45.96 35.69 52.89 37.00 60.00
C 34.83 61.23 32.32 61.22 30.00 62.00
C 20.13 64.48 9.96 65.79 0.00 68.00
L 0.00 71.00
C 33.40 64.92 66.12 54.40 99.00 49.00
C 99.49 48.92 100.00 49.00 100.00 49.00
C 105.80 51.84 107.45 56.82 112.00 60.00
C 110.40 46.63 92.92 38.80 88.00 26.00
C 92.10 26.54 95.23 23.70 99.00 23.00
C 95.99 17.12 89.81 13.32 86.00 8.00
C 81.30 7.37 77.11 11.80 72.00 10.00
C 71.21 5.73 65.87 3.78 64.00 0.00
L 59.00 0.00
C 69.22 16.17 86.09 28.95 95.00 46.00
C 85.48 49.34 75.47 52.61 65.00 53.00
C 60.80 47.52 56.02 36.35 48.00 36.00 Z"/>
</g>
<g fill="None" fill-opacity="0.0" stroke="#868EA0" stroke-opacity="1.00" stroke-width="0.3"><path d="
M 86.00 8.00 
C 91.52 8.74 96.13 17.77 99.00 21.00
C 103.59 19.59 110.27 20.87 114.00 17.00
C 106.85 13.19 102.25 6.02 97.00 0.00
L 64.00 0.00
C 65.87 3.78 71.21 5.73 72.00 10.00
C 77.11 11.80 81.30 7.37 86.00 8.00 Z"/>
</g>
<g fill="None" fill-opacity="0.0" stroke="#B3B4BC" stroke-opacity="1.00" stroke-width="0.3"><path d="
M 86.00 8.00 
C 89.81 13.32 95.99 17.12 99.00 23.00
C 95.23 23.70 92.10 26.54 88.00 26.00
C 92.92 38.80 110.40 46.63 112.00 60.00
C 107.45 56.82 105.80 51.84 100.00 49.00
C 102.47 53.63 107.18 58.28 111.00 61.00
C 107.74 63.63 112.21 67.67 115.00 69.00
C 114.20 71.51 113.72 74.19 114.00 77.00
C 120.59 76.57 117.40 87.01 121.31 91.69 C 125.21 96.37 128.63 102.50 131.97 108.03 C 135.31 113.55 139.23 118.47 143.25 123.75 C 147.28 129.02 150.35 132.41 155.25 137.75 C 160.14 143.10 160.93 147.39 167.25 152.75 C 173.57 158.11 169.81 163.29 162.00 165.00
C 171.73 163.02 180.07 157.42 190.00 156.00
C 169.33 123.97 136.80 94.21 113.00 62.00
C 117.55 61.04 110.46 56.34 115.00 58.00
C 108.80 46.39 95.70 38.69 90.00 27.00
C 93.61 26.12 98.17 26.35 101.00 24.00
C 106.73 20.15 117.86 18.33 127.22 16.22 C 136.58 14.12 148.29 11.52 158.00 10.00 C 167.71 8.48 178.67 3.34 188.00 5.00
C 165.34 12.31 139.71 14.05 117.00 21.00
C 119.22 21.35 122.21 22.39 120.00 25.00
C 121.56 27.46 124.38 25.09 126.00 24.00
C 126.84 27.95 129.87 29.47 132.00 32.00
C 140.07 26.28 145.80 35.22 154.00 36.00
C 157.40 31.33 165.37 31.22 171.67 29.67 C 177.97 28.13 185.47 26.28 192.00 25.00
C 189.90 23.64 191.20 18.07 191.00 16.00
C 190.41 9.89 190.58 -0.70 181.00 4.00
C 181.90 1.61 186.34 3.13 186.00 0.00
L 97.00 0.00
C 102.25 6.02 106.85 13.19 114.00 17.00
C 110.27 20.87 103.59 19.59 99.00 21.00
C 96.13 17.77 91.52 8.74 86.00 8.00 Z"/>
</g>
<g fill="None" fill-opacity="0.0" stroke="#999FAD" stroke-opacity="1.00" stroke-width="0.3"><path d="
M 191.00 16.00 
C 191.12 14.01 190.91 11.99 191.00 10.00
C 204.11 9.15 219.42 3.67 230.00 3.00
C 230.00 2.00 230.00 1.00 230.00 0.00
L 186.00 0.00
C 186.34 3.13 181.90 1.61 181.00 4.00
C 190.58 -0.70 190.41 9.89 191.00 16.00 Z"/>
</g>
<g fill="None" fill-opacity="0.0" stroke="#B5B6C0" stroke-opacity="1.00" stroke-width="0.3"><path d="
M 230.00 3.00 
C 230.00 7.33 230.00 11.67 230.00 16.00
C 226.81 17.18 222.63 17.11 220.00 19.00
C 230.73 17.43 239.09 11.41 250.00 12.00
C 247.76 6.75 241.31 4.63 238.00 0.00
L 230.00 0.00
C 230.00 1.00 230.00 2.00 230.00 3.00 Z"/>
</g>
<g fill="None" fill-opacity="0.0" stroke="#DBDBDD" stroke-opacity="1.00" stroke-width="0.3"><path d="
M 220.00 19.00 
C 210.50 20.39 201.41 23.15 192.00 25.00
C 185.47 26.28 177.97 28.13 171.67 29.67 C 165.37 31.22 157.40 31.33 154.00 36.00
C 163.74 36.43 175.22 31.32 184.67 29.67 C 194.13 28.02 204.97 22.44 212.75 29.25 C 220.52 36.07 224.69 41.34 232.25 46.75 C 239.80 52.17 246.36 57.28 252.70 63.30 C 259.04 69.32 265.92 74.19 273.00 80.00
C 285.46 90.23 299.14 99.48 311.00 111.00
L 311.00 104.00
C 307.69 101.23 304.24 98.77 301.00 96.00
C 288.62 85.42 274.77 75.15 264.00 64.00
C 280.12 61.69 295.42 56.10 311.00 52.00
L 311.00 49.00
C 306.17 50.10 298.98 52.48 294.33 53.33 C 289.68 54.18 279.47 59.93 280.00 53.00
C 277.88 52.94 275.77 52.77 274.00 54.00
C 267.61 55.34 261.34 57.41 255.00 59.00
C 251.82 54.80 247.17 52.01 243.00 49.00
C 232.33 41.06 222.65 31.08 212.00 24.00
C 243.30 14.21 277.68 9.87 309.00 0.00
L 301.00 0.00
C 289.98 1.16 279.20 6.36 268.00 8.00
C 258.22 9.43 250.41 9.34 244.00 0.00
L 238.00 0.00
C 241.31 4.63 247.76 6.75 250.00 12.00
C 239.09 11.41 230.73 17.43 220.00 19.00 Z"/>
</g>
<g fill="None" fill-opacity="0.0" stroke="#868B9D" stroke-opacity="1.00" stroke-width="0.3"><path d="
M 268.00 8.00 
C 269.09 7.57 270.71 5.26 272.00 5.00
C 270.34 4.40 269.20 2.06 268.00 0.00
L 244.00 0.00
C 250.41 9.34 258.22 9.43 268.00 8.00 Z"/>
</g>
<g fill="None" fill-opacity="0.0" stroke="#B4B4BA" stroke-opacity="1.00" stroke-width="0.3"><path d="
M 268.00 8.00 
C 279.20 6.36 289.98 1.16 301.00 0.00
L 268.00 0.00
C 269.20 2.06 270.34 4.40 272.00 5.00
C 270.71 5.26 269.09 7.57 268.00 8.00 Z"/>
</g>
<g fill="None" fill-opacity="0.0" stroke="#B4B5BC" stroke-opacity="1.00" stroke-width="0.3"><path d="
M 243.00 49.00 
C 241.89 47.95 240.87 46.20 240.00 45.00
C 252.00 40.15 265.50 38.90 278.00 35.00
C 279.19 40.85 276.23 49.01 278.00 52.00
C 276.43 51.70 274.40 52.25 274.00 54.00
C 275.77 52.77 277.88 52.94 280.00 53.00
C 279.47 59.93 289.68 54.18 294.33 53.33 C 298.98 52.48 306.17 50.10 311.00 49.00
L 311.00 25.00
C 302.53 29.69 287.61 27.05 283.00 35.00
C 282.23 32.81 279.58 31.86 280.00 29.00
C 290.56 27.59 300.55 23.94 311.00 22.00
L 311.00 0.00
L 309.00 0.00
C 277.68 9.87 243.30 14.21 212.00 24.00
C 222.65 31.08 232.33 41.06 243.00 49.00 Z"/>
</g>
<g fill="None" fill-opacity="0.0" stroke="#828CA1" stroke-opacity="1.00" stroke-width="0.3"><path d="
M 191.00 16.00 
C 191.20 18.07 189.90 23.64 192.00 25.00
C 201.41 23.15 210.50 20.39 220.00 19.00
C 222.63 17.11 226.81 17.18 230.00 16.00
C 230.00 11.67 230.00 7.33 230.00 3.00
C 219.42 3.67 204.11 9.15 191.00 10.00
C 190.91 11.99 191.12 14.01 191.00 16.00 Z"/>
</g>
<g fill="None" fill-opacity="0.0" stroke="#DCDBDF" stroke-opacity="1.00" stroke-width="0.3"><path d="
M 101.00 24.00 
C 106.23 22.37 111.65 22.26 117.00 21.00
C 139.71 14.05 165.34 12.31 188.00 5.00
C 178.67 3.34 167.71 8.48 158.00 10.00 C 148.29 11.52 136.58 14.12 127.22 16.22 C 117.86 18.33 106.73 20.15 101.00 24.00 Z"/>
</g>
<g fill="None" fill-opacity="0.0" stroke="#838B9E" stroke-opacity="1.00" stroke-width="0.3"><path d="
M 24.00 27.00 
C 32.74 37.64 34.16 37.97 48.00 36.00
C 53.08 31.80 56.60 41.67 60.23 41.43 C 63.87 41.19 68.07 42.70 72.00 46.00
C 73.59 43.33 70.93 40.47 74.00 39.00
C 67.98 31.88 62.75 23.63 57.00 16.00
C 52.61 17.59 44.99 20.29 39.69 21.69 C 34.40 23.09 26.24 27.90 24.00 27.00 Z"/>
</g>
<g fill="None" fill-opacity="0.0" stroke="#9196A4" stroke-opacity="1.00" stroke-width="0.3"><path d="
M 0.00 23.00 
L 0.00 68.00
C 9.96 65.79 20.13 64.48 30.00 62.00
C 32.57 59.10 28.25 55.01 28.22 51.78 C 28.19 48.55 28.44 43.33 27.00 40.00
C 23.13 31.03 11.85 16.03 0.00 23.00 Z"/>
</g>
<g fill="None" fill-opacity="0.0" stroke="#A1A6B2" stroke-opacity="1.00" stroke-width="0.3"><path d="
M 101.00 24.00 
C 98.17 26.35 93.61 26.12 90.00 27.00
C 95.70 38.69 108.80 46.39 115.00 58.00
C 115.11 58.21 116.00 58.00 116.00 58.00
C 114.37 55.72 113.04 53.02 111.00 51.00
C 124.32 46.95 140.34 46.17 153.00 42.00
C 155.10 46.20 153.50 51.39 154.00 56.00
C 149.71 53.94 142.86 58.94 138.00 57.00
C 137.31 60.36 135.20 61.34 132.00 63.00
C 148.83 59.69 165.09 54.92 182.00 55.00
C 170.69 61.09 156.71 61.86 144.00 65.00
C 138.66 66.51 132.98 69.61 127.00 70.00
C 132.18 76.65 138.09 83.18 144.00 89.00
C 148.48 88.74 144.66 83.02 151.03 84.03 C 157.39 85.03 166.88 83.92 173.22 84.22 C 179.56 84.53 179.04 85.61 185.00 85.00
C 185.00 92.33 185.00 99.67 185.00 107.00
C 183.19 106.86 180.92 107.44 180.00 109.00
C 195.23 105.66 177.88 81.76 188.00 76.00
C 187.04 75.81 185.97 76.15 185.00 76.00
C 183.88 69.89 183.86 63.44 184.00 57.00
C 190.35 57.29 192.29 48.56 199.00 50.00
C 200.59 37.72 214.99 49.78 214.00 56.00
C 220.99 59.92 227.55 66.31 233.75 71.25 C 239.95 76.19 245.90 84.03 252.75 88.25 C 259.59 92.48 264.45 101.24 269.75 106.25 C 275.06 111.25 288.76 119.02 281.00 125.00
C 278.50 120.00 272.12 118.50 267.00 120.00
C 268.38 121.89 270.71 122.82 272.00 125.00
C 268.25 125.82 266.93 121.16 264.00 120.00
C 268.22 124.22 271.63 131.02 278.07 129.07 C 284.52 127.13 290.68 125.30 297.00 123.00
C 296.15 122.99 293.57 120.98 292.00 122.00
C 296.21 119.13 290.08 116.20 287.75 113.25 C 285.42 110.30 282.92 106.60 279.00 105.00
C 281.46 102.55 278.79 99.84 276.00 100.00
C 275.85 92.41 269.28 88.24 273.00 80.00
C 265.92 74.19 259.04 69.32 252.70 63.30 C 246.36 57.28 239.80 52.17 232.25 46.75 C 224.69 41.34 220.52 36.07 212.75 29.25 C 204.97 22.44 194.13 28.02 184.67 29.67 C 175.22 31.32 163.74 36.43 154.00 36.00
C 145.80 35.22 140.07 26.28 132.00 32.00
C 129.87 29.47 126.84 27.95 126.00 24.00
C 124.38 25.09 121.56 27.46 120.00 25.00
C 122.21 22.39 119.22 21.35 117.00 21.00
C 111.65 22.26 106.23 22.37 101.00 24.00 Z"/>
</g>
<g fill="None" fill-opacity="0.0" stroke="#D7D6DA" stroke-opacity="1.00" stroke-width="0.3"><path d="
M 311.00 25.00 
L 311.00 22.00
C 300.55 23.94 290.56 27.59 280.00 29.00
C 279.58 31.86 282.23 32.81 283.00 35.00
C 287.61 27.05 302.53 29.69 311.00 25.00 Z"/>
</g>
<g fill="None" fill-opacity="0.0" stroke="#9297A6" stroke-opacity="1.00" stroke-width="0.3"><path d="
M 243.00 49.00 
C 247.17 52.01 251.82 54.80 255.00 59.00
C 261.34 57.41 267.61 55.34 274.00 54.00
C 274.40 52.25 276.43 51.70 278.00 52.00
C 276.23 49.01 279.19 40.85 278.00 35.00
C 265.50 38.90 252.00 40.15 240.00 45.00
C 240.87 46.20 241.89 47.95 243.00 49.00 Z"/>
</g>
<g fill="None" fill-opacity="0.0" stroke="#C4C3C3" stroke-opacity="1.00" stroke-width="0.3"><path d="
M 27.00 40.00 
C 28.44 43.33 28.19 48.55 28.22 51.78 C 28.25 55.01 32.57 59.10 30.00 62.00
C 32.32 61.22 34.83 61.23 37.00 60.00
C 35.69 52.89 33.83 45.96 32.00 39.00
C 30.58 39.66 28.69 40.62 27.00 40.00 Z"/>
</g>
<g fill="None" fill-opacity="0.0" stroke="#8E94A4" stroke-opacity="1.00" stroke-width="0.3"><path d="
M 116.00 58.00 
C 121.33 65.62 123.56 64.66 132.00 63.00
C 135.20 61.34 137.31 60.36 138.00 57.00
C 142.86 58.94 149.71 53.94 154.00 56.00
C 153.50 51.39 155.10 46.20 153.00 42.00
C 140.34 46.17 124.32 46.95 111.00 51.00
C 113.04 53.02 114.37 55.72 116.00 58.00 Z"/>
</g>
<g fill="None" fill-opacity="0.0" stroke="#838DA0" stroke-opacity="1.00" stroke-width="0.3"><path d="
M 188.00 76.00 
C 198.29 70.14 210.77 70.36 218.25 78.75 C 225.73 87.15 233.15 91.51 240.75 99.25 C 248.35 106.99 255.85 113.04 264.00 120.00
C 266.93 121.16 268.25 125.82 272.00 125.00
C 270.71 122.82 268.38 121.89 267.00 120.00
C 272.12 118.50 278.50 120.00 281.00 125.00
C 288.76 119.02 275.06 111.25 269.75 106.25 C 264.45 101.24 259.59 92.48 252.75 88.25 C 245.90 84.03 239.95 76.19 233.75 71.25 C 227.55 66.31 220.99 59.92 214.00 56.00
C 214.99 49.78 200.59 37.72 199.00 50.00
C 192.29 48.56 190.35 57.29 184.00 57.00
C 183.86 63.44 183.88 69.89 185.00 76.00
C 185.97 76.15 187.04 75.81 188.00 76.00 Z"/>
</g>
<g fill="None" fill-opacity="0.0" stroke="#9BA2B1" stroke-opacity="1.00" stroke-width="0.3"><path d="
M 0.00 71.00 
L 0.00 91.00
C 6.74 91.22 9.63 92.26 16.08 91.07 C 22.53 89.87 28.65 87.53 36.00 88.00
C 36.32 82.83 44.77 85.89 47.89 82.89 C 51.01 79.90 56.12 79.73 60.00 81.00
C 59.06 76.66 67.51 72.45 71.30 69.30 C 75.08 66.15 81.65 63.91 87.00 64.00
C 86.73 56.43 93.56 54.61 99.00 52.00
C 98.29 49.96 93.88 53.59 96.00 50.00
C 97.00 49.89 98.73 50.47 99.00 49.00
C 66.12 54.40 33.40 64.92 0.00 71.00 Z"/>
</g>
<g fill="None" fill-opacity="0.0" stroke="#8991A3" stroke-opacity="1.00" stroke-width="0.3"><path d="
M 0.00 91.00 
L 0.00 104.00
C 2.48 109.38 3.21 116.08 5.00 122.00
C 23.54 120.08 40.77 113.24 59.00 110.00
C 59.85 109.56 60.76 108.13 62.00 108.00
C 63.12 99.90 49.44 78.83 64.00 83.00
C 64.87 83.59 68.22 87.98 69.00 89.00
C 68.86 88.00 67.49 87.23 68.00 86.00
C 76.63 86.69 83.25 79.98 92.00 81.00
C 94.15 75.00 107.34 73.60 109.77 80.23 C 112.20 86.86 116.51 91.90 121.00 97.00
C 117.40 98.36 114.94 102.69 111.00 99.00
C 108.72 101.62 112.82 105.29 108.00 106.00
C 106.74 104.07 105.00 102.09 103.00 101.00
C 110.97 107.11 114.19 117.07 120.77 124.23 C 127.35 131.39 132.71 139.84 139.75 147.25 C 146.79 154.66 149.80 167.48 162.00 165.00
C 169.81 163.29 173.57 158.11 167.25 152.75 C 160.93 147.39 160.14 143.10 155.25 137.75 C 150.35 132.41 147.28 129.02 143.25 123.75 C 139.23 118.47 135.31 113.55 131.97 108.03 C 128.63 102.50 125.21 96.37 121.31 91.69 C 117.40 87.01 120.59 76.57 114.00 77.00
C 113.72 74.19 114.20 71.51 115.00 69.00
C 112.21 67.67 107.74 63.63 111.00 61.00
C 107.18 58.28 102.47 53.63 100.00 49.00
C 100.00 49.00 99.49 48.92 99.00 49.00
C 98.73 50.47 97.00 49.89 96.00 50.00
C 93.88 53.59 98.29 49.96 99.00 52.00
C 93.56 54.61 86.73 56.43 87.00 64.00
C 81.65 63.91 75.08 66.15 71.30 69.30 C 67.51 72.45 59.06 76.66 60.00 81.00
C 56.12 79.73 51.01 79.90 47.89 82.89 C 44.77 85.89 36.32 82.83 36.00 88.00
C 28.65 87.53 22.53 89.87 16.08 91.07 C 9.63 92.26 6.74 91.22 0.00 91.00 Z"/>
</g>
<g fill="None" fill-opacity="0.0" stroke="#A3A7B3" stroke-opacity="1.00" stroke-width="0.3"><path d="
M 301.00 96.00 
C 298.12 93.12 295.64 89.96 292.00 88.00
C 297.75 85.64 304.20 83.17 311.00 83.00
L 311.00 52.00
C 295.42 56.10 280.12 61.69 264.00 64.00
C 274.77 75.15 288.62 85.42 301.00 96.00 Z"/>
</g>
<g fill="None" fill-opacity="0.0" stroke="#E9E3DF" stroke-opacity="1.00" stroke-width="0.3"><path d="
M 132.00 63.00 
C 123.56 64.66 121.33 65.62 116.00 58.00
C 116.00 58.00 115.11 58.21 115.00 58.00
C 110.46 56.34 117.55 61.04 113.00 62.00
C 136.80 94.21 169.33 123.97 190.00 156.00
C 180.07 157.42 171.73 163.02 162.00 165.00
C 149.80 167.48 146.79 154.66 139.75 147.25 C 132.71 139.84 127.35 131.39 120.77 124.23 C 114.19 117.07 110.97 107.11 103.00 101.00
C 96.82 97.02 88.90 102.92 81.78 103.78 C 74.65 104.64 72.37 93.40 69.00 89.00
C 68.22 87.98 64.87 83.59 64.00 83.00
C 62.06 82.36 60.86 84.21 59.00 84.00
C 62.91 93.17 69.88 102.00 75.00 111.00
C 70.84 111.46 67.53 114.84 63.00 114.00
C 63.72 111.46 61.50 109.36 59.00 110.00
C 40.77 113.24 23.54 120.08 5.00 122.00
C 3.21 116.08 2.48 109.38 0.00 104.00
L 0.00 134.00
C 11.28 130.94 24.31 127.43 35.67 124.67 C 47.03 121.91 60.84 118.36 71.68 115.68 C 82.52 113.00 87.85 127.50 93.00 136.00
C 95.81 139.46 100.92 147.50 105.00 142.00
C 109.24 152.57 109.96 164.62 112.00 176.00
C 111.91 177.66 112.07 179.34 112.00 181.00
C 107.66 180.77 103.99 182.93 100.00 184.00
C 95.63 185.13 90.70 185.10 87.00 188.00
C 82.77 185.02 81.72 173.31 75.00 175.00 C 68.28 176.69 62.14 178.04 55.93 180.93 C 49.71 183.81 42.73 185.16 40.25 177.75 C 37.76 170.35 34.29 167.94 32.00 161.00
C 29.36 161.72 25.61 160.01 24.00 163.00
C 23.79 163.39 24.00 164.00 24.00 164.00
C 29.33 170.64 30.76 179.03 35.77 186.23 C 40.78 193.43 44.68 205.73 31.00 205.00
C 30.90 199.27 34.66 194.31 31.00 189.00
C 29.33 190.42 27.04 189.89 25.00 190.00
C 17.13 193.43 8.12 194.25 0.00 197.00
L 0.00 219.00
C 26.58 213.07 49.25 200.61 76.00 196.00
C 89.92 193.60 101.53 186.59 116.00 184.00
C 118.50 183.19 123.67 179.68 128.00 180.00
C 129.05 182.19 129.72 186.70 132.00 183.00
C 135.76 189.25 130.88 197.50 140.00 198.00
C 141.98 208.70 149.97 216.53 158.00 224.00
C 155.00 226.90 163.55 239.02 167.00 235.00
C 166.65 247.51 179.82 255.56 184.00 267.00
C 181.36 267.15 179.60 268.34 181.00 271.00
C 177.37 267.68 168.83 271.60 168.00 275.00
C 168.98 278.41 171.74 275.51 174.00 276.00
C 189.30 274.39 204.16 263.82 219.69 259.69 C 235.23 255.57 249.59 247.12 264.75 241.75 C 279.90 236.37 293.06 229.39 309.00 225.00
C 302.52 223.25 305.73 223.47 310.00 221.00
C 306.37 218.05 301.88 222.52 298.00 223.00
C 296.94 214.52 295.58 207.80 295.00 199.00 C 294.42 190.20 281.24 201.27 276.00 200.00
C 267.54 202.19 264.96 201.17 259.75 194.25 C 254.54 187.33 250.80 185.01 245.75 179.25 C 240.70 173.49 236.08 170.09 231.25 164.75 C 226.42 159.42 222.56 154.12 218.25 148.75 C 213.93 143.39 208.36 138.45 203.00 135.00
C 203.00 130.00 203.00 125.00 203.00 120.00
C 201.76 107.21 200.92 93.75 200.00 80.00
C 220.35 99.91 241.63 118.76 260.00 139.00
C 277.12 134.05 294.09 128.61 311.00 123.00
L 311.00 120.00
C 306.06 119.77 301.47 121.37 297.00 123.00
C 290.68 125.30 284.52 127.13 278.07 129.07 C 271.63 131.02 268.22 124.22 264.00 120.00
C 255.85 113.04 248.35 106.99 240.75 99.25 C 233.15 91.51 225.73 87.15 218.25 78.75 C 210.77 70.36 198.29 70.14 188.00 76.00
C 177.88 81.76 195.23 105.66 180.00 109.00
C 177.95 109.45 176.04 109.53 174.00 110.00
C 167.59 112.14 162.90 114.13 159.23 107.77 C 155.56 101.41 150.87 100.78 147.70 95.30 C 144.52 89.83 139.74 88.25 136.75 83.25 C 133.77 78.25 128.97 75.31 126.00 70.00
C 129.26 68.76 132.43 67.23 136.00 67.00
C 131.86 63.63 141.45 66.63 144.00 65.00
C 156.71 61.86 170.69 61.09 182.00 55.00
C 165.09 54.92 148.83 59.69 132.00 63.00
M 198.00 126.00 
C 200.03 130.54 197.44 137.08 198.00 142.00
C 198.43 145.76 199.52 148.92 199.00 152.00
C 194.83 150.28 194.58 145.93 195.00 142.00
C 194.29 135.10 189.43 130.79 194.00 126.00
C 194.39 125.60 194.28 123.48 195.00 123.00
C 196.20 123.67 197.58 124.64 198.00 126.00
M 196.00 160.00 
C 196.31 160.21 196.80 160.68 197.00 161.00
C 202.54 165.31 205.99 170.61 210.00 176.00
C 216.65 183.63 226.21 198.52 236.00 195.00
C 238.74 206.53 234.51 220.14 239.00 231.00
C 239.77 235.58 237.71 240.83 240.00 245.00
C 233.45 247.72 226.44 248.84 220.00 252.00
C 217.53 248.17 213.42 245.22 212.00 241.00
C 208.16 236.32 203.35 232.19 200.00 227.00
C 187.69 231.30 172.72 239.00 166.23 225.77 C 159.73 212.54 150.10 209.16 145.00 196.00
C 140.78 190.49 134.81 184.84 133.00 178.00
C 154.44 174.53 175.45 162.45 196.00 160.00 Z"/>
</g>
<g fill="None" fill-opacity="0.0" stroke="#BFC0C4" stroke-opacity="1.00" stroke-width="0.3"><path d="
M 174.00 110.00 
C 158.58 113.58 153.92 98.92 144.00 89.00
C 138.09 83.18 132.18 76.65 127.00 70.00
C 132.98 69.61 138.66 66.51 144.00 65.00
C 141.45 66.63 131.86 63.63 136.00 67.00
C 132.43 67.23 129.26 68.76 126.00 70.00
C 128.97 75.31 133.77 78.25 136.75 83.25 C 139.74 88.25 144.52 89.83 147.70 95.30 C 150.87 100.78 155.56 101.41 159.23 107.77 C 162.90 114.13 167.59 112.14 174.00 110.00 Z"/>
</g>
<g fill="None" fill-opacity="0.0" stroke="#77849B" stroke-opacity="1.00" stroke-width="0.3"><path d="
M 69.00 89.00 
C 72.37 93.40 74.65 104.64 81.78 103.78 C 88.90 102.92 96.82 97.02 103.00 101.00
C 105.00 102.09 106.74 104.07 108.00 106.00
C 112.82 105.29 108.72 101.62 111.00 99.00
C 114.94 102.69 117.40 98.36 121.00 97.00
C 116.51 91.90 112.20 86.86 109.77 80.23 C 107.34 73.60 94.15 75.00 92.00 81.00
C 83.25 79.98 76.63 86.69 68.00 86.00
C 67.49 87.23 68.86 88.00 69.00 89.00 Z"/>
</g>
<g fill="None" fill-opacity="0.0" stroke="#ADAFB8" stroke-opacity="1.00" stroke-width="0.3"><path d="
M 203.00 120.00 
C 203.00 118.37 202.82 116.62 203.00 115.00
C 203.15 113.68 202.89 112.32 203.00 111.00
C 212.34 114.09 217.77 126.74 228.00 128.00
C 235.01 141.93 249.89 154.44 262.00 166.00
C 264.50 164.67 261.43 160.26 264.00 159.00
C 263.37 162.82 264.22 164.31 268.00 163.00
C 266.03 156.10 274.37 155.66 277.11 152.11 C 279.84 148.55 285.38 145.41 291.00 146.00
C 296.21 137.63 300.47 128.75 311.00 126.00
L 311.00 123.00
C 294.09 128.61 277.12 134.05 260.00 139.00
C 241.63 118.76 220.35 99.91 200.00 80.00
C 200.92 93.75 201.76 107.21 203.00 120.00 Z"/>
</g>
<g fill="None" fill-opacity="0.0" stroke="#B9B8BE" stroke-opacity="1.00" stroke-width="0.3"><path d="
M 297.00 123.00 
C 301.47 121.37 306.06 119.77 311.00 120.00
L 311.00 111.00
C 299.14 99.48 285.46 90.23 273.00 80.00
C 269.28 88.24 275.85 92.41 276.00 100.00
C 278.79 99.84 281.46 102.55 279.00 105.00
C 282.92 106.60 285.42 110.30 287.75 113.25 C 290.08 116.20 296.21 119.13 292.00 122.00
C 293.57 120.98 296.15 122.99 297.00 123.00 Z"/>
</g>
<g fill="None" fill-opacity="0.0" stroke="#C1BEC5" stroke-opacity="1.00" stroke-width="0.3"><path d="
M 59.00 110.00 
C 61.50 109.36 63.72 111.46 63.00 114.00
C 67.53 114.84 70.84 111.46 75.00 111.00
C 69.88 102.00 62.91 93.17 59.00 84.00
C 60.86 84.21 62.06 82.36 64.00 83.00
C 49.44 78.83 63.12 99.90 62.00 108.00
C 60.76 108.13 59.85 109.56 59.00 110.00 Z"/>
</g>
<g fill="None" fill-opacity="0.0" stroke="#868EA0" stroke-opacity="1.00" stroke-width="0.3"><path d="
M 301.00 96.00 
C 304.24 98.77 307.69 101.23 311.00 104.00
L 311.00 83.00
C 304.20 83.17 297.75 85.64 292.00 88.00
C 295.64 89.96 298.12 93.12 301.00 96.00 Z"/>
</g>
<g fill="None" fill-opacity="0.0" stroke="#838DA0" stroke-opacity="1.00" stroke-width="0.3"><path d="
M 144.00 89.00 
C 153.92 98.92 158.58 113.58 174.00 110.00
C 176.04 109.53 177.95 109.45 180.00 109.00
C 180.92 107.44 183.19 106.86 185.00 107.00
C 185.00 99.67 185.00 92.33 185.00 85.00
C 179.04 85.61 179.56 84.53 173.22 84.22 C 166.88 83.92 157.39 85.03 151.03 84.03 C 144.66 83.02 148.48 88.74 144.00 89.00 Z"/>
</g>
<g fill="None" fill-opacity="0.0" stroke="#999FAD" stroke-opacity="1.00" stroke-width="0.3"><path d="
M 203.00 115.00 
C 203.13 114.42 204.28 112.40 205.00 112.00
C 214.27 120.12 221.96 129.53 231.30 138.70 C 240.63 147.88 248.17 156.64 257.70 166.30 C 267.24 175.95 284.79 160.08 296.00 160.00
C 297.31 153.54 307.17 156.61 311.00 155.00
L 311.00 126.00
C 300.47 128.75 296.21 137.63 291.00 146.00
C 285.38 145.41 279.84 148.55 277.11 152.11 C 274.37 155.66 266.03 156.10 268.00 163.00
C 264.22 164.31 263.37 162.82 264.00 159.00
C 261.43 160.26 264.50 164.67 262.00 166.00
C 249.89 154.44 235.01 141.93 228.00 128.00
C 217.77 126.74 212.34 114.09 203.00 111.00
C 202.89 112.32 203.15 113.68 203.00 115.00 Z"/>
</g>
<g fill="None" fill-opacity="0.0" stroke="#8890A3" stroke-opacity="1.00" stroke-width="0.3"><path d="
M 203.00 115.00 
C 202.82 116.62 203.00 118.37 203.00 120.00
C 203.00 125.00 203.00 130.00 203.00 135.00
C 208.36 138.45 213.93 143.39 218.25 148.75 C 222.56 154.12 226.42 159.42 231.25 164.75 C 236.08 170.09 240.70 173.49 245.75 179.25 C 250.80 185.01 254.54 187.33 259.75 194.25 C 264.96 201.17 267.54 202.19 276.00 200.00
C 280.73 197.76 288.99 197.09 293.22 193.22 C 297.46 189.35 291.67 174.21 294.00 169.00
C 295.54 169.37 296.40 167.57 298.00 168.00
C 304.03 167.25 306.30 174.61 311.00 177.00
L 311.00 155.00
C 307.17 156.61 297.31 153.54 296.00 160.00
C 284.79 160.08 267.24 175.95 257.70 166.30 C 248.17 156.64 240.63 147.88 231.30 138.70 C 221.96 129.53 214.27 120.12 205.00 112.00
C 204.28 112.40 203.13 114.42 203.00 115.00 Z"/>
</g>
<g fill="None" fill-opacity="0.0" stroke="#9CA3B0" stroke-opacity="1.00" stroke-width="0.3"><path d="
M 0.00 134.00 
L 0.00 168.00
C 8.29 168.33 15.72 162.44 24.00 163.00
C 25.61 160.01 29.36 161.72 32.00 161.00
C 37.12 159.61 50.21 155.64 51.00 152.00
C 53.79 151.43 59.87 153.87 59.00 149.00
C 70.02 147.89 73.91 136.42 85.00 135.00
C 91.20 148.68 97.23 164.42 105.00 178.00
C 105.23 180.89 100.36 179.57 104.00 182.00
C 102.39 182.01 99.57 181.41 100.00 184.00
C 103.99 182.93 107.66 180.77 112.00 181.00
C 112.07 179.34 111.91 177.66 112.00 176.00
C 102.03 177.35 103.07 164.45 102.00 157.00 C 100.94 149.55 96.95 142.52 93.00 136.00
C 87.85 127.50 82.52 113.00 71.68 115.68 C 60.84 118.36 47.03 121.91 35.67 124.67 C 24.31 127.43 11.28 130.94 0.00 134.00 Z"/>
</g>
<g fill="None" fill-opacity="0.0" stroke="#83787A" stroke-opacity="1.00" stroke-width="0.3"><path d="
M 194.00 126.00 
C 193.91 126.71 195.34 131.27 196.00 132.00
C 197.48 130.08 194.33 124.16 198.00 126.00
C 197.58 124.64 196.20 123.67 195.00 123.00
C 194.28 123.48 194.39 125.60 194.00 126.00 Z"/>
</g>
<g fill="None" fill-opacity="0.0" stroke="#42393D" stroke-opacity="1.00" stroke-width="0.3"><path d="
M 194.00 126.00 
C 189.43 130.79 194.29 135.10 195.00 142.00
C 196.00 142.00 197.00 142.00 198.00 142.00
C 197.44 137.08 200.03 130.54 198.00 126.00
C 194.33 124.16 197.48 130.08 196.00 132.00
C 195.34 131.27 193.91 126.71 194.00 126.00 Z"/>
</g>
<g fill="None" fill-opacity="0.0" stroke="#818B9F" stroke-opacity="1.00" stroke-width="0.3"><path d="
M 32.00 161.00 
C 34.29 167.94 37.76 170.35 40.25 177.75 C 42.73 185.16 49.71 183.81 55.93 180.93 C 62.14 178.04 68.28 176.69 75.00 175.00 C 81.72 173.31 82.77 185.02 87.00 188.00
C 90.70 185.10 95.63 185.13 100.00 184.00
C 99.57 181.41 102.39 182.01 104.00 182.00
C 100.36 179.57 105.23 180.89 105.00 178.00
C 97.23 164.42 91.20 148.68 85.00 135.00
C 73.91 136.42 70.02 147.89 59.00 149.00
C 59.87 153.87 53.79 151.43 51.00 152.00
C 50.21 155.64 37.12 159.61 32.00 161.00 Z"/>
</g>
<g fill="None" fill-opacity="0.0" stroke="#C7C4C6" stroke-opacity="1.00" stroke-width="0.3"><path d="
M 112.00 176.00 
C 109.96 164.62 109.24 152.57 105.00 142.00
C 100.92 147.50 95.81 139.46 93.00 136.00
C 96.95 142.52 100.94 149.55 102.00 157.00 C 103.07 164.45 102.03 177.35 112.00 176.00 Z"/>
</g>
<g fill="None" fill-opacity="0.0" stroke="#9D9798" stroke-opacity="1.00" stroke-width="0.3"><path d="
M 198.00 142.00 
C 197.00 142.00 196.00 142.00 195.00 142.00
C 194.58 145.93 194.83 150.28 199.00 152.00
C 199.52 148.92 198.43 145.76 198.00 142.00 Z"/>
</g>
<g fill="None" fill-opacity="0.0" stroke="#99A0AC" stroke-opacity="1.00" stroke-width="0.3"><path d="
M 145.00 196.00 
C 148.03 198.62 153.08 198.80 151.00 203.00
C 154.55 202.07 158.41 198.83 162.00 201.00
C 163.84 193.62 173.76 194.41 180.00 193.00
C 178.26 188.34 185.20 188.30 183.00 184.00
C 186.10 184.65 189.07 183.77 188.00 180.00
C 197.72 182.52 193.59 166.67 201.00 169.00
C 200.32 165.46 194.30 163.34 196.00 160.00
C 175.45 162.45 154.44 174.53 133.00 178.00
C 134.81 184.84 140.78 190.49 145.00 196.00 Z"/>
</g>
<g fill="None" fill-opacity="0.0" stroke="#888E9F" stroke-opacity="1.00" stroke-width="0.3"><path d="
M 145.00 196.00 
C 150.10 209.16 159.73 212.54 166.23 225.77 C 172.72 239.00 187.69 231.30 200.00 227.00
C 203.35 232.19 208.16 236.32 212.00 241.00
C 211.30 238.98 211.36 235.61 214.00 234.00
C 215.44 238.32 219.18 239.17 224.00 240.00
C 223.36 237.05 225.37 234.53 228.00 234.00
C 229.75 225.12 220.16 217.77 217.03 210.97 C 213.89 204.17 209.30 195.64 209.00 186.00
C 205.99 187.42 203.14 179.84 203.07 174.93 C 203.00 170.01 201.63 164.76 197.00 161.00
C 196.80 160.68 196.31 160.21 196.00 160.00
C 194.30 163.34 200.32 165.46 201.00 169.00
C 193.59 166.67 197.72 182.52 188.00 180.00
C 189.07 183.77 186.10 184.65 183.00 184.00
C 185.20 188.30 178.26 188.34 180.00 193.00
C 173.76 194.41 163.84 193.62 162.00 201.00
C 158.41 198.83 154.55 202.07 151.00 203.00
C 153.08 198.80 148.03 198.62 145.00 196.00 Z"/>
</g>
<g fill="None" fill-opacity="0.0" stroke="#9DA1AD" stroke-opacity="1.00" stroke-width="0.3"><path d="
M 212.00 241.00 
C 213.42 245.22 217.53 248.17 220.00 252.00
C 226.44 248.84 233.45 247.72 240.00 245.00
C 237.71 240.83 239.77 235.58 239.00 231.00
C 237.52 227.76 234.89 230.61 232.00 230.00
C 226.68 221.10 231.97 205.22 228.07 196.92 C 224.16 188.62 214.65 184.14 210.00 176.00
C 205.99 170.61 202.54 165.31 197.00 161.00
C 201.63 164.76 203.00 170.01 203.07 174.93 C 203.14 179.84 205.99 187.42 209.00 186.00
C 209.30 195.64 213.89 204.17 217.03 210.97 C 220.16 217.77 229.75 225.12 228.00 234.00
C 225.37 234.53 223.36 237.05 224.00 240.00
C 219.18 239.17 215.44 238.32 214.00 234.00
C 211.36 235.61 211.30 238.98 212.00 241.00 Z"/>
</g>
<g fill="None" fill-opacity="0.0" stroke="#7F8AA1" stroke-opacity="1.00" stroke-width="0.3"><path d="
M 0.00 168.00 
L 0.00 197.00
C 8.12 194.25 17.13 193.43 25.00 190.00
C 26.41 189.39 27.81 187.11 30.00 188.00
C 27.28 180.70 27.64 171.65 24.00 164.00
C 24.00 164.00 23.79 163.39 24.00 163.00
C 15.72 162.44 8.29 168.33 0.00 168.00 Z"/>
</g>
<g fill="None" fill-opacity="0.0" stroke="#B4B2B9" stroke-opacity="1.00" stroke-width="0.3"><path d="
M 25.00 190.00 
C 27.04 189.89 29.33 190.42 31.00 189.00
C 34.66 194.31 30.90 199.27 31.00 205.00
C 44.68 205.73 40.78 193.43 35.77 186.23 C 30.76 179.03 29.33 170.64 24.00 164.00
C 27.64 171.65 27.28 180.70 30.00 188.00
C 27.81 187.11 26.41 189.39 25.00 190.00 Z"/>
</g>
<g fill="None" fill-opacity="0.0" stroke="#B5B6BC" stroke-opacity="1.00" stroke-width="0.3"><path d="
M 276.00 200.00 
C 281.24 201.27 294.42 190.20 295.00 199.00 C 295.58 207.80 296.94 214.52 298.00 223.00
C 301.88 222.52 306.37 218.05 310.00 221.00
C 305.73 223.47 302.52 223.25 309.00 225.00
C 293.06 229.39 279.90 236.37 264.75 241.75 C 249.59 247.12 235.23 255.57 219.69 259.69 C 204.16 263.82 189.30 274.39 174.00 276.00
C 164.17 279.28 154.15 284.62 144.00 288.00
C 129.13 292.96 115.53 301.34 100.00 304.00
C 100.19 309.50 97.95 303.88 96.00 303.00
C 97.81 316.64 105.86 328.25 103.00 342.00
C 105.83 339.11 115.95 341.44 120.08 337.08 C 124.20 332.71 131.88 332.84 137.22 330.22 C 142.56 327.60 148.87 326.31 154.23 323.23 C 159.59 320.15 166.60 319.31 172.08 316.08 C 177.55 312.84 183.58 311.61 189.25 309.25 C 194.91 306.89 200.46 304.44 206.03 302.03 C 211.60 299.62 218.98 298.12 224.22 295.22 C 229.46 292.32 236.02 290.40 241.07 288.07 C 246.13 285.75 253.74 283.84 257.74 280.74 C 261.74 277.65 273.19 275.35 268.00 272.00
C 273.18 272.33 279.07 269.56 279.00 265.00
C 284.97 263.68 291.84 260.97 292.00 254.00
C 299.49 253.53 302.11 245.16 309.00 243.00
C 308.25 240.91 308.04 239.50 311.00 240.00
L 311.00 185.00
C 305.71 180.18 300.14 175.19 295.00 171.00
C 295.56 169.73 297.85 169.75 298.00 168.00
C 296.40 167.57 295.54 169.37 294.00 169.00
C 291.67 174.21 297.46 189.35 293.22 193.22 C 288.99 197.09 280.73 197.76 276.00 200.00 Z"/>
</g>
<g fill="None" fill-opacity="0.0" stroke="#DEDEE0" stroke-opacity="1.00" stroke-width="0.3"><path d="
M 311.00 185.00 
L 311.00 177.00
C 306.30 174.61 304.03 167.25 298.00 168.00
C 297.85 169.75 295.56 169.73 295.00 171.00
C 300.14 175.19 305.71 180.18 311.00 185.00 Z"/>
</g>
<g fill="None" fill-opacity="0.0" stroke="#C6C3C5" stroke-opacity="1.00" stroke-width="0.3"><path d="
M 239.00 231.00 
C 234.51 220.14 238.74 206.53 236.00 195.00
C 226.21 198.52 216.65 183.63 210.00 176.00
C 214.65 184.14 224.16 188.62 228.07 196.92 C 231.97 205.22 226.68 221.10 232.00 230.00
C 234.89 230.61 237.52 227.76 239.00 231.00 Z"/>
</g>
<g fill="None" fill-opacity="0.0" stroke="#D1D0D5" stroke-opacity="1.00" stroke-width="0.3"><path d="
M 116.00 184.00 
C 119.02 183.46 121.84 182.13 125.00 182.00
C 142.52 208.93 162.13 235.14 179.00 262.00
C 174.17 257.43 176.93 266.59 181.00 263.00
C 179.51 266.25 173.80 264.37 179.00 267.00
C 173.84 268.48 169.18 271.52 164.00 273.00
C 157.09 275.49 150.50 279.23 143.00 280.00
C 141.21 276.60 139.33 272.33 136.00 270.00
C 138.51 274.76 142.30 283.58 149.02 280.02 C 155.75 276.47 161.15 275.74 168.00 277.00
C 161.48 282.69 150.46 282.14 144.00 288.00
C 154.15 284.62 164.17 279.28 174.00 276.00
C 171.74 275.51 168.98 278.41 168.00 275.00
C 168.83 271.60 177.37 267.68 181.00 271.00
C 179.60 268.34 181.36 267.15 184.00 267.00
C 179.82 255.56 166.65 247.51 167.00 235.00
C 163.55 239.02 155.00 226.90 158.00 224.00
C 149.97 216.53 141.98 208.70 140.00 198.00
C 130.88 197.50 135.76 189.25 132.00 183.00
C 129.72 186.70 129.05 182.19 128.00 180.00
C 123.67 179.68 118.50 183.19 116.00 184.00 Z"/>
</g>
<g fill="None" fill-opacity="0.0" stroke="#9CA1AD" stroke-opacity="1.00" stroke-width="0.3"><path d="
M 116.00 184.00 
C 101.53 186.59 89.92 193.60 76.00 196.00
C 70.51 198.15 69.16 204.37 64.00 205.00
C 64.00 208.33 64.00 211.67 64.00 215.00
C 59.53 215.34 56.65 217.14 52.00 216.00
C 52.56 218.52 50.81 222.30 53.00 224.00
C 56.67 221.78 57.22 227.03 52.75 228.80 C 48.29 230.57 48.82 239.34 41.00 236.00
C 41.07 239.26 36.43 241.26 40.00 244.00
C 26.30 247.35 13.99 254.78 0.00 258.00
L 0.00 268.00
C 7.91 266.12 16.70 262.95 24.22 260.22 C 31.74 257.50 41.37 255.86 48.22 252.22 C 55.08 248.58 67.34 250.09 72.00 244.00
C 70.03 243.50 68.07 243.26 66.00 243.00
C 70.16 246.86 58.91 242.57 56.00 244.00
C 60.67 237.39 71.97 236.17 80.23 232.23 C 88.49 228.29 97.67 225.39 106.25 222.25 C 114.82 219.10 124.32 216.07 132.00 212.00
C 131.65 220.73 140.44 226.00 143.75 233.25 C 147.06 240.50 152.47 246.88 155.92 254.08 C 159.38 261.27 168.01 266.14 164.00 273.00
C 169.18 271.52 173.84 268.48 179.00 267.00
C 173.80 264.37 179.51 266.25 181.00 263.00
C 176.93 266.59 174.17 257.43 179.00 262.00
C 162.13 235.14 142.52 208.93 125.00 182.00
C 121.84 182.13 119.02 183.46 116.00 184.00 Z"/>
</g>
<g fill="None" fill-opacity="0.0" stroke="#B2B3BA" stroke-opacity="1.00" stroke-width="0.3"><path d="
M 0.00 219.00 
L 0.00 258.00
C 13.99 254.78 26.30 247.35 40.00 244.00
C 36.43 241.26 41.07 239.26 41.00 236.00
C 48.82 239.34 48.29 230.57 52.75 228.80 C 57.22 227.03 56.67 221.78 53.00 224.00
C 50.81 222.30 52.56 218.52 52.00 216.00
C 56.65 217.14 59.53 215.34 64.00 215.00
C 64.00 211.67 64.00 208.33 64.00 205.00
C 69.16 204.37 70.51 198.15 76.00 196.00
C 49.25 200.61 26.58 213.07 0.00 219.00 Z"/>
</g>
<g fill="None" fill-opacity="0.0" stroke="#818B9F" stroke-opacity="1.00" stroke-width="0.3"><path d="
M 72.00 244.00 
C 72.47 244.12 73.00 244.00 73.00 244.00
C 79.33 238.90 81.20 262.34 84.11 264.89 C 87.02 267.44 93.93 263.41 96.00 263.00
C 104.45 260.14 112.32 258.45 120.68 254.68 C 129.03 250.90 132.48 263.34 136.00 270.00
C 139.33 272.33 141.21 276.60 143.00 280.00
C 150.50 279.23 157.09 275.49 164.00 273.00
C 168.01 266.14 159.38 261.27 155.92 254.08 C 152.47 246.88 147.06 240.50 143.75 233.25 C 140.44 226.00 131.65 220.73 132.00 212.00
C 124.32 216.07 114.82 219.10 106.25 222.25 C 97.67 225.39 88.49 228.29 80.23 232.23 C 71.97 236.17 60.67 237.39 56.00 244.00
C 58.91 242.57 70.16 246.86 66.00 243.00
C 68.07 243.26 70.03 243.50 72.00 244.00 Z"/>
</g>
<g fill="None" fill-opacity="0.0" stroke="#949AA8" stroke-opacity="1.00" stroke-width="0.3"><path d="
M 103.00 342.00 
C 101.79 349.91 100.43 357.86 100.00 366.00
L 120.00 366.00
C 183.34 338.00 246.86 313.41 311.00 286.00
L 311.00 240.00
C 308.04 239.50 308.25 240.91 309.00 243.00
C 302.11 245.16 299.49 253.53 292.00 254.00
C 291.84 260.97 284.97 263.68 279.00 265.00
C 279.07 269.56 273.18 272.33 268.00 272.00
C 273.19 275.35 261.74 277.65 257.74 280.74 C 253.74 283.84 246.13 285.75 241.07 288.07 C 236.02 290.40 229.46 292.32 224.22 295.22 C 218.98 298.12 211.60 299.62 206.03 302.03 C 200.46 304.44 194.91 306.89 189.25 309.25 C 183.58 311.61 177.55 312.84 172.08 316.08 C 166.60 319.31 159.59 320.15 154.23 323.23 C 148.87 326.31 142.56 327.60 137.22 330.22 C 131.88 332.84 124.20 332.71 120.08 337.08 C 115.95 341.44 105.83 339.11 103.00 342.00 Z"/>
</g>
<g fill="None" fill-opacity="0.0" stroke="#B0B1BA" stroke-opacity="1.00" stroke-width="0.3"><path d="
M 73.00 244.00 
C 75.77 244.12 76.66 245.60 78.00 248.00
C 52.93 258.78 25.73 264.79 0.00 275.00
L 0.00 291.00
C 8.92 291.57 19.77 296.27 28.02 296.98 C 36.28 297.68 46.77 294.52 50.00 290.00
C 62.81 293.63 73.95 286.24 86.00 284.00
C 86.00 285.33 86.00 286.67 86.00 288.00
C 87.03 281.54 84.49 275.08 84.00 268.00
C 87.98 266.52 92.47 264.89 96.00 263.00
C 93.93 263.41 87.02 267.44 84.11 264.89 C 81.20 262.34 79.33 238.90 73.00 244.00 Z"/>
</g>
<g fill="None" fill-opacity="0.0" stroke="#DEDCDE" stroke-opacity="1.00" stroke-width="0.3"><path d="
M 0.00 268.00 
L 0.00 275.00
C 25.73 264.79 52.93 258.78 78.00 248.00
C 76.66 245.60 75.77 244.12 73.00 244.00
C 73.00 244.00 72.47 244.12 72.00 244.00
C 67.34 250.09 55.08 248.58 48.22 252.22 C 41.37 255.86 31.74 257.50 24.22 260.22 C 16.70 262.95 7.91 266.12 0.00 268.00 Z"/>
</g>
<g fill="None" fill-opacity="0.0" stroke="#EDE5E0" stroke-opacity="1.00" stroke-width="0.3"><path d="
M 96.00 263.00 
C 92.47 264.89 87.98 266.52 84.00 268.00
C 84.49 275.08 87.03 281.54 86.00 288.00
C 83.64 302.75 81.64 317.33 79.00 332.00
C 57.40 338.89 36.87 348.91 15.00 355.00
C 10.48 341.93 6.27 328.10 0.00 316.00
L 0.00 349.00
C 2.62 354.09 5.79 359.84 6.00 366.00
L 100.00 366.00
C 100.43 357.86 101.79 349.91 103.00 342.00
C 105.86 328.25 97.81 316.64 96.00 303.00
C 97.95 303.88 100.19 309.50 100.00 304.00
C 115.53 301.34 129.13 292.96 144.00 288.00
C 150.46 282.14 161.48 282.69 168.00 277.00
C 161.15 275.74 155.75 276.47 149.02 280.02 C 142.30 283.58 138.51 274.76 136.00 270.00
C 132.48 263.34 129.03 250.90 120.68 254.68 C 112.32 258.45 104.45 260.14 96.00 263.00 Z"/>
</g>
<g fill="None" fill-opacity="0.0" stroke="#9297A7" stroke-opacity="1.00" stroke-width="0.3"><path d="
M 0.00 291.00 
L 0.00 316.00
C 6.27 328.10 10.48 341.93 15.00 355.00
C 36.87 348.91 57.40 338.89 79.00 332.00
C 81.64 317.33 83.64 302.75 86.00 288.00
C 86.00 286.67 86.00 285.33 86.00 284.00
C 73.95 286.24 62.81 293.63 50.00 290.00
C 46.77 294.52 36.28 297.68 28.02 296.98 C 19.77 296.27 8.92 291.57 0.00 291.00 Z"/>
</g>
<g fill="None" fill-opacity="0.0" stroke="#DEDBDD" stroke-opacity="1.00" stroke-width="0.3"><path d="
M 120.00 366.00 
L 142.00 366.00
C 197.98 342.57 254.26 318.26 311.00 294.00
L 311.00 286.00
C 246.86 313.41 183.34 338.00 120.00 366.00 Z"/>
</g>
<g fill="None" fill-opacity="0.0" stroke="#ABADB5" stroke-opacity="1.00" stroke-width="0.3"><path d="
M 142.00 366.00 
L 235.00 366.00
C 246.60 359.73 258.32 354.64 271.08 349.08 C 283.84 343.51 295.16 335.20 308.00 332.00
C 307.51 330.07 308.74 327.63 311.00 328.00
L 311.00 294.00
C 254.26 318.26 197.98 342.57 142.00 366.00 Z"/>
</g>
<g fill="None" fill-opacity="0.0" stroke="#8B91A0" stroke-opacity="1.00" stroke-width="0.3"><path d="
M 235.00 366.00 
L 311.00 366.00
L 311.00 328.00
C 308.74 327.63 307.51 330.07 308.00 332.00
C 295.16 335.20 283.84 343.51 271.08 349.08 C 258.32 354.64 246.60 359.73 235.00 366.00 Z"/>
</g>
<g fill="None" fill-opacity="0.0" stroke="#7F8898" stroke-opacity="1.00" stroke-width="0.3"><path d="
M 0.00 366.00 
L 6.00 366.00
C 5.79 359.84 2.62 354.09 0.00 349.00
L 0.00 366.00 Z"/>
</g>
<g fill="#D1D5DA" fill-opacity="1.00" stroke="None">
<path d="
M 0.00 3.00 
C 5.05 3.65 10.05 2.10 14.00 0.00
L 0.00 0.00
L 0.00 3.00 Z"/>
</g>
<g fill="#A1A6B2" fill-opacity="1.00" stroke="None">
<path d="
M 0.00 3.00 
L 0.00 21.00
C 11.54 16.83 16.74 18.16 24.00 27.00
C 26.24 27.90 34.40 23.09 39.69 21.69 C 44.99 20.29 52.61 17.59 57.00 16.00
C 62.75 23.63 67.98 31.88 74.00 39.00
C 70.93 40.47 73.59 43.33 72.00 46.00
C 68.07 42.70 63.87 41.19 60.23 41.43 C 56.60 41.67 53.08 31.80 48.00 36.00
C 56.02 36.35 60.80 47.52 65.00 53.00
C 75.47 52.61 85.48 49.34 95.00 46.00
C 86.09 28.95 69.22 16.17 59.00 0.00
L 14.00 0.00
C 10.05 2.10 5.05 3.65 0.00 3.00 Z"/>
</g>
<g fill="#E5E1DF" fill-opacity="1.00" stroke="None">
<path d="
M 48.00 36.00 
C 34.16 37.97 32.74 37.64 24.00 27.00
C 16.74 18.16 11.54 16.83 0.00 21.00
L 0.00 23.00
C 11.85 16.03 23.13 31.03 27.00 40.00
C 28.69 40.62 30.58 39.66 32.00 39.00
C 33.83 45.96 35.69 52.89 37.00 60.00
C 34.83 61.23 32.32 61.22 30.00 62.00
C 20.13 64.48 9.96 65.79 0.00 68.00
L 0.00 71.00
C 33.40 64.92 66.12 54.40 99.00 49.00
C 99.49 48.92 100.00 49.00 100.00 49.00
C 105.80 51.84 107.45 56.82 112.00 60.00
C 110.40 46.63 92.92 38.80 88.00 26.00
C 92.10 26.54 95.23 23.70 99.00 23.00
C 95.99 17.12 89.81 13.32 86.00 8.00
C 81.30 7.37 77.11 11.80 72.00 10.00
C 71.21 5.73 65.87 3.78 64.00 0.00
L 59.00 0.00
C 69.22 16.17 86.09 28.95 95.00 46.00
C 85.48 49.34 75.47 52.61 65.00 53.00
C 60.80 47.52 56.02 36.35 48.00 36.00 Z"/>
</g>
<g fill="#868EA0" fill-opacity="1.00" stroke="None">
<path d="
M 86.00 8.00 
C 91.52 8.74 96.13 17.77 99.00 21.00
C 103.59 19.59 110.27 20.87 114.00 17.00
C 106.85 13.19 102.25 6.02 97.00 0.00
L 64.00 0.00
C 65.87 3.78 71.21 5.73 72.00 10.00
C 77.11 11.80 81.30 7.37 86.00 8.00 Z"/>
</g>
<g fill="#B3B4BC" fill-opacity="1.00" stroke="None">
<path d="
M 86.00 8.00 
C 89.81 13.32 95.99 17.12 99.00 23.00
C 95.23 23.70 92.10 26.54 88.00 26.00
C 92.92 38.80 110.40 46.63 112.00 60.00
C 107.45 56.82 105.80 51.84 100.00 49.00
C 102.47 53.63 107.18 58.28 111.00 61.00
C 107.74 63.63 112.21 67.67 115.00 69.00
C 114.20 71.51 113.72 74.19 114.00 77.00
C 120.59 76.57 117.40 87.01 121.31 91.69 C 125.21 96.37 128.63 102.50 131.97 108.03 C 135.31 113.55 139.23 118.47 143.25 123.75 C 147.28 129.02 150.35 132.41 155.25 137.75 C 160.14 143.10 160.93 147.39 167.25 152.75 C 173.57 158.11 169.81 163.29 162.00 165.00
C 171.73 163.02 180.07 157.42 190.00 156.00
C 169.33 123.97 136.80 94.21 113.00 62.00
C 117.55 61.04 110.46 56.34 115.00 58.00
C 108.80 46.39 95.70 38.69 90.00 27.00
C 93.61 26.12 98.17 26.35 101.00 24.00
C 106.73 20.15 117.86 18.33 127.22 16.22 C 136.58 14.12 148.29 11.52 158.00 10.00 C 167.71 8.48 178.67 3.34 188.00 5.00
C 165.34 12.31 139.71 14.05 117.00 21.00
C 119.22 21.35 122.21 22.39 120.00 25.00
C 121.56 27.46 124.38 25.09 126.00 24.00
C 126.84 27.95 129.87 29.47 132.00 32.00
C 140.07 26.28 145.80 35.22 154.00 36.00
C 157.40 31.33 165.37 31.22 171.67 29.67 C 177.97 28.13 185.47 26.28 192.00 25.00
C 189.90 23.64 191.20 18.07 191.00 16.00
C 190.41 9.89 190.58 -0.70 181.00 4.00
C 181.90 1.61 186.34 3.13 186.00 0.00
L 97.00 0.00
C 102.25 6.02 106.85 13.19 114.00 17.00
C 110.27 20.87 103.59 19.59 99.00 21.00
C 96.13 17.77 91.52 8.74 86.00 8.00 Z"/>
</g>
<g fill="#999FAD" fill-opacity="1.00" stroke="None">
<path d="
M 191.00 16.00 
C 191.12 14.01 190.91 11.99 191.00 10.00
C 204.11 9.15 219.42 3.67 230.00 3.00
C 230.00 2.00 230.00 1.00 230.00 0.00
L 186.00 0.00
C 186.34 3.13 181.90 1.61 181.00 4.00
C 190.58 -0.70 190.41 9.89 191.00 16.00 Z"/>
</g>
<g fill="#B5B6C0" fill-opacity="1.00" stroke="None">
<path d="
M 230.00 3.00 
C 230.00 7.33 230.00 11.67 230.00 16.00
C 226.81 17.18 222.63 17.11 220.00 19.00
C 230.73 17.43 239.09 11.41 250.00 12.00
C 247.76 6.75 241.31 4.63 238.00 0.00
L 230.00 0.00
C 230.00 1.00 230.00 2.00 230.00 3.00 Z"/>
</g>
<g fill="#DBDBDD" fill-opacity="1.00" stroke="None">
<path d="
M 220.00 19.00 
C 210.50 20.39 201.41 23.15 192.00 25.00
C 185.47 26.28 177.97 28.13 171.67 29.67 C 165.37 31.22 157.40 31.33 154.00 36.00
C 163.74 36.43 175.22 31.32 184.67 29.67 C 194.13 28.02 204.97 22.44 212.75 29.25 C 220.52 36.07 224.69 41.34 232.25 46.75 C 239.80 52.17 246.36 57.28 252.70 63.30 C 259.04 69.32 265.92 74.19 273.00 80.00
C 285.46 90.23 299.14 99.48 311.00 111.00
L 311.00 104.00
C 307.69 101.23 304.24 98.77 301.00 96.00
C 288.62 85.42 274.77 75.15 264.00 64.00
C 280.12 61.69 295.42 56.10 311.00 52.00
L 311.00 49.00
C 306.17 50.10 298.98 52.48 294.33 53.33 C 289.68 54.18 279.47 59.93 280.00 53.00
C 277.88 52.94 275.77 52.77 274.00 54.00
C 267.61 55.34 261.34 57.41 255.00 59.00
C 251.82 54.80 247.17 52.01 243.00 49.00
C 232.33 41.06 222.65 31.08 212.00 24.00
C 243.30 14.21 277.68 9.87 309.00 0.00
L 301.00 0.00
C 289.98 1.16 279.20 6.36 268.00 8.00
C 258.22 9.43 250.41 9.34 244.00 0.00
L 238.00 0.00
C 241.31 4.63 247.76 6.75 250.00 12.00
C 239.09 11.41 230.73 17.43 220.00 19.00 Z"/>
</g>
<g fill="#868B9D" fill-opacity="1.00" stroke="None">
<path d="
M 268.00 8.00 
C 269.09 7.57 270.71 5.26 272.00 5.00
C 270.34 4.40 269.20 2.06 268.00 0.00
L 244.00 0.00
C 250.41 9.34 258.22 9.43 268.00 8.00 Z"/>
</g>
<g fill="#B4B4BA" fill-opacity="1.00" stroke="None">
<path d="
M 268.00 8.00 
C 279.20 6.36 289.98 1.16 301.00 0.00
L 268.00 0.00
C 269.20 2.06 270.34 4.40 272.00 5.00
C 270.71 5.26 269.09 7.57 268.00 8.00 Z"/>
</g>
<g fill="#B4B5BC" fill-opacity="1.00" stroke="None">
<path d="
M 243.00 49.00 
C 241.89 47.95 240.87 46.20 240.00 45.00
C 252.00 40.15 265.50 38.90 278.00 35.00
C 279.19 40.85 276.23 49.01 278.00 52.00
C 276.43 51.70 274.40 52.25 274.00 54.00
C 275.77 52.77 277.88 52.94 280.00 53.00
C 279.47 59.93 289.68 54.18 294.33 53.33 C 298.98 52.48 306.17 50.10 311.00 49.00
L 311.00 25.00
C 302.53 29.69 287.61 27.05 283.00 35.00
C 282.23 32.81 279.58 31.86 280.00 29.00
C 290.56 27.59 300.55 23.94 311.00 22.00
L 311.00 0.00
L 309.00 0.00
C 277.68 9.87 243.30 14.21 212.00 24.00
C 222.65 31.08 232.33 41.06 243.00 49.00 Z"/>
</g>
<g fill="#828CA1" fill-opacity="1.00" stroke="None">
<path d="
M 191.00 16.00 
C 191.20 18.07 189.90 23.64 192.00 25.00
C 201.41 23.15 210.50 20.39 220.00 19.00
C 222.63 17.11 226.81 17.18 230.00 16.00
C 230.00 11.67 230.00 7.33 230.00 3.00
C 219.42 3.67 204.11 9.15 191.00 10.00
C 190.91 11.99 191.12 14.01 191.00 16.00 Z"/>
</g>
<g fill="#DCDBDF" fill-opacity="1.00" stroke="None">
<path d="
M 101.00 24.00 
C 106.23 22.37 111.65 22.26 117.00 21.00
C 139.71 14.05 165.34 12.31 188.00 5.00
C 178.67 3.34 167.71 8.48 158.00 10.00 C 148.29 11.52 136.58 14.12 127.22 16.22 C 117.86 18.33 106.73 20.15 101.00 24.00 Z"/>
</g>
<g fill="#838B9E" fill-opacity="1.00" stroke="None">
<path d="
M 24.00 27.00 
C 32.74 37.64 34.16 37.97 48.00 36.00
C 53.08 31.80 56.60 41.67 60.23 41.43 C 63.87 41.19 68.07 42.70 72.00 46.00
C 73.59 43.33 70.93 40.47 74.00 39.00
C 67.98 31.88 62.75 23.63 57.00 16.00
C 52.61 17.59 44.99 20.29 39.69 21.69 C 34.40 23.09 26.24 27.90 24.00 27.00 Z"/>
</g>
<g fill="#9196A4" fill-opacity="1.00" stroke="None">
<path d="
M 0.00 23.00 
L 0.00 68.00
C 9.96 65.79 20.13 64.48 30.00 62.00
C 32.57 59.10 28.25 55.01 28.22 51.78 C 28.19 48.55 28.44 43.33 27.00 40.00
C 23.13 31.03 11.85 16.03 0.00 23.00 Z"/>
</g>
<g fill="#A1A6B2" fill-opacity="1.00" stroke="None">
<path d="
M 101.00 24.00 
C 98.17 26.35 93.61 26.12 90.00 27.00
C 95.70 38.69 108.80 46.39 115.00 58.00
C 115.11 58.21 116.00 58.00 116.00 58.00
C 114.37 55.72 113.04 53.02 111.00 51.00
C 124.32 46.95 140.34 46.17 153.00 42.00
C 155.10 46.20 153.50 51.39 154.00 56.00
C 149.71 53.94 142.86 58.94 138.00 57.00
C 137.31 60.36 135.20 61.34 132.00 63.00
C 148.83 59.69 165.09 54.92 182.00 55.00
C 170.69 61.09 156.71 61.86 144.00 65.00
C 138.66 66.51 132.98 69.61 127.00 70.00
C 132.18 76.65 138.09 83.18 144.00 89.00
C 148.48 88.74 144.66 83.02 151.03 84.03 C 157.39 85.03 166.88 83.92 173.22 84.22 C 179.56 84.53 179.04 85.61 185.00 85.00
C 185.00 92.33 185.00 99.67 185.00 107.00
C 183.19 106.86 180.92 107.44 180.00 109.00
C 195.23 105.66 177.88 81.76 188.00 76.00
C 187.04 75.81 185.97 76.15 185.00 76.00
C 183.88 69.89 183.86 63.44 184.00 57.00
C 190.35 57.29 192.29 48.56 199.00 50.00
C 200.59 37.72 214.99 49.78 214.00 56.00
C 220.99 59.92 227.55 66.31 233.75 71.25 C 239.95 76.19 245.90 84.03 252.75 88.25 C 259.59 92.48 264.45 101.24 269.75 106.25 C 275.06 111.25 288.76 119.02 281.00 125.00
C 278.50 120.00 272.12 118.50 267.00 120.00
C 268.38 121.89 270.71 122.82 272.00 125.00
C 268.25 125.82 266.93 121.16 264.00 120.00
C 268.22 124.22 271.63 131.02 278.07 129.07 C 284.52 127.13 290.68 125.30 297.00 123.00
C 296.15 122.99 293.57 120.98 292.00 122.00
C 296.21 119.13 290.08 116.20 287.75 113.25 C 285.42 110.30 282.92 106.60 279.00 105.00
C 281.46 102.55 278.79 99.84 276.00 100.00
C 275.85 92.41 269.28 88.24 273.00 80.00
C 265.92 74.19 259.04 69.32 252.70 63.30 C 246.36 57.28 239.80 52.17 232.25 46.75 C 224.69 41.34 220.52 36.07 212.75 29.25 C 204.97 22.44 194.13 28.02 184.67 29.67 C 175.22 31.32 163.74 36.43 154.00 36.00
C 145.80 35.22 140.07 26.28 132.00 32.00
C 129.87 29.47 126.84 27.95 126.00 24.00
C 124.38 25.09 121.56 27.46 120.00 25.00
C 122.21 22.39 119.22 21.35 117.00 21.00
C 111.65 22.26 106.23 22.37 101.00 24.00 Z"/>
</g>
<g fill="#D7D6DA" fill-opacity="1.00" stroke="None">
<path d="
M 311.00 25.00 
L 311.00 22.00
C 300.55 23.94 290.56 27.59 280.00 29.00
C 279.58 31.86 282.23 32.81 283.00 35.00
C 287.61 27.05 302.53 29.69 311.00 25.00 Z"/>
</g>
<g fill="#9297A6" fill-opacity="1.00" stroke="None">
<path d="
M 243.00 49.00 
C 247.17 52.01 251.82 54.80 255.00 59.00
C 261.34 57.41 267.61 55.34 274.00 54.00
C 274.40 52.25 276.43 51.70 278.00 52.00
C 276.23 49.01 279.19 40.85 278.00 35.00
C 265.50 38.90 252.00 40.15 240.00 45.00
C 240.87 46.20 241.89 47.95 243.00 49.00 Z"/>
</g>
<g fill="#C4C3C3" fill-opacity="1.00" stroke="None">
<path d="
M 27.00 40.00 
C 28.44 43.33 28.19 48.55 28.22 51.78 C 28.25 55.01 32.57 59.10 30.00 62.00
C 32.32 61.22 34.83 61.23 37.00 60.00
C 35.69 52.89 33.83 45.96 32.00 39.00
C 30.58 39.66 28.69 40.62 27.00 40.00 Z"/>
</g>
<g fill="#8E94A4" fill-opacity="1.00" stroke="None">
<path d="
M 116.00 58.00 
C 121.33 65.62 123.56 64.66 132.00 63.00
C 135.20 61.34 137.31 60.36 138.00 57.00
C 142.86 58.94 149.71 53.94 154.00 56.00
C 153.50 51.39 155.10 46.20 153.00 42.00
C 140.34 46.17 124.32 46.95 111.00 51.00
C 113.04 53.02 114.37 55.72 116.00 58.00 Z"/>
</g>
<g fill="#838DA0" fill-opacity="1.00" stroke="None">
<path d="
M 188.00 76.00 
C 198.29 70.14 210.77 70.36 218.25 78.75 C 225.73 87.15 233.15 91.51 240.75 99.25 C 248.35 106.99 255.85 113.04 264.00 120.00
C 266.93 121.16 268.25 125.82 272.00 125.00
C 270.71 122.82 268.38 121.89 267.00 120.00
C 272.12 118.50 278.50 120.00 281.00 125.00
C 288.76 119.02 275.06 111.25 269.75 106.25 C 264.45 101.24 259.59 92.48 252.75 88.25 C 245.90 84.03 239.95 76.19 233.75 71.25 C 227.55 66.31 220.99 59.92 214.00 56.00
C 214.99 49.78 200.59 37.72 199.00 50.00
C 192.29 48.56 190.35 57.29 184.00 57.00
C 183.86 63.44 183.88 69.89 185.00 76.00
C 185.97 76.15 187.04 75.81 188.00 76.00 Z"/>
</g>
<g fill="#9BA2B1" fill-opacity="1.00" stroke="None">
<path d="
M 0.00 71.00 
L 0.00 91.00
C 6.74 91.22 9.63 92.26 16.08 91.07 C 22.53 89.87 28.65 87.53 36.00 88.00
C 36.32 82.83 44.77 85.89 47.89 82.89 C 51.01 79.90 56.12 79.73 60.00 81.00
C 59.06 76.66 67.51 72.45 71.30 69.30 C 75.08 66.15 81.65 63.91 87.00 64.00
C 86.73 56.43 93.56 54.61 99.00 52.00
C 98.29 49.96 93.88 53.59 96.00 50.00
C 97.00 49.89 98.73 50.47 99.00 49.00
C 66.12 54.40 33.40 64.92 0.00 71.00 Z"/>
</g>
<g fill="#8991A3" fill-opacity="1.00" stroke="None">
<path d="
M 0.00 91.00 
L 0.00 104.00
C 2.48 109.38 3.21 116.08 5.00 122.00
C 23.54 120.08 40.77 113.24 59.00 110.00
C 59.85 109.56 60.76 108.13 62.00 108.00
C 63.12 99.90 49.44 78.83 64.00 83.00
C 64.87 83.59 68.22 87.98 69.00 89.00
C 68.86 88.00 67.49 87.23 68.00 86.00
C 76.63 86.69 83.25 79.98 92.00 81.00
C 94.15 75.00 107.34 73.60 109.77 80.23 C 112.20 86.86 116.51 91.90 121.00 97.00
C 117.40 98.36 114.94 102.69 111.00 99.00
C 108.72 101.62 112.82 105.29 108.00 106.00
C 106.74 104.07 105.00 102.09 103.00 101.00
C 110.97 107.11 114.19 117.07 120.77 124.23 C 127.35 131.39 132.71 139.84 139.75 147.25 C 146.79 154.66 149.80 167.48 162.00 165.00
C 169.81 163.29 173.57 158.11 167.25 152.75 C 160.93 147.39 160.14 143.10 155.25 137.75 C 150.35 132.41 147.28 129.02 143.25 123.75 C 139.23 118.47 135.31 113.55 131.97 108.03 C 128.63 102.50 125.21 96.37 121.31 91.69 C 117.40 87.01 120.59 76.57 114.00 77.00
C 113.72 74.19 114.20 71.51 115.00 69.00
C 112.21 67.67 107.74 63.63 111.00 61.00
C 107.18 58.28 102.47 53.63 100.00 49.00
C 100.00 49.00 99.49 48.92 99.00 49.00
C 98.73 50.47 97.00 49.89 96.00 50.00
C 93.88 53.59 98.29 49.96 99.00 52.00
C 93.56 54.61 86.73 56.43 87.00 64.00
C 81.65 63.91 75.08 66.15 71.30 69.30 C 67.51 72.45 59.06 76.66 60.00 81.00
C 56.12 79.73 51.01 79.90 47.89 82.89 C 44.77 85.89 36.32 82.83 36.00 88.00
C 28.65 87.53 22.53 89.87 16.08 91.07 C 9.63 92.26 6.74 91.22 0.00 91.00 Z"/>
</g>
<g fill="#A3A7B3" fill-opacity="1.00" stroke="None">
<path d="
M 301.00 96.00 
C 298.12 93.12 295.64 89.96 292.00 88.00
C 297.75 85.64 304.20 83.17 311.00 83.00
L 311.00 52.00
C 295.42 56.10 280.12 61.69 264.00 64.00
C 274.77 75.15 288.62 85.42 301.00 96.00 Z"/>
</g>
<g fill="#E9E3DF" fill-opacity="1.00" stroke="None">
<path d="
M 132.00 63.00 
C 123.56 64.66 121.33 65.62 116.00 58.00
C 116.00 58.00 115.11 58.21 115.00 58.00
C 110.46 56.34 117.55 61.04 113.00 62.00
C 136.80 94.21 169.33 123.97 190.00 156.00
C 180.07 157.42 171.73 163.02 162.00 165.00
C 149.80 167.48 146.79 154.66 139.75 147.25 C 132.71 139.84 127.35 131.39 120.77 124.23 C 114.19 117.07 110.97 107.11 103.00 101.00
C 96.82 97.02 88.90 102.92 81.78 103.78 C 74.65 104.64 72.37 93.40 69.00 89.00
C 68.22 87.98 64.87 83.59 64.00 83.00
C 62.06 82.36 60.86 84.21 59.00 84.00
C 62.91 93.17 69.88 102.00 75.00 111.00
C 70.84 111.46 67.53 114.84 63.00 114.00
C 63.72 111.46 61.50 109.36 59.00 110.00
C 40.77 113.24 23.54 120.08 5.00 122.00
C 3.21 116.08 2.48 109.38 0.00 104.00
L 0.00 134.00
C 11.28 130.94 24.31 127.43 35.67 124.67 C 47.03 121.91 60.84 118.36 71.68 115.68 C 82.52 113.00 87.85 127.50 93.00 136.00
C 95.81 139.46 100.92 147.50 105.00 142.00
C 109.24 152.57 109.96 164.62 112.00 176.00
C 111.91 177.66 112.07 179.34 112.00 181.00
C 107.66 180.77 103.99 182.93 100.00 184.00
C 95.63 185.13 90.70 185.10 87.00 188.00
C 82.77 185.02 81.72 173.31 75.00 175.00 C 68.28 176.69 62.14 178.04 55.93 180.93 C 49.71 183.81 42.73 185.16 40.25 177.75 C 37.76 170.35 34.29 167.94 32.00 161.00
C 29.36 161.72 25.61 160.01 24.00 163.00
C 23.79 163.39 24.00 164.00 24.00 164.00
C 29.33 170.64 30.76 179.03 35.77 186.23 C 40.78 193.43 44.68 205.73 31.00 205.00
C 30.90 199.27 34.66 194.31 31.00 189.00
C 29.33 190.42 27.04 189.89 25.00 190.00
C 17.13 193.43 8.12 194.25 0.00 197.00
L 0.00 219.00
C 26.58 213.07 49.25 200.61 76.00 196.00
C 89.92 193.60 101.53 186.59 116.00 184.00
C 118.50 183.19 123.67 179.68 128.00 180.00
C 129.05 182.19 129.72 186.70 132.00 183.00
C 135.76 189.25 130.88 197.50 140.00 198.00
C 141.98 208.70 149.97 216.53 158.00 224.00
C 155.00 226.90 163.55 239.02 167.00 235.00
C 166.65 247.51 179.82 255.56 184.00 267.00
C 181.36 267.15 179.60 268.34 181.00 271.00
C 177.37 267.68 168.83 271.60 168.00 275.00
C 168.98 278.41 171.74 275.51 174.00 276.00
C 189.30 274.39 204.16 263.82 219.69 259.69 C 235.23 255.57 249.59 247.12 264.75 241.75 C 279.90 236.37 293.06 229.39 309.00 225.00
C 302.52 223.25 305.73 223.47 310.00 221.00
C 306.37 218.05 301.88 222.52 298.00 223.00
C 296.94 214.52 295.58 207.80 295.00 199.00 C 294.42 190.20 281.24 201.27 276.00 200.00
C 267.54 202.19 264.96 201.17 259.75 194.25 C 254.54 187.33 250.80 185.01 245.75 179.25 C 240.70 173.49 236.08 170.09 231.25 164.75 C 226.42 159.42 222.56 154.12 218.25 148.75 C 213.93 143.39 208.36 138.45 203.00 135.00
C 203.00 130.00 203.00 125.00 203.00 120.00
C 201.76 107.21 200.92 93.75 200.00 80.00
C 220.35 99.91 241.63 118.76 260.00 139.00
C 277.12 134.05 294.09 128.61 311.00 123.00
L 311.00 120.00
C 306.06 119.77 301.47 121.37 297.00 123.00
C 290.68 125.30 284.52 127.13 278.07 129.07 C 271.63 131.02 268.22 124.22 264.00 120.00
C 255.85 113.04 248.35 106.99 240.75 99.25 C 233.15 91.51 225.73 87.15 218.25 78.75 C 210.77 70.36 198.29 70.14 188.00 76.00
C 177.88 81.76 195.23 105.66 180.00 109.00
C 177.95 109.45 176.04 109.53 174.00 110.00
C 167.59 112.14 162.90 114.13 159.23 107.77 C 155.56 101.41 150.87 100.78 147.70 95.30 C 144.52 89.83 139.74 88.25 136.75 83.25 C 133.77 78.25 128.97 75.31 126.00 70.00
C 129.26 68.76 132.43 67.23 136.00 67.00
C 131.86 63.63 141.45 66.63 144.00 65.00
C 156.71 61.86 170.69 61.09 182.00 55.00
C 165.09 54.92 148.83 59.69 132.00 63.00
M 198.00 126.00 
C 200.03 130.54 197.44 137.08 198.00 142.00
C 198.43 145.76 199.52 148.92 199.00 152.00
C 194.83 150.28 194.58 145.93 195.00 142.00
C 194.29 135.10 189.43 130.79 194.00 126.00
C 194.39 125.60 194.28 123.48 195.00 123.00
C 196.20 123.67 197.58 124.64 198.00 126.00
M 196.00 160.00 
C 196.31 160.21 196.80 160.68 197.00 161.00
C 202.54 165.31 205.99 170.61 210.00 176.00
C 216.65 183.63 226.21 198.52 236.00 195.00
C 238.74 206.53 234.51 220.14 239.00 231.00
C 239.77 235.58 237.71 240.83 240.00 245.00
C 233.45 247.72 226.44 248.84 220.00 252.00
C 217.53 248.17 213.42 245.22 212.00 241.00
C 208.16 236.32 203.35 232.19 200.00 227.00
C 187.69 231.30 172.72 239.00 166.23 225.77 C 159.73 212.54 150.10 209.16 145.00 196.00
C 140.78 190.49 134.81 184.84 133.00 178.00
C 154.44 174.53 175.45 162.45 196.00 160.00 Z"/>
</g>
<g fill="#BFC0C4" fill-opacity="1.00" stroke="None">
<path d="
M 174.00 110.00 
C 158.58 113.58 153.92 98.92 144.00 89.00
C 138.09 83.18 132.18 76.65 127.00 70.00
C 132.98 69.61 138.66 66.51 144.00 65.00
C 141.45 66.63 131.86 63.63 136.00 67.00
C 132.43 67.23 129.26 68.76 126.00 70.00
C 128.97 75.31 133.77 78.25 136.75 83.25 C 139.74 88.25 144.52 89.83 147.70 95.30 C 150.87 100.78 155.56 101.41 159.23 107.77 C 162.90 114.13 167.59 112.14 174.00 110.00 Z"/>
</g>
<g fill="#77849B" fill-opacity="1.00" stroke="None">
<path d="
M 69.00 89.00 
C 72.37 93.40 74.65 104.64 81.78 103.78 C 88.90 102.92 96.82 97.02 103.00 101.00
C 105.00 102.09 106.74 104.07 108.00 106.00
C 112.82 105.29 108.72 101.62 111.00 99.00
C 114.94 102.69 117.40 98.36 121.00 97.00
C 116.51 91.90 112.20 86.86 109.77 80.23 C 107.34 73.60 94.15 75.00 92.00 81.00
C 83.25 79.98 76.63 86.69 68.00 86.00
C 67.49 87.23 68.86 88.00 69.00 89.00 Z"/>
</g>
<g fill="#ADAFB8" fill-opacity="1.00" stroke="None">
<path d="
M 203.00 120.00 
C 203.00 118.37 202.82 116.62 203.00 115.00
C 203.15 113.68 202.89 112.32 203.00 111.00
C 212.34 114.09 217.77 126.74 228.00 128.00
C 235.01 141.93 249.89 154.44 262.00 166.00
C 264.50 164.67 261.43 160.26 264.00 159.00
C 263.37 162.82 264.22 164.31 268.00 163.00
C 266.03 156.10 274.37 155.66 277.11 152.11 C 279.84 148.55 285.38 145.41 291.00 146.00
C 296.21 137.63 300.47 128.75 311.00 126.00
L 311.00 123.00
C 294.09 128.61 277.12 134.05 260.00 139.00
C 241.63 118.76 220.35 99.91 200.00 80.00
C 200.92 93.75 201.76 107.21 203.00 120.00 Z"/>
</g>
<g fill="#B9B8BE" fill-opacity="1.00" stroke="None">
<path d="
M 297.00 123.00 
C 301.47 121.37 306.06 119.77 311.00 120.00
L 311.00 111.00
C 299.14 99.48 285.46 90.23 273.00 80.00
C 269.28 88.24 275.85 92.41 276.00 100.00
C 278.79 99.84 281.46 102.55 279.00 105.00
C 282.92 106.60 285.42 110.30 287.75 113.25 C 290.08 116.20 296.21 119.13 292.00 122.00
C 293.57 120.98 296.15 122.99 297.00 123.00 Z"/>
</g>
<g fill="#C1BEC5" fill-opacity="1.00" stroke="None">
<path d="
M 59.00 110.00 
C 61.50 109.36 63.72 111.46 63.00 114.00
C 67.53 114.84 70.84 111.46 75.00 111.00
C 69.88 102.00 62.91 93.17 59.00 84.00
C 60.86 84.21 62.06 82.36 64.00 83.00
C 49.44 78.83 63.12 99.90 62.00 108.00
C 60.76 108.13 59.85 109.56 59.00 110.00 Z"/>
</g>
<g fill="#868EA0" fill-opacity="1.00" stroke="None">
<path d="
M 301.00 96.00 
C 304.24 98.77 307.69 101.23 311.00 104.00
L 311.00 83.00
C 304.20 83.17 297.75 85.64 292.00 88.00
C 295.64 89.96 298.12 93.12 301.00 96.00 Z"/>
</g>
<g fill="#838DA0" fill-opacity="1.00" stroke="None">
<path d="
M 144.00 89.00 
C 153.92 98.92 158.58 113.58 174.00 110.00
C 176.04 109.53 177.95 109.45 180.00 109.00
C 180.92 107.44 183.19 106.86 185.00 107.00
C 185.00 99.67 185.00 92.33 185.00 85.00
C 179.04 85.61 179.56 84.53 173.22 84.22 C 166.88 83.92 157.39 85.03 151.03 84.03 C 144.66 83.02 148.48 88.74 144.00 89.00 Z"/>
</g>
<g fill="#999FAD" fill-opacity="1.00" stroke="None">
<path d="
M 203.00 115.00 
C 203.13 114.42 204.28 112.40 205.00 112.00
C 214.27 120.12 221.96 129.53 231.30 138.70 C 240.63 147.88 248.17 156.64 257.70 166.30 C 267.24 175.95 284.79 160.08 296.00 160.00
C 297.31 153.54 307.17 156.61 311.00 155.00
L 311.00 126.00
C 300.47 128.75 296.21 137.63 291.00 146.00
C 285.38 145.41 279.84 148.55 277.11 152.11 C 274.37 155.66 266.03 156.10 268.00 163.00
C 264.22 164.31 263.37 162.82 264.00 159.00
C 261.43 160.26 264.50 164.67 262.00 166.00
C 249.89 154.44 235.01 141.93 228.00 128.00
C 217.77 126.74 212.34 114.09 203.00 111.00
C 202.89 112.32 203.15 113.68 203.00 115.00 Z"/>
</g>
<g fill="#8890A3" fill-opacity="1.00" stroke="None">
<path d="
M 203.00 115.00 
C 202.82 116.62 203.00 118.37 203.00 120.00
C 203.00 125.00 203.00 130.00 203.00 135.00
C 208.36 138.45 213.93 143.39 218.25 148.75 C 222.56 154.12 226.42 159.42 231.25 164.75 C 236.08 170.09 240.70 173.49 245.75 179.25 C 250.80 185.01 254.54 187.33 259.75 194.25 C 264.96 201.17 267.54 202.19 276.00 200.00
C 280.73 197.76 288.99 197.09 293.22 193.22 C 297.46 189.35 291.67 174.21 294.00 169.00
C 295.54 169.37 296.40 167.57 298.00 168.00
C 304.03 167.25 306.30 174.61 311.00 177.00
L 311.00 155.00
C 307.17 156.61 297.31 153.54 296.00 160.00
C 284.79 160.08 267.24 175.95 257.70 166.30 C 248.17 156.64 240.63 147.88 231.30 138.70 C 221.96 129.53 214.27 120.12 205.00 112.00
C 204.28 112.40 203.13 114.42 203.00 115.00 Z"/>
</g>
<g fill="#9CA3B0" fill-opacity="1.00" stroke="None">
<path d="
M 0.00 134.00 
L 0.00 168.00
C 8.29 168.33 15.72 162.44 24.00 163.00
C 25.61 160.01 29.36 161.72 32.00 161.00
C 37.12 159.61 50.21 155.64 51.00 152.00
C 53.79 151.43 59.87 153.87 59.00 149.00
C 70.02 147.89 73.91 136.42 85.00 135.00
C 91.20 148.68 97.23 164.42 105.00 178.00
C 105.23 180.89 100.36 179.57 104.00 182.00
C 102.39 182.01 99.57 181.41 100.00 184.00
C 103.99 182.93 107.66 180.77 112.00 181.00
C 112.07 179.34 111.91 177.66 112.00 176.00
C 102.03 177.35 103.07 164.45 102.00 157.00 C 100.94 149.55 96.95 142.52 93.00 136.00
C 87.85 127.50 82.52 113.00 71.68 115.68 C 60.84 118.36 47.03 121.91 35.67 124.67 C 24.31 127.43 11.28 130.94 0.00 134.00 Z"/>
</g>
<g fill="#83787A" fill-opacity="1.00" stroke="None">
<path d="
M 194.00 126.00 
C 193.91 126.71 195.34 131.27 196.00 132.00
C 197.48 130.08 194.33 124.16 198.00 126.00
C 197.58 124.64 196.20 123.67 195.00 123.00
C 194.28 123.48 194.39 125.60 194.00 126.00 Z"/>
</g>
<g fill="#42393D" fill-opacity="1.00" stroke="None">
<path d="
M 194.00 126.00 
C 189.43 130.79 194.29 135.10 195.00 142.00
C 196.00 142.00 197.00 142.00 198.00 142.00
C 197.44 137.08 200.03 130.54 198.00 126.00
C 194.33 124.16 197.48 130.08 196.00 132.00
C 195.34 131.27 193.91 126.71 194.00 126.00 Z"/>
</g>
<g fill="#818B9F" fill-opacity="1.00" stroke="None">
<path d="
M 32.00 161.00 
C 34.29 167.94 37.76 170.35 40.25 177.75 C 42.73 185.16 49.71 183.81 55.93 180.93 C 62.14 178.04 68.28 176.69 75.00 175.00 C 81.72 173.31 82.77 185.02 87.00 188.00
C 90.70 185.10 95.63 185.13 100.00 184.00
C 99.57 181.41 102.39 182.01 104.00 182.00
C 100.36 179.57 105.23 180.89 105.00 178.00
C 97.23 164.42 91.20 148.68 85.00 135.00
C 73.91 136.42 70.02 147.89 59.00 149.00
C 59.87 153.87 53.79 151.43 51.00 152.00
C 50.21 155.64 37.12 159.61 32.00 161.00 Z"/>
</g>
<g fill="#C7C4C6" fill-opacity="1.00" stroke="None">
<path d="
M 112.00 176.00 
C 109.96 164.62 109.24 152.57 105.00 142.00
C 100.92 147.50 95.81 139.46 93.00 136.00
C 96.95 142.52 100.94 149.55 102.00 157.00 C 103.07 164.45 102.03 177.35 112.00 176.00 Z"/>
</g>
<g fill="#9D9798" fill-opacity="1.00" stroke="None">
<path d="
M 198.00 142.00 
C 197.00 142.00 196.00 142.00 195.00 142.00
C 194.58 145.93 194.83 150.28 199.00 152.00
C 199.52 148.92 198.43 145.76 198.00 142.00 Z"/>
</g>
<g fill="#99A0AC" fill-opacity="1.00" stroke="None">
<path d="
M 145.00 196.00 
C 148.03 198.62 153.08 198.80 151.00 203.00
C 154.55 202.07 158.41 198.83 162.00 201.00
C 163.84 193.62 173.76 194.41 180.00 193.00
C 178.26 188.34 185.20 188.30 183.00 184.00
C 186.10 184.65 189.07 183.77 188.00 180.00
C 197.72 182.52 193.59 166.67 201.00 169.00
C 200.32 165.46 194.30 163.34 196.00 160.00
C 175.45 162.45 154.44 174.53 133.00 178.00
C 134.81 184.84 140.78 190.49 145.00 196.00 Z"/>
</g>
<g fill="#888E9F" fill-opacity="1.00" stroke="None">
<path d="
M 145.00 196.00 
C 150.10 209.16 159.73 212.54 166.23 225.77 C 172.72 239.00 187.69 231.30 200.00 227.00
C 203.35 232.19 208.16 236.32 212.00 241.00
C 211.30 238.98 211.36 235.61 214.00 234.00
C 215.44 238.32 219.18 239.17 224.00 240.00
C 223.36 237.05 225.37 234.53 228.00 234.00
C 229.75 225.12 220.16 217.77 217.03 210.97 C 213.89 204.17 209.30 195.64 209.00 186.00
C 205.99 187.42 203.14 179.84 203.07 174.93 C 203.00 170.01 201.63 164.76 197.00 161.00
C 196.80 160.68 196.31 160.21 196.00 160.00
C 194.30 163.34 200.32 165.46 201.00 169.00
C 193.59 166.67 197.72 182.52 188.00 180.00
C 189.07 183.77 186.10 184.65 183.00 184.00
C 185.20 188.30 178.26 188.34 180.00 193.00
C 173.76 194.41 163.84 193.62 162.00 201.00
C 158.41 198.83 154.55 202.07 151.00 203.00
C 153.08 198.80 148.03 198.62 145.00 196.00 Z"/>
</g>
<g fill="#9DA1AD" fill-opacity="1.00" stroke="None">
<path d="
M 212.00 241.00 
C 213.42 245.22 217.53 248.17 220.00 252.00
C 226.44 248.84 233.45 247.72 240.00 245.00
C 237.71 240.83 239.77 235.58 239.00 231.00
C 237.52 227.76 234.89 230.61 232.00 230.00
C 226.68 221.10 231.97 205.22 228.07 196.92 C 224.16 188.62 214.65 184.14 210.00 176.00
C 205.99 170.61 202.54 165.31 197.00 161.00
C 201.63 164.76 203.00 170.01 203.07 174.93 C 203.14 179.84 205.99 187.42 209.00 186.00
C 209.30 195.64 213.89 204.17 217.03 210.97 C 220.16 217.77 229.75 225.12 228.00 234.00
C 225.37 234.53 223.36 237.05 224.00 240.00
C 219.18 239.17 215.44 238.32 214.00 234.00
C 211.36 235.61 211.30 238.98 212.00 241.00 Z"/>
</g>
<g fill="#7F8AA1" fill-opacity="1.00" stroke="None">
<path d="
M 0.00 168.00 
L 0.00 197.00
C 8.12 194.25 17.13 193.43 25.00 190.00
C 26.41 189.39 27.81 187.11 30.00 188.00
C 27.28 180.70 27.64 171.65 24.00 164.00
C 24.00 164.00 23.79 163.39 24.00 163.00
C 15.72 162.44 8.29 168.33 0.00 168.00 Z"/>
</g>
<g fill="#B4B2B9" fill-opacity="1.00" stroke="None">
<path d="
M 25.00 190.00 
C 27.04 189.89 29.33 190.42 31.00 189.00
C 34.66 194.31 30.90 199.27 31.00 205.00
C 44.68 205.73 40.78 193.43 35.77 186.23 C 30.76 179.03 29.33 170.64 24.00 164.00
C 27.64 171.65 27.28 180.70 30.00 188.00
C 27.81 187.11 26.41 189.39 25.00 190.00 Z"/>
</g>
<g fill="#B5B6BC" fill-opacity="1.00" stroke="None">
<path d="
M 276.00 200.00 
C 281.24 201.27 294.42 190.20 295.00 199.00 C 295.58 207.80 296.94 214.52 298.00 223.00
C 301.88 222.52 306.37 218.05 310.00 221.00
C 305.73 223.47 302.52 223.25 309.00 225.00
C 293.06 229.39 279.90 236.37 264.75 241.75 C 249.59 247.12 235.23 255.57 219.69 259.69 C 204.16 263.82 189.30 274.39 174.00 276.00
C 164.17 279.28 154.15 284.62 144.00 288.00
C 129.13 292.96 115.53 301.34 100.00 304.00
C 100.19 309.50 97.95 303.88 96.00 303.00
C 97.81 316.64 105.86 328.25 103.00 342.00
C 105.83 339.11 115.95 341.44 120.08 337.08 C 124.20 332.71 131.88 332.84 137.22 330.22 C 142.56 327.60 148.87 326.31 154.23 323.23 C 159.59 320.15 166.60 319.31 172.08 316.08 C 177.55 312.84 183.58 311.61 189.25 309.25 C 194.91 306.89 200.46 304.44 206.03 302.03 C 211.60 299.62 218.98 298.12 224.22 295.22 C 229.46 292.32 236.02 290.40 241.07 288.07 C 246.13 285.75 253.74 283.84 257.74 280.74 C 261.74 277.65 273.19 275.35 268.00 272.00
C 273.18 272.33 279.07 269.56 279.00 265.00
C 284.97 263.68 291.84 260.97 292.00 254.00
C 299.49 253.53 302.11 245.16 309.00 243.00
C 308.25 240.91 308.04 239.50 311.00 240.00
L 311.00 185.00
C 305.71 180.18 300.14 175.19 295.00 171.00
C 295.56 169.73 297.85 169.75 298.00 168.00
C 296.40 167.57 295.54 169.37 294.00 169.00
C 291.67 174.21 297.46 189.35 293.22 193.22 C 288.99 197.09 280.73 197.76 276.00 200.00 Z"/>
</g>
<g fill="#DEDEE0" fill-opacity="1.00" stroke="None">
<path d="
M 311.00 185.00 
L 311.00 177.00
C 306.30 174.61 304.03 167.25 298.00 168.00
C 297.85 169.75 295.56 169.73 295.00 171.00
C 300.14 175.19 305.71 180.18 311.00 185.00 Z"/>
</g>
<g fill="#C6C3C5" fill-opacity="1.00" stroke="None">
<path d="
M 239.00 231.00 
C 234.51 220.14 238.74 206.53 236.00 195.00
C 226.21 198.52 216.65 183.63 210.00 176.00
C 214.65 184.14 224.16 188.62 228.07 196.92 C 231.97 205.22 226.68 221.10 232.00 230.00
C 234.89 230.61 237.52 227.76 239.00 231.00 Z"/>
</g>
<g fill="#D1D0D5" fill-opacity="1.00" stroke="None">
<path d="
M 116.00 184.00 
C 119.02 183.46 121.84 182.13 125.00 182.00
C 142.52 208.93 162.13 235.14 179.00 262.00
C 174.17 257.43 176.93 266.59 181.00 263.00
C 179.51 266.25 173.80 264.37 179.00 267.00
C 173.84 268.48 169.18 271.52 164.00 273.00
C 157.09 275.49 150.50 279.23 143.00 280.00
C 141.21 276.60 139.33 272.33 136.00 270.00
C 138.51 274.76 142.30 283.58 149.02 280.02 C 155.75 276.47 161.15 275.74 168.00 277.00
C 161.48 282.69 150.46 282.14 144.00 288.00
C 154.15 284.62 164.17 279.28 174.00 276.00
C 171.74 275.51 168.98 278.41 168.00 275.00
C 168.83 271.60 177.37 267.68 181.00 271.00
C 179.60 268.34 181.36 267.15 184.00 267.00
C 179.82 255.56 166.65 247.51 167.00 235.00
C 163.55 239.02 155.00 226.90 158.00 224.00
C 149.97 216.53 141.98 208.70 140.00 198.00
C 130.88 197.50 135.76 189.25 132.00 183.00
C 129.72 186.70 129.05 182.19 128.00 180.00
C 123.67 179.68 118.50 183.19 116.00 184.00 Z"/>
</g>
<g fill="#9CA1AD" fill-opacity="1.00" stroke="None">
<path d="
M 116.00 184.00 
C 101.53 186.59 89.92 193.60 76.00 196.00
C 70.51 198.15 69.16 204.37 64.00 205.00
C 64.00 208.33 64.00 211.67 64.00 215.00
C 59.53 215.34 56.65 217.14 52.00 216.00
C 52.56 218.52 50.81 222.30 53.00 224.00
C 56.67 221.78 57.22 227.03 52.75 228.80 C 48.29 230.57 48.82 239.34 41.00 236.00
C 41.07 239.26 36.43 241.26 40.00 244.00
C 26.30 247.35 13.99 254.78 0.00 258.00
L 0.00 268.00
C 7.91 266.12 16.70 262.95 24.22 260.22 C 31.74 257.50 41.37 255.86 48.22 252.22 C 55.08 248.58 67.34 250.09 72.00 244.00
C 70.03 243.50 68.07 243.26 66.00 243.00
C 70.16 246.86 58.91 242.57 56.00 244.00
C 60.67 237.39 71.97 236.17 80.23 232.23 C 88.49 228.29 97.67 225.39 106.25 222.25 C 114.82 219.10 124.32 216.07 132.00 212.00
C 131.65 220.73 140.44 226.00 143.75 233.25 C 147.06 240.50 152.47 246.88 155.92 254.08 C 159.38 261.27 168.01 266.14 164.00 273.00
C 169.18 271.52 173.84 268.48 179.00 267.00
C 173.80 264.37 179.51 266.25 181.00 263.00
C 176.93 266.59 174.17 257.43 179.00 262.00
C 162.13 235.14 142.52 208.93 125.00 182.00
C 121.84 182.13 119.02 183.46 116.00 184.00 Z"/>
</g>
<g fill="#B2B3BA" fill-opacity="1.00" stroke="None">
<path d="
M 0.00 219.00 
L 0.00 258.00
C 13.99 254.78 26.30 247.35 40.00 244.00
C 36.43 241.26 41.07 239.26 41.00 236.00
C 48.82 239.34 48.29 230.57 52.75 228.80 C 57.22 227.03 56.67 221.78 53.00 224.00
C 50.81 222.30 52.56 218.52 52.00 216.00
C 56.65 217.14 59.53 215.34 64.00 215.00
C 64.00 211.67 64.00 208.33 64.00 205.00
C 69.16 204.37 70.51 198.15 76.00 196.00
C 49.25 200.61 26.58 213.07 0.00 219.00 Z"/>
</g>
<g fill="#818B9F" fill-opacity="1.00" stroke="None">
<path d="
M 72.00 244.00 
C 72.47 244.12 73.00 244.00 73.00 244.00
C 79.33 238.90 81.20 262.34 84.11 264.89 C 87.02 267.44 93.93 263.41 96.00 263.00
C 104.45 260.14 112.32 258.45 120.68 254.68 C 129.03 250.90 132.48 263.34 136.00 270.00
C 139.33 272.33 141.21 276.60 143.00 280.00
C 150.50 279.23 157.09 275.49 164.00 273.00
C 168.01 266.14 159.38 261.27 155.92 254.08 C 152.47 246.88 147.06 240.50 143.75 233.25 C 140.44 226.00 131.65 220.73 132.00 212.00
C 124.32 216.07 114.82 219.10 106.25 222.25 C 97.67 225.39 88.49 228.29 80.23 232.23 C 71.97 236.17 60.67 237.39 56.00 244.00
C 58.91 242.57 70.16 246.86 66.00 243.00
C 68.07 243.26 70.03 243.50 72.00 244.00 Z"/>
</g>
<g fill="#949AA8" fill-opacity="1.00" stroke="None">
<path d="
M 103.00 342.00 
C 101.79 349.91 100.43 357.86 100.00 366.00
L 120.00 366.00
C 183.34 338.00 246.86 313.41 311.00 286.00
L 311.00 240.00
C 308.04 239.50 308.25 240.91 309.00 243.00
C 302.11 245.16 299.49 253.53 292.00 254.00
C 291.84 260.97 284.97 263.68 279.00 265.00
C 279.07 269.56 273.18 272.33 268.00 272.00
C 273.19 275.35 261.74 277.65 257.74 280.74 C 253.74 283.84 246.13 285.75 241.07 288.07 C 236.02 290.40 229.46 292.32 224.22 295.22 C 218.98 298.12 211.60 299.62 206.03 302.03 C 200.46 304.44 194.91 306.89 189.25 309.25 C 183.58 311.61 177.55 312.84 172.08 316.08 C 166.60 319.31 159.59 320.15 154.23 323.23 C 148.87 326.31 142.56 327.60 137.22 330.22 C 131.88 332.84 124.20 332.71 120.08 337.08 C 115.95 341.44 105.83 339.11 103.00 342.00 Z"/>
</g>
<g fill="#B0B1BA" fill-opacity="1.00" stroke="None">
<path d="
M 73.00 244.00 
C 75.77 244.12 76.66 245.60 78.00 248.00
C 52.93 258.78 25.73 264.79 0.00 275.00
L 0.00 291.00
C 8.92 291.57 19.77 296.27 28.02 296.98 C 36.28 297.68 46.77 294.52 50.00 290.00
C 62.81 293.63 73.95 286.24 86.00 284.00
C 86.00 285.33 86.00 286.67 86.00 288.00
C 87.03 281.54 84.49 275.08 84.00 268.00
C 87.98 266.52 92.47 264.89 96.00 263.00
C 93.93 263.41 87.02 267.44 84.11 264.89 C 81.20 262.34 79.33 238.90 73.00 244.00 Z"/>
</g>
<g fill="#DEDCDE" fill-opacity="1.00" stroke="None">
<path d="
M 0.00 268.00 
L 0.00 275.00
C 25.73 264.79 52.93 258.78 78.00 248.00
C 76.66 245.60 75.77 244.12 73.00 244.00
C 73.00 244.00 72.47 244.12 72.00 244.00
C 67.34 250.09 55.08 248.58 48.22 252.22 C 41.37 255.86 31.74 257.50 24.22 260.22 C 16.70 262.95 7.91 266.12 0.00 268.00 Z"/>
</g>
<g fill="#EDE5E0" fill-opacity="1.00" stroke="None">
<path d="
M 96.00 263.00 
C 92.47 264.89 87.98 266.52 84.00 268.00
C 84.49 275.08 87.03 281.54 86.00 288.00
C 83.64 302.75 81.64 317.33 79.00 332.00
C 57.40 338.89 36.87 348.91 15.00 355.00
C 10.48 341.93 6.27 328.10 0.00 316.00
L 0.00 349.00
C 2.62 354.09 5.79 359.84 6.00 366.00
L 100.00 366.00
C 100.43 357.86 101.79 349.91 103.00 342.00
C 105.86 328.25 97.81 316.64 96.00 303.00
C 97.95 303.88 100.19 309.50 100.00 304.00
C 115.53 301.34 129.13 292.96 144.00 288.00
C 150.46 282.14 161.48 282.69 168.00 277.00
C 161.15 275.74 155.75 276.47 149.02 280.02 C 142.30 283.58 138.51 274.76 136.00 270.00
C 132.48 263.34 129.03 250.90 120.68 254.68 C 112.32 258.45 104.45 260.14 96.00 263.00 Z"/>
</g>
<g fill="#9297A7" fill-opacity="1.00" stroke="None">
<path d="
M 0.00 291.00 
L 0.00 316.00
C 6.27 328.10 10.48 341.93 15.00 355.00
C 36.87 348.91 57.40 338.89 79.00 332.00
C 81.64 317.33 83.64 302.75 86.00 288.00
C 86.00 286.67 86.00 285.33 86.00 284.00
C 73.95 286.24 62.81 293.63 50.00 290.00
C 46.77 294.52 36.28 297.68 28.02 296.98 C 19.77 296.27 8.92 291.57 0.00 291.00 Z"/>
</g>
<g fill="#DEDBDD" fill-opacity="1.00" stroke="None">
<path d="
M 120.00 366.00 
L 142.00 366.00
C 197.98 342.57 254.26 318.26 311.00 294.00
L 311.00 286.00
C 246.86 313.41 183.34 338.00 120.00 366.00 Z"/>
</g>
<g fill="#ABADB5" fill-opacity="1.00" stroke="None">
<path d="
M 142.00 366.00 
L 235.00 366.00
C 246.60 359.73 258.32 354.64 271.08 349.08 C 283.84 343.51 295.16 335.20 308.00 332.00
C 307.51 330.07 308.74 327.63 311.00 328.00
L 311.00 294.00
C 254.26 318.26 197.98 342.57 142.00 366.00 Z"/>
</g>
<g fill="#8B91A0" fill-opacity="1.00" stroke="None">
<path d="
M 235.00 366.00 
L 311.00 366.00
L 311.00 328.00
C 308.74 327.63 307.51 330.07 308.00 332.00
C 295.16 335.20 283.84 343.51 271.08 349.08 C 258.32 354.64 246.60 359.73 235.00 366.00 Z"/>
</g>
<g fill="#7F8898" fill-opacity="1.00" stroke="None">
<path d="
M 0.00 366.00 
L 6.00 366.00
C 5.79 359.84 2.62 354.09 0.00 349.00
L 0.00 366.00 Z"/>
</g>
</svg>