<svg xmlns="http://www.w3.org/2000/svg" xml:space="preserve" x="0" y="0" version="1.1" viewBox="0 0 100 100"><path d="M5 36.4v18.1h90V32.7H5v3.7zM93.5 38c.4 0 .7.4.7.8s-.3.7-.7.7-.7-.4-.7-.8.3-.7.7-.7zm-3 0c.4 0 .7.4.7.8s-.3.7-.7.7-.7-.4-.7-.8.3-.7.7-.7zm-3 0c.4 0 .7.4.7.8s-.3.7-.7.7-.7-.4-.7-.8.3-.7.7-.7zm-3 0c.4 0 .7.4.7.8s-.3.7-.7.7-.7-.4-.7-.8.3-.7.7-.7zm-3 0c.4 0 .7.4.7.8s-.3.7-.7.7-.7-.4-.7-.8.3-.7.7-.7zm-3 0c.4 0 .7.4.7.8s-.3.7-.7.7-.7-.4-.7-.8.3-.7.7-.7zm-3 0c.4 0 .7.4.7.8s-.3.7-.7.7-.7-.4-.7-.8.3-.7.7-.7zm-3 0c.4 0 .7.4.7.8s-.3.7-.7.7-.7-.4-.7-.8.3-.7.7-.7zm-3 0c.4 0 .7.4.7.8s-.3.7-.7.7-.7-.4-.7-.8.3-.7.7-.7zm-3 0c.4 0 .7.4.7.8s-.3.7-.7.7-.7-.4-.7-.8.3-.7.7-.7zm-3 0c.4 0 .7.4.7.8s-.3.7-.7.7-.7-.4-.7-.8.3-.7.7-.7zm-3 0c.4 0 .7.4.7.8s-.3.7-.7.7-.7-.4-.7-.8.3-.7.7-.7zm-3 0c.4 0 .7.4.7.8s-.3.7-.7.7-.7-.4-.7-.8.3-.7.7-.7zm-3 0c.4 0 .7.4.7.8s-.3.7-.7.7-.7-.4-.7-.8.3-.7.7-.7zm-3 0c.4 0 .7.4.7.8s-.3.7-.7.7-.7-.4-.7-.8.3-.7.7-.7zm-3 0c.4 0 .7.4.7.8s-.3.7-.7.7-.7-.4-.7-.8.3-.7.7-.7zm-3 0c.4 0 .7.4.7.8s-.3.7-.7.7-.7-.4-.7-.8.3-.7.7-.7zm-3 0c.4 0 .7.4.7.8s-.3.7-.7.7-.7-.4-.7-.8.3-.7.7-.7zm-3 0c.4 0 .7.4.7.8s-.3.7-.7.7-.7-.4-.7-.8.3-.7.7-.7zm-3 0c.4 0 .7.4.7.8s-.3.7-.7.7-.7-.4-.7-.8.3-.7.7-.7zm-3 0c.4 0 .7.4.7.8s-.3.7-.7.7-.7-.4-.7-.8.3-.7.7-.7zm-3 0c.4 0 .7.4.7.8s-.3.7-.7.7-.7-.4-.7-.8.3-.7.7-.7zm-3 0c.4 0 .7.4.7.8s-.3.7-.7.7-.7-.4-.7-.8.3-.7.7-.7zm-3 0c.4 0 .7.4.7.8s-.3.7-.7.7-.7-.4-.7-.8.3-.7.7-.7zm-3 0c.4 0 .7.4.7.8s-.3.7-.7.7-.7-.4-.7-.8.3-.7.7-.7zm-3 0c.4 0 .7.4.7.8s-.3.7-.7.7-.7-.4-.7-.8.3-.7.7-.7zm-3 0c.4 0 .7.4.7.8s-.3.7-.7.7-.7-.4-.7-.8.3-.7.7-.7zm-3 0c.4 0 .7.4.7.8s-.3.7-.7.7-.7-.4-.7-.8.3-.7.7-.7zm-3 0c.4 0 .7.4.7.8s-.3.7-.7.7-.7-.4-.7-.8.3-.7.7-.7zm-3 0c.4 0 .7.4.7.8s-.3.7-.7.7-.7-.4-.7-.8.3-.7.7-.7zm0 44c2 5.4 6.1 9.5 11.5 11.5C22.9 95 27.4 95 36.4 95h27.2c9 0 13.5 0 18.5-1.6 5.3-1.9 9.5-6.1 11.4-11.4.6-2.1 1-4.1 1.2-6.5H5.3c.2 2.4.5 4.4 1.2 6.5zM5 63.6c0 4.8 0 8.3.2 11.2h89.6c.2-3 .2-6.5.2-11.2v-8.4H5v8.4z" fill="#fff"/><path d="M5 74.8v.7h.3c0-.2 0-.5-.1-.7H5zm90 .7v-.7h-.2c0 .2 0 .5-.1.7h.3zm-90-21h90v.7H5z" fill-opacity=".29"/><path d="M5.3 75.5h89.5c0-.2 0-.5.1-.7H5.2c0 .2.1.5.1.7z" fill-opacity=".29"/><path d="M72.5 39.5c.4 0 .7-.3.7-.7 0-.4-.3-.8-.7-.8s-.7.3-.7.7c0 .4.3.8.7.8zm3 0c.4 0 .7-.3.7-.7 0-.4-.3-.8-.7-.8s-.7.3-.7.7c0 .4.3.8.7.8zm-9 0c.4 0 .7-.3.7-.7 0-.4-.3-.8-.7-.8s-.7.3-.7.7c0 .4.3.8.7.8zm12 0c.4 0 .7-.3.7-.7 0-.4-.3-.8-.7-.8s-.7.3-.7.7c0 .4.3.8.7.8zm-9 0c.4 0 .7-.3.7-.7 0-.4-.3-.8-.7-.8s-.7.3-.7.7c0 .4.3.8.7.8zm-6 0c.4 0 .7-.3.7-.7 0-.4-.3-.8-.7-.8s-.7.3-.7.7c0 .4.3.8.7.8zm18 0c.4 0 .7-.3.7-.7 0-.4-.3-.8-.7-.8s-.7.3-.7.7c0 .4.3.8.7.8zm9 0c.4 0 .7-.3.7-.7 0-.4-.3-.8-.7-.8s-.7.3-.7.7c0 .4.3.8.7.8zm-30 0c.4 0 .7-.3.7-.7 0-.4-.3-.8-.7-.8s-.7.3-.7.7c0 .4.3.8.7.8zm33 0c.4 0 .7-.3.7-.7 0-.4-.3-.8-.7-.8s-.7.3-.7.7c0 .4.3.8.7.8zm-9 0c.4 0 .7-.3.7-.7 0-.4-.3-.8-.7-.8s-.7.3-.7.7c0 .4.3.8.7.8zm3 0c.4 0 .7-.3.7-.7 0-.4-.3-.8-.7-.8s-.7.3-.7.7c0 .4.3.8.7.8zm-33 0c.4 0 .7-.3.7-.7 0-.4-.3-.8-.7-.8s-.7.3-.7.7c0 .4.3.8.7.8zm-36 0c.4 0 .7-.3.7-.7 0-.4-.3-.8-.7-.8s-.7.3-.7.7c0 .4.3.8.7.8zm3 0c.4 0 .7-.3.7-.7 0-.4-.3-.8-.7-.8s-.7.3-.7.7c0 .4.3.8.7.8zm36 0c.4 0 .7-.3.7-.7 0-.4-.3-.8-.7-.8s-.7.3-.7.7c0 .4.3.8.7.8zm-42 0c.4 0 .7-.3.7-.7 0-.4-.3-.8-.7-.8s-.7.3-.7.7c0 .4.3.8.7.8zm-9 0c.4 0 .7-.3.7-.7 0-.4-.3-.8-.7-.8s-.7.3-.7.7c0 .4.3.8.7.8zm21 0c.4 0 .7-.3.7-.7 0-.4-.3-.8-.7-.8s-.7.3-.7.7c0 .4.3.8.7.8zm-15 0c.4 0 .7-.3.7-.7 0-.4-.3-.8-.7-.8s-.7.3-.7.7c0 .4.3.8.7.8zm-3 0c.4 0 .7-.3.7-.7 0-.4-.3-.8-.7-.8s-.7.3-.7.7c0 .4.3.8.7.8zm15 0c.4 0 .7-.3.7-.7 0-.4-.3-.8-.7-.8s-.7.3-.7.7c0 .4.3.8.7.8zm21 0c.4 0 .7-.3.7-.7 0-.4-.3-.8-.7-.8s-.7.3-.7.7c0 .4.3.8.7.8zm3 0c.4 0 .7-.3.7-.7 0-.4-.3-.8-.7-.8s-.7.3-.7.7c0 .4.3.8.7.8zm-18 0c.4 0 .7-.3.7-.7 0-.4-.3-.8-.7-.8s-.7.3-.7.7c0 .4.3.8.7.8zm21 0c.4 0 .7-.3.7-.7 0-.4-.3-.8-.7-.8s-.7.3-.7.7c0 .4.3.8.7.8zm-9 0c.4 0 .7-.3.7-.7 0-.4-.3-.8-.7-.8s-.7.3-.7.7c0 .4.3.8.7.8zm-9 0c.4 0 .7-.3.7-.7 0-.4-.3-.8-.7-.8s-.7.3-.7.7c0 .4.3.8.7.8zm3 0c.4 0 .7-.3.7-.7 0-.4-.3-.8-.7-.8s-.7.3-.7.7c0 .4.3.8.7.8zm3 0c.4 0 .7-.3.7-.7 0-.4-.3-.8-.7-.8s-.7.3-.7.7c0 .4.3.8.7.8z" fill="#aaa"/><linearGradient id="a" x1="-906.936" x2="-906.936" y1="-561.35" y2="-559.85" gradientTransform="matrix(62 0 0 18.5 56280 10390)" gradientUnits="userSpaceOnUse"><stop offset="0" stop-color="#FFDB4C"/><stop offset="1" stop-color="#FFCD02"/></linearGradient><path d="M82 6.5C77.1 5 72.6 5 63.6 5H36.4C27.3 5 22.8 5 18 6.6 12.6 8.5 8.5 12.7 6.5 18 5.2 22.2 5 26.1 5 32.7h90c0-6.7-.2-10.6-1.6-14.8-1.9-5.3-6.1-9.5-11.4-11.4z" fill="url(#a)"/></svg>