<svg xmlns="http://www.w3.org/2000/svg" viewBox="0 0 512 512"><path d="M39.07 170.182c-.317-11.032.276-21.416.16-32.087l-.22-21.588c-.001-5.574-.137-11.208.854-16.718.889-4.94 3.451-11.203 6.532-15.173 5.492-7.078 14.207-12.79 23.218-13.83 2.479-.285 4.971-.531 7.467-.586 16.987-.376 34.063-.028 51.059-.025 6.254 0 44.517-.516 46.88.395 2.955 1.14 12.658 8.899 15.864 11.247 10.77 7.888 21.85 15.529 32.307 23.815 16.08.27 33.03 0 49.19 0l108.21-.004c17.843-.001 35.73-.003 53.546-.01 10.08-.003 21.21 3.732 28.21 11.182 10.49 11.166 10.72 21.133 10.758 35.272.016 6.195-.02 12.39-.105 18.585.584 16.08.219 33.612.217 49.837l-.005 86.967-.002 67.743.01 21.468c0 4.587.035 9.095-.217 13.686-.133 2.428-1.201 5.359-1.413 7.347-6.06 16.126-18.235 24.104-35.255 24.378L85.05 442.1c-8.21.02-11.93.215-20.135-1.18-6.825-2.192-11.433-4.721-16.48-9.998-6.881-7.194-9.477-15.405-9.553-25.218-.06-7.605-.044-15.183-.044-22.775V229.482c-.006-19.38-.35-40.057.242-59.304Z" fill="#53C2F8"/><path d="M39.07 170.182c-.317-11.032.276-21.416.16-32.087l-.22-21.588c-.001-5.574-.137-11.208.854-16.718.889-4.94 3.451-11.203 6.532-15.173 5.492-7.078 14.207-12.79 23.218-13.83 2.479-.285 4.971-.531 7.467-.586 16.987-.376 34.063-.028 51.059-.025 6.254 0 44.517-.516 46.88.395 2.955 1.14 12.658 8.899 15.864 11.247 10.77 7.888 21.85 15.529 32.307 23.815 16.08.27 33.03 0 49.19 0l108.21-.004c17.843-.001 35.73-.003 53.546-.01 10.08-.003 21.21 3.732 28.21 11.182 10.49 11.166 10.72 21.133 10.758 35.272.016 6.195-.02 12.39-.105 18.585-8.37-34.176-34.052-30.234-61.905-30.22l-50.328.002-155.408-.015H89.844c-8.064 0-17.414-.497-25.045 1.445-8.58 2.185-16.615 8.359-20.966 16.058-1.896 3.356-4.3 8.186-4.588 12.029l-.175.218Z" fill="#3195CF"/><path d="M471.577 417.705c-.016.984-.37 2.9-.098 3.364.57.972.76 1.22.96 2.34l-.121.43c-.406.188-.81.378-1.21.574.195.454.286.652.538 1.076-1.488 1.704-2.103-.246-2.7 3.374.043-.031-1.193.896-.956.61-5.78 6.934-14.32 13.215-23.522 14.313-1.211.145-2.435.4-3.713.027l-.054-.085c.862-.695 1.182-.534 2.403-.691-1.714-1.047-7.833.599-8.838-.46.721-.21 1.305-.407 2.056-.506 17.02-.274 29.196-8.252 35.255-24.378ZM64.906 440.921c8.205 1.395 11.925 1.201 20.135 1.18-1.32.523-12.268.56-14.697.72l.776.153c-1.534.263-3.436.224-4.965-.03-1.01-.169-1.646 1.06-3.028.787-.697-.467-.564-.178-.727-.779.08-.015 3.88-1.005 3.85-.989l.218.1c-1.307-.452-.959-.119-1.562-1.142Z"/></svg>