<svg xmlns="http://www.w3.org/2000/svg" viewBox="0 0 120 120"><defs><linearGradient id="a" x1="-868.775" x2="-868.775" y1="-881.357" y2="-879.35" gradientTransform="matrix(51.9299 0 0 -51.9299 45175.498 -45656.667)" gradientUnits="userSpaceOnUse"><stop offset="0" stop-color="#1e6ff1"/><stop offset="1" stop-color="#28cefb"/></linearGradient></defs><path d="M0 94V26A25.948 25.948 0 0 1 26 0h68a25.948 25.948 0 0 1 26 26v68a25.948 25.948 0 0 1-26 26H26A25.948 25.948 0 0 1 0 94Z" fill="#fff" fill-rule="evenodd"/><circle fill="url(#a)" cx="60.1" cy="60" r="52.1"/><path d="M60.102 107.48v-8m0-79v-8m-8.27 94.306 1.39-7.878m13.717-77.8 1.384-7.879M43.85 104.622l2.736-7.518m27.02-74.236 2.736-7.516m-40.032 85.81 4-6.93m39.5-68.415 4-6.927m-54.2 77.5 5.142-6.127m50.78-60.517 5.142-6.13m-67.012 66.9 6.13-5.142m60.517-50.78 6.13-5.143m-77.494 54.27 6.928-4m68.416-39.5 6.928-4m-85.831 40.03 7.518-2.736m74.235-27.02 7.518-2.736M13.29 68.299l7.88-1.39m77.8-13.718 7.878-1.385m-94.23 8.2h8m79 0h8m-94.304-8.218 7.878 1.39m77.8 13.718 7.878 1.39m-91.4-24.51 7.518 2.736m74.235 27.02 7.518 2.737m-85.813-39.96 6.928 3.999m68.416 39.499 6.929 4m-77.523-54.37 6.128 5.142m60.518 50.784 6.128 5.144M29.51 23.626l5.142 6.128m50.78 60.518 5.143 6.128M36.32 18.86l4 6.928m39.5 68.416 4 6.929M43.854 15.359l2.736 7.518m27.02 74.235 2.736 7.518M51.802 13.292l1.39 7.878m13.717 77.8 1.39 7.878m-12.362.46.348-3.985m7.583-86.669.349-3.985M47.82 105.93l1.036-3.864M71.373 18.03l1.035-3.863m-32.41 88.852 1.69-3.626m36.769-78.848 1.69-3.626M32.84 98.928l2.294-3.277m49.901-71.267 2.295-3.276M26.54 93.591l2.83-2.828m61.517-61.518 2.829-2.83M21.19 87.295 24.469 85m71.266-49.901 3.277-2.294M17.061 80.09l3.626-1.691m78.85-36.768 3.625-1.69M14.204 72.327l3.864-1.036m84.035-22.517 3.864-1.035m-93.23 16.41 3.985-.351m86.669-7.583 3.99-.349m-94.605 0 3.985.35m86.669 7.581 3.985.347M14.146 47.753l3.863 1.036m84.036 22.517 3.864 1.035M17.028 39.92l3.625 1.691M99.502 78.38l3.625 1.69M21.175 32.8l3.277 2.294m71.266 49.902 3.277 2.294M26.536 26.443l2.828 2.829M90.883 90.79l2.828 2.829M32.79 21.084l2.294 3.276m49.9 71.267 2.295 3.276M40.023 16.989l1.69 3.62m36.768 78.851 1.69 3.624M47.779 14.173l1.035 3.863m22.517 84.036 1.036 3.863M55.896 12.71l.348 3.986m7.582 86.67.349 3.983" fill="none" stroke="#fff" stroke-linecap="square" stroke-width="1.003"/><path d="m97.07 29.06-41.1 26.3-32.9 35.7 41.3-25.7 32.7-36.3z" fill="#fff" fill-rule="evenodd"/><path d="m97.07 29.06-41.1 26.3 8.4 10 32.7-36.3z" fill="#ff3b30" fill-rule="evenodd"/></svg>