<svg xmlns="http://www.w3.org/2000/svg" viewBox="0 0 120 120"><defs><linearGradient id="a" x1="60" x2="60" y1="16" y2="-104" gradientTransform="translate(0 104)" gradientUnits="userSpaceOnUse"><stop offset="0" stop-color="#8e8e93"/><stop offset="1" stop-color="#e5e5ea"/></linearGradient><linearGradient id="b" x1="-419.218" x2="-419.218" y1="-738.899" y2="-740.899" gradientTransform="matrix(32.005 0 0 -32 13477.133 -23616.804)" gradientUnits="userSpaceOnUse"><stop offset="0" stop-color="#b4b4b9"/><stop offset="1" stop-color="#b4b4b9"/></linearGradient><linearGradient id="c" x1="-427.251" x2="-427.251" y1="-728.117" y2="-730.117" gradientTransform="matrix(48 0 0 -47.955 20567.514 -34904.894)" gradientUnits="userSpaceOnUse"><stop offset="0" stop-color="#dcdce1"/><stop offset="1" stop-color="#98989d"/></linearGradient></defs><path d="M26 0h68a25.948 25.948 0 0 1 26 26v68a25.948 25.948 0 0 1-26 26H26A25.948 25.948 0 0 1 0 94V26A25.948 25.948 0 0 1 26 0Z" fill="url(#a)"/><circle fill="#2e2e2f" cx="60" cy="60" r="52"/><path d="M59 32h1.7l.8-4h.7l.3 4.1a7.72 7.72 0 0 1 1.5.2l1.2-3.9.7.1-.2 4.1a8.33 8.33 0 0 1 1.5.4l1.6-3.7.6.2-.7 4c.5.2 1 .3 1.5.5l2-3.5.6.3-1.1 3.9c.5.2.9.5 1.4.7l2.4-3.3.6.3-1.6 3.8c.4.3.9.6 1.3.9l2.8-3 .5.4-2 3.6c.4.3.8.7 1.2 1l3.1-2.6.5.5-2.4 3.3 1.1 1.1 3.4-2.2.4.5-2.7 3 .9 1.2 3.6-1.8.4.6-3.1 2.7c.3.4.5.9.8 1.3l3.8-1.4.3.6-3.4 2.3.6 1.5 3.9-.9.2.6-3.5 1.8c.2.5.3 1 .5 1.5l4-.5.2.7-3.8 1.4c.1.5.2 1 .3 1.6h4.1l.1.7-3.9 1c0 .5.1 1.1.1 1.6l4 .5v.7l-4 .5a7.569 7.569 0 0 1-.1 1.5l3.9.9-.1.7-4 .1-.3 1.5L91 67l-.1.6-4-.4c-.1.5-.3 1-.4 1.5l3.6 1.8-.2.6-4-.9-.6 1.5 3.4 2.3-.3.6-3.9-1.3c-.2.4-.5.9-.7 1.3l3.1 2.6-.4.6-3.6-1.8a11.32 11.32 0 0 1-1 1.3l2.8 2.9-.4.5-3.4-2.2a5.73 5.73 0 0 1-1.1 1.1l2.4 3.3-.5.5-3.2-2.6a10.59 10.59 0 0 1-1.2 1l2 3.5-.5.4-2.8-2.9c-.4.3-.9.6-1.3.9l1.6 3.8-.6.3-2.5-3.2a9.142 9.142 0 0 1-1.4.7l1.2 3.9-.6.3-2.1-3.5a8.8 8.8 0 0 1-1.5.5l.7 4-.6.2-1.7-3.7c-.5.1-1 .3-1.5.4l.2 4.1-.7.1-1.2-3.9c-.5.1-1 .1-1.6.2l-.2 4.1h-.7l-.8-4H59l-.7 4h-.4l-.3-4.1a9.973 9.973 0 0 1-1.6-.2l-1.2 3.9-.7-.1.2-4.1a8.33 8.33 0 0 1-1.5-.4l-1.6 3.7-.6-.2.7-4c-.5-.2-1-.3-1.5-.5l-2.1 3.5-.6-.3 1.1-3.9c-.5-.2-.9-.5-1.4-.7l-2.4 3.3-.6-.3 1.6-3.8c-.4-.3-.9-.6-1.3-.9l-2.8 3-.5-.4 2-3.6c-.4-.3-.8-.7-1.2-1l-3.1 2.6-.5-.5 2.4-3.3a11.407 11.407 0 0 0-1.1-1.1l-3.4 2.3-.4-.5 2.8-3a14.699 14.699 0 0 1-1-1.3l-3.6 1.8-.4-.6 3.1-2.6c-.3-.4-.5-.9-.8-1.4l-3.8 1.4-.3-.6 3.4-2.3-.6-1.5-3.9.9-.2-.6 3.6-1.9c-.2-.5-.3-1-.5-1.5l-4 .5-.2-.7 3.8-1.4c-.1-.5-.2-1-.3-1.6h-4l-.1-.7 3.9-1c0-.5-.1-1-.1-1.6l-4-.5v-.7l4-.5a8.602 8.602 0 0 1 .1-1.6l-3.9-.9.1-.7 4-.1.3-1.5-3.8-1.4.2-.6 4 .4c.1-.5.3-1 .4-1.5l-3.6-1.8.2-.6 3.9.9.6-1.5-3.4-2.2.3-.6 3.8 1.3c.3-.5.5-.9.8-1.4l-3.1-2.6.4-.6 3.6 1.8c.3-.4.6-.9.9-1.3l-2.8-3 .4-.5 3.4 2.2a11.984 11.984 0 0 1 1.1-1.2l-2.4-3.3.5-.5 3.1 2.6a10.593 10.593 0 0 1 1.2-1l-2-3.5.5-.4 2.8 2.9c.4-.3.9-.6 1.3-.9l-1.6-3.7.6-.3 2.5 3.2a9.143 9.143 0 0 1 1.4-.7L47 30.5l.6-.3 2.1 3.5a8.8 8.8 0 0 1 1.5-.5l-.7-4 .6-.2 1.7 3.7c.5-.1 1-.3 1.5-.4l-.2-4.1.7-.1L56 32c.5-.1 1-.1 1.6-.2l.2-4.1h.7Zm1 5.4a22.5 22.5 0 1 0 22.5 22.5A22.534 22.534 0 0 0 60 37.4Z" fill="url(#b)" fill-rule="evenodd"/><path d="M58.5 18h2.4l1.1-6h1l.4 6.1c.8.1 1.6.2 2.3.3l1.8-5.9 1 .2-.3 6.2c.8.2 1.5.3 2.2.5l2.5-5.7 1 .3-1 6.2a18.028 18.028 0 0 1 2.1.8l3.2-5.5.9.4-1.7 6.1c.7.3 1.4.7 2 1l3.8-5.1.9.5-2.5 5.9a21.412 21.412 0 0 1 1.9 1.3l4.4-4.7.8.6-3.2 5.6c.6.5 1.2 1 1.7 1.5l4.9-4.1.7.7-3.8 5.2c.5.5 1 1.1 1.5 1.6l5.4-3.5.6.8-4.4 4.8a20.282 20.282 0 0 1 1.3 1.8l5.8-2.9.6.8-4.9 4.3A18.577 18.577 0 0 1 96 40l6.2-2.2.5.9-5.4 3.7c.3.7.6 1.3.9 2l6.4-1.5.3.9-5.8 3 .6 2.1 6.5-.7.2 1-6.1 2.3c.1.7.3 1.4.4 2.1h6.6l.1 1-6.4 1.6a16.948 16.948 0 0 1 .1 2.3l6.5.8v1l-6.5.8c0 .7-.1 1.4-.1 2.1l6.4 1.5-.1 1-6.6.1a16.96 16.96 0 0 1-.4 2.2l6.1 2.3-.2 1-6.5-.7-.6 2.1 5.8 2.9-.3.9-6.3-1.4-.9 2.1 5.4 3.6-.4.9-6.1-2.1a11.782 11.782 0 0 1-1.1 1.9l4.9 4.2-.5.8-5.8-2.8c-.4.6-.9 1.2-1.3 1.8l4.4 4.7-.6.8-5.4-3.5c-.5.6-1 1.1-1.5 1.7l3.8 5.1-.7.7-4.9-4c-.6.5-1.1 1-1.7 1.5L89 98l-.8.6-4.4-4.5c-.6.4-1.2.9-1.9 1.3l2.5 5.7-.9.5-3.8-4.9c-.7.4-1.4.7-2.1 1.1l1.8 6-.9.4-3.2-5.3a18.025 18.025 0 0 1-2.1.8l1.1 6.1-1 .3-2.5-5.6c-.7.2-1.5.4-2.3.6l.3 6-1 .2-1.8-5.7-2.4.3-.4 6-1 .1-1.1-5.9h-2.6l-1.1 5.9-1-.1-.4-6c-.8-.1-1.6-.1-2.4-.2l-1.7 5.7-1-.2.3-5.9c-.8-.2-1.6-.3-2.4-.5l-2.4 5.4-1-.3.9-5.8a20.942 20.942 0 0 1-2.3-.8l-2.9 5-.9-.4 1.6-5.6a15.052 15.052 0 0 1-2.2-1.1l-3.5 4.6-.9-.5 2.2-5.3c-.7-.4-1.4-.9-2.1-1.3l-3.9 4.2-.8-.6 2.8-5c-.7-.5-1.3-1-2-1.6L27 95.3l-.7-.7 3.3-4.6-1.8-1.8-4.7 3.1-.7-.8 3.8-4.2c-.5-.7-1-1.3-1.5-2l-5 2.5-.6-.8 4.2-3.7a25.293 25.293 0 0 1-1.3-2.2L16.7 82l-.4-.9 4.6-3.1a24.432 24.432 0 0 1-1-2.4l-5.4 1.2-.3-.9 4.9-2.5c-.3-.8-.5-1.6-.8-2.5l-5.5.6-.2-1 5.2-1.9c-.2-.8-.3-1.7-.5-2.5h-5.6l-.1-1 5.4-1.4c-.1-.8-.1-1.7-.2-2.5l-5.5-.7v-1l5.5-.7c0-.9.1-1.7.1-2.6l-5.4-1.3.1-1 5.6-.1c.1-.8.3-1.7.4-2.5l-5.2-1.9.2-1 5.5.6c.2-.8.5-1.6.7-2.5l-5-2.5.4-.9 5.4 1.2c.3-.8.7-1.6 1-2.3l-4.7-3.1.4-.9 5.3 1.9a25.29 25.29 0 0 1 1.3-2.2l-4.3-3.6.5-.8 5.1 2.5c.5-.7 1-1.4 1.5-2l-3.9-4.2.6-.8 4.8 3.1c.6-.6 1.1-1.2 1.7-1.8l-3.4-4.6.7-.7 4.5 3.6c.6-.5 1.3-1.1 1.9-1.6l-2.9-5 .8-.6 4 4.2c.7-.5 1.4-.9 2.1-1.4l-2.3-5.4.9-.5 3.6 4.6c.7-.4 1.5-.7 2.2-1.1L39.3 16l.9-.4 3 5.1a20.942 20.942 0 0 1 2.3-.8l-1-5.9 1-.3 2.4 5.4a18.92 18.92 0 0 1 2.3-.5l-.3-6 1-.2 1.8 5.7 2.4-.3.4-6 1-.1ZM34.1 86.8c2.7 2.6 7.1 1.5 9-1.8l10.8-19a11.973 11.973 0 0 0-.2-12L42.6 35.2c-1.9-3.2-6.3-4.3-9-1.6a36.847 36.847 0 0 0 .5 53.2Zm23-34.9a12.422 12.422 0 0 0 10.6 6h21.8c3.8 0 6.9-3.2 6-6.9a37.06 37.06 0 0 0-46.6-26.5c-3.6 1.1-4.9 5.4-3 8.7ZM67.8 62a12.256 12.256 0 0 0-10.5 6L46.5 87a5.772 5.772 0 0 0 3.2 8.6 37.07 37.07 0 0 0 45.9-26.8c.9-3.6-2.2-6.9-6-6.9Zm-8.3-4a2 2 0 1 0 2 2 2.006 2.006 0 0 0-2-2Z" fill="url(#c)" fill-rule="evenodd"/></svg>