<svg xmlns="http://www.w3.org/2000/svg" viewBox="0 0 256 256"><path d="M26.506 62.11c.066-1.788.961-4.53 1.532-6.234 2.53-7.554 6.145-13.187 11.981-18.6A43.468 43.468 0 0 1 60.76 26.71c7.6-1.618 18.814-1.674 26.732-1.736l28.162-.064 37.893.016c9.287.001 18.37-.008 27.68.26 14.928.432 26.942 3.389 37.537 14.687 5.177 5.52 8.717 12.194 10.4 19.604.13.57.593 2.752.58 3.243 1.537 5.88 1.348 21.076 1.364 27.323.067 12.604.06 25.208-.025 37.812l.107 35.624c.026 13.844.874 30.55-5.527 43.164-.867 1.71-1.925 3.363-2.978 4.966-.258.367-1.15 1.588-1.287 1.915l-1.628 1.97c-8.754 8.811-14.96 12.36-27.49 14.784-3.954.438-8.527 1.172-12.43 1.076-8.29-.235-17.619-.032-25.974-.034h-49.669c-9.153.003-18.307.135-27.455.091-4.992-.024-9.93-.806-14.87-1.48-2.39-.599-4.563-1.142-6.916-1.907-3.313-1.145-5.862-2.614-8.865-4.352l-1.427-.95-4.29-3.36c-8.287-6.557-13.62-18.852-14.585-29.148-.736-7.86-.766-15.805-.819-23.693a3098.102 3098.102 0 0 1-.042-36.072l-.015-36.938c.011-6.57.026-25.507 1.584-31.4Z"/><defs><linearGradient id="a" x1="127.448" x2="127.972" y1="230.932" y2="83.109" gradientUnits="userSpaceOnUse"><stop offset="0" stop-color="#767574"/><stop offset="1" stop-color="#BCC8CC"/></linearGradient></defs><path d="M40.383 219.363c-8.287-6.557-13.62-18.852-14.585-29.148-.736-7.86-.766-15.805-.819-23.693a3098.102 3098.102 0 0 1-.042-36.072l-.015-36.938c.011-6.57.026-25.507 1.584-31.401.886 2.999-1.692 18.96-.327 21.277.464-.465.262-.387.84-.522l3.386.933c1.072-1.535-.73-13.85 1.144-15.857a2039.608 2039.608 0 0 0-.588 76.558c.035 13.8-.028 27.643.548 41.447.475 11.396 4.4 21.559 13.208 29.21a39.03 39.03 0 0 0 18.175 8.693c7.07 1.32 18.477 1.176 25.825 1.178l30.212-.008 40.599.01c19.417.004 41.535 2.657 55.507-13.418 10.82-12.446 10.131-28.02 10.023-43.432l-.035-20.99-.008-41.597c.025-14.508.251-26.721-.826-41.175 1.858 2.209 1.14 16.168 1.414 19.454.059.705 0 .91.3 1.645.932-.947 3.214-1.186 4.369-.464 1.138-1.41-.823-19.09-.529-22.332 1.537 5.88 1.348 21.076 1.364 27.323.067 12.604.059 25.208-.025 37.812l.107 35.624c.026 13.844.874 30.55-5.527 43.164-.867 1.71-1.925 3.363-2.978 4.966-.258.367-1.15 1.588-1.287 1.915l-1.628 1.969c-8.754 8.812-14.961 12.36-27.49 14.785-3.954.438-8.527 1.172-12.43 1.076-8.29-.235-17.619-.032-25.974-.034l-49.669-.001c-9.153.004-18.307.136-27.455.092-4.992-.024-9.93-.806-14.87-1.48-2.39-.599-4.563-1.142-6.916-1.907-3.313-1.145-5.862-2.614-8.865-4.352l-1.427-.95-4.29-3.36Z" fill="url(#a)"/><path d="M26.506 62.11c.066-1.788.961-4.53 1.532-6.234 2.53-7.554 6.145-13.187 11.981-18.6A43.468 43.468 0 0 1 60.76 26.71c7.6-1.618 18.814-1.674 26.732-1.736l28.162-.064 37.893.016c9.287.001 18.37-.008 27.68.26 14.928.432 26.942 3.389 37.537 14.687 5.177 5.52 8.717 12.194 10.4 19.604.13.57.593 2.752.58 3.243-.294 3.243 1.667 20.922.53 22.332-1.156-.722-3.438-.483-4.37.464-.299-.735-.24-.94-.3-1.645-.275-3.286.444-17.245-1.414-19.454l-.036-.114c-.499-1.683-.713-4.076-1.243-5.662-3.05-9.11-8.8-17.142-17.284-21.835a40.847 40.847 0 0 0-15.392-4.979c-7.42-.89-15.83-.612-23.32-.665l-34.36-.207a2061.44 2061.44 0 0 0-42.959.215c-9.673.123-20.759-.614-30.187 1.925-13.7 3.69-24.355 15.278-27.039 29.205-.22 1.153-.484 4.785-.824 5.642-1.875 2.008-.073 14.322-1.146 15.857l-3.384-.933c-.58.135-.377.057-.84.522-1.366-2.317 1.212-18.278.326-21.277Z" fill="#D9E8ED"/><path d="M91.561 45.626c1.38.388 14.113-.105 16.525-.115 20.696-.201 41.394-.08 62.087.376 6.665.18 14.92-.27 21.3 1.05 11.782 2.98 17.586 11.892 18.36 23.42.704 10.47.55 20.012.552 30.294l-.004 41.515c.038 9.629.02 19.258-.053 28.887-.178 15.224.715 31.24-16.623 37.38-4.602 1.63-8.393 1.493-13.185 1.67l-13.457.398-76.474-.001c-1.605-.001-12.794-.463-13.347-.125-.23.14-.454.218-.704.313-1.273-.883-8.34-.9-11.004-1.418a26.404 26.404 0 0 1-8.277-3.177c-9.25-5.458-11.548-16.411-11.57-26.407-.016-6.45-.075-12.88-.077-19.338l-.004-36.171.014-32.288c.006-7.86.018-15.93.651-23.774.28-3.482 1.59-7.461 3.432-10.424C58.21 44.005 71.876 46.38 85.58 45.878c2.455-.09 3.592.356 5.981-.253Z" fill="#272727"/><path d="M62.97 61.278c2.464 1.112 6.267 3.386 8.767 4.77l16.301 9.01c.037 1.84.02 3.741.026 5.587l-19.99 11.091-5.06 2.76c-.098-2.338-.053-4.774-.044-7.12 4.756-2.831 13.435-6.863 18.638-9.468-4.798-2.87-13.399-6.836-18.603-9.406-.087-2.291-.03-4.908-.034-7.224Zm33.493 37.707 28.79.012-.01 5.764c-9.384-.177-19.326-.025-28.77-.03l-.01-5.746Z" fill="#D9E8ED"/><path d="m98.75 232.376 54.85.001c3.402-.002 20.915-.244 23.262.349l.117.27c-.864.937-1.067 1.105-2.144 1.777l-.292-.539.212-.435.852-.176.144-.312c-.432-.148-.76-.408-1.136-.668-.838.196.065.86-.708 1.963-.134.03-2.958-.054-3.135-.121-.51-.841-.42-.471-.4-1.4l.262.008.006-.2-.23.027.186.138-.015-.225-.32.496.163.273c-.36.93-.425 1.012-1.323 1.19l-.423-.29c-.165-.552-.073-.684.094-1.245l.056-.18-.17-.268-1.038-.04-.232.42c-.397-.29-.448-.345-.907-.506-.102.599-.373 1.054-.24 1.567-.784.462-.625.533-1.399.475-.35-.644-.16-1.112-.017-1.86-4.156-.42-1.8 1.145-3.369 2.082l-.49-.21c-.424-.613-.27-1.168-.183-1.906-3.563-.66-1.923 2.037-3.939 1.922-.557-.932.187-.73.008-1.968l-1.09-.028a4.462 4.462 0 0 0-.472.57l-.134.192-.43-.12.22-.704-.46.004.47.034-.769.104c.032.96-.005 1.496-.762 2.078l-.435-.07c-.43-.56-.368-.88-.364-1.572l.46-.385-.205-.198c-1.532.039-.867.707-2.006.792.132-.652.21-.503-.05-.936l-.646.227c.002.59-.03 1.035-.082 1.623-.588.535-.28.4-1.255.39l-.27-.307c.05-.467.23-.972.367-1.426-.997-.954-1.17.386-2.17.385l.293-.552-.159-.187-.732.095.198.58c-.213.488-.258.685-.385 1.206-.265.03-.564.084-.83.126-.702-.502-.553-.246-.702-.935.196-.42.316-.71.674-1.014l-.933.037c-.543.434-.628.57-1.284.665.14-.643.218-.498-.034-.927-.68.232-.45.06-.863.65.034.633.053.77-.106 1.383-.747.166-.522.227-1.135-.02-.159-.708-.07-.905.167-1.568l.072-.2-.83.017c-.55.435-.64.574-1.307.673.132-.65.21-.5-.05-.928l-.648.232c.026.784.038.96-.14 1.75-.598.4-.32.33-1.04.263-.583-.75-.518-1.403.102-2.035l-.92.037c-.55.44-.639.58-1.305.68.134-.65.212-.5-.049-.928l-.647.233c.027.784.04.96-.14 1.75-.597.4-.32.33-1.04.263-.582-.749-.517-1.402.102-2.034l-.92.044c-.548.448-.636.591-1.303.702.13-.634.2-.472-.053-.903l-.648.243c.072.97.036 1.505-.742 2.078l-.442-.072c-.58-.766-.515-1.43.104-2.08l-.92.03c-.55.437-.637.574-1.302.674.131-.65.21-.5-.052-.928l-.646.233c.027.786.04.961-.14 1.754-.598.403-.32.331-1.04.267-.43-.55-.37-.863-.369-1.546l.46-.374-.203-.193c-1.534.052-.874.72-2.01.803.133-.652.212-.503-.048-.936l-.647.228c.001.59-.03 1.033-.082 1.62-.59.538-.282.403-1.263.391l-.265-.31c.202-.621.274-.838.347-1.484l-.287-.21c-1.59.01-.329.295-1.743.723.13-.633.2-.472-.054-.902l-.65.244c.002 1.054.146 1.69-.924 2.096-1.31-.953-.18-1.335-.373-2.142-2.056-.028-.51.246-2.003.687.13-.652.21-.504-.053-.935l-.648.23c.025.781.037.955-.145 1.741-.599.4-.322.332-1.043.248-.423-.545-.357-.86-.348-1.537l.356-.325.001-.176c-1.99.17-.935.668-2.3.66l.408-.524-.347-.155c-1.098.42.04.62-1.029 1.998-.823.085-.59.183-1.183-.176.367-.71.492-.658.376-1.342-.532-.42-1.479-.388-2.19-.439-1.254.716.068 1.667-1.574 2.08-.69-.527.252-1.055-.406-2.093-.892-.097-.62-.074-1.529.537-.192-.357-.24-.357-.559-.592l-.496.146c0 .993.057 1.494-.729 2.088-.535-.156-.385-.132-.82-.615.023-.586.07-.707.266-1.268l.054-.152c-.619-.338-.426-.23-1.29-.094l-.62.925-.288.05.22-.989c-.55-.137-.39-.183-.826.001l.191.974c-.467.547-.595.771-1.243 1.101-.57-.82.245-.788-.337-2.098-1.185-.442-.805.427-1.92.727.147-.648.223-.499-.032-.925l-.645.232.137.356c-.143.78-.156.894-.686 1.474l-.614-.015c-.495-.636-.243-.91-.39-1.939-.506-.003-.663.17-1.089.466l-.158.11-.405-.16-.136-.456c.562-.389 6.82-.245 7.936-.243Zm93.529-2.097c12.529-2.424 18.736-5.973 27.49-14.785.54.58.869.741 1.036 1.427-1.638 1.704-9.65 9.154-11.655 9.202-.784-.342-1.39-.08-1.973.551l-.087.53.497.283c-4.339 2.087-8.049 3.977-12.854 4.855-1.184.217-1.26.428-2.097-.643-1.139-.058-1.52.49-2.324 1.306l-.825-.184-.163-.295c.646-.876 2.005-1.634 2.955-2.247Zm-137.314-2.254c2.353.765 4.525 1.308 6.916 1.908-.057.461-.139.614-.307 1.035-1.34.991-7.963-.042-7.914-2.218.64-.147.82-.288 1.305-.725Z"/><path d="M192.279 230.279c-.95.613-2.309 1.371-2.955 2.247l.163.295.825.184-.14.235c-1.26.413-3.104.752-4.116-.279l.07-.865c-.642-.537-3.94.11-6.276-.741 3.902.096 8.475-.638 12.43-1.076ZM40.384 219.363l4.29 3.36c-.417.408-.51.579-1.053.69-1.025-.653-1.23-.693-2.444-.866-.62-.815-1.302-1.05-1.62-2.013.157-.63.326-.705.826-1.17Z"/><path d="M41.177 222.547c1.215.173 1.419.213 2.444.867.544-.112.636-.283 1.052-.692l1.427.95c.084.77.437 1.13.277 1.796-.627.525-.713.574-1.508.76-.752-.933-.011-.92-.556-2.09-2.237.01-1.737-.023-3.136-1.591Zm180.22-9.022c.138-.327 1.029-1.548 1.287-1.915.384.22.745.433 1.142.63.213.62.363.846.171 1.447-.606.493-1.021.439-1.79.473l-.81-.635Zm-13.81 13.962-.497-.282.087-.531c.583-.631 1.19-.893 1.973-.551l-1.563 1.364Z"/></svg>