<?xml version="1.0" encoding="utf-8"?>
<!DOCTYPE svg PUBLIC "-//W3C//DTD SVG 1.0//EN" "http://www.w3.org/TR/2001/REC-SVG-20010904/DTD/svg10.dtd">
<svg version="1.0" xmlns="http://www.w3.org/2000/svg" width="100px" height="100px" viewBox="0 0 100 100" preserveAspectRatio="xMidYMid meet">
 <g fill="#010101">
  <path d="M0 50 l0 -50 50 0 50 0 0 50 0 50 -50 0 -50 0 0 -50z m53.98 44.13 c6.26 -0.45 11.85 -1.81 15.55 -3.77 2.59 -1.38 4.69 -3.51 5.78 -5.86 0.77 -1.69 1.08 -3.20 1.88 -9.11 0.71 -5.25 1.88 -14.23 2.35 -17.87 0.57 -4.46 1.50 -11.59 2.10 -16.06 0.26 -1.98 0.72 -5.46 1.02 -7.71 0.77 -5.92 1.90 -14.51 1.94 -14.77 0.04 -0.21 0.04 -0.21 -0.31 0.03 l-0.35 0.23 -0.31 2.37 c-0.17 1.30 -0.66 5 -1.09 8.22 -1.33 9.91 -2.40 18.14 -3.57 27.20 -1.42 10.96 -2.72 20.81 -3.04 22.85 -0.29 1.92 -0.36 2.24 -0.68 3.32 -1.73 5.71 -7.46 8.75 -19.13 10.13 -1.86 0.21 -9.23 0.25 -11.18 0.05 -5.35 -0.56 -9.15 -1.35 -12.24 -2.57 -4.92 -1.95 -7.37 -4.68 -8.31 -9.22 -0.16 -0.78 -0.52 -3.21 -0.93 -6.35 -0.16 -1.18 -0.60 -4.52 -0.98 -7.42 -0.38 -2.90 -0.92 -6.92 -1.18 -8.94 -0.26 -2.01 -0.75 -5.70 -1.07 -8.20 -0.67 -5.21 -0.90 -6.93 -1.56 -12.01 -0.26 -2.01 -0.70 -5.33 -0.98 -7.37 -0.26 -2.04 -0.73 -5.59 -1.04 -7.89 l-0.57 -4.17 -0.35 -0.28 c-0.33 -0.27 -0.35 -0.27 -0.31 -0.08 0.04 0.24 0.69 5.27 1.93 14.72 0.46 3.52 1.12 8.55 1.46 11.18 0.34 2.64 0.83 6.35 1.07 8.25 1.03 7.96 3.30 25.05 3.57 26.81 0.35 2.31 0.74 3.62 1.51 5.13 1.92 3.73 5.67 6.15 11.97 7.71 2.71 0.66 6.33 1.23 9.31 1.45 1.70 0.13 6.08 0.14 7.74 0.01z m-0.91 -1.85 c5.82 -0.36 10.78 -1.40 14.31 -2.98 4.10 -1.85 6.10 -4.16 6.99 -8.06 0.34 -1.55 1.31 -8.46 2.83 -20.41 0.13 -1.04 0.48 -3.70 0.77 -5.91 0.29 -2.20 0.68 -5.23 0.88 -6.74 0.49 -3.78 1.59 -12.18 3.13 -23.68 0.24 -1.80 0.47 -3.53 0.51 -3.84 l0.06 -0.56 -0.87 0.43 c-2.53 1.25 -7.49 2.64 -12.26 3.42 -6.56 1.08 -12.77 1.49 -20.69 1.40 -6.92 -0.10 -11.55 -0.46 -17.57 -1.40 -5.36 -0.82 -10.35 -2.18 -13.01 -3.51 -0.43 -0.22 -0.67 -0.30 -0.67 -0.22 0 0.13 0.50 3.92 1.38 10.53 0.27 2.01 0.79 6 1.16 8.84 0.37 2.85 0.83 6.37 1.02 7.81 0.20 1.46 0.60 4.50 0.89 6.79 1.76 13.47 2.93 22.29 3.17 23.97 0.67 4.62 1.31 6.24 3.19 8.18 1.95 2.02 4.72 3.39 9.01 4.46 3.18 0.80 6 1.19 10.64 1.50 1.08 0.07 3.70 0.05 5.13 -0.04z m4.39 -68.36 c8.59 -0.56 15.07 -1.64 20.25 -3.38 3.24 -1.09 5.23 -2.17 6.40 -3.47 0.54 -0.60 0.94 -1.39 0.94 -1.84 0 -0.85 -0.92 -2.07 -2.20 -2.94 -0.83 -0.56 -1.68 -1.01 -1.84 -0.95 -0.07 0.02 0.28 0.24 0.78 0.50 1.08 0.57 2.06 1.42 2.41 2.13 0.21 0.42 0.25 0.64 0.25 1.27 0 1.17 -0.33 1.79 -1.45 2.63 -2.94 2.23 -10.59 4.25 -19.31 5.12 -7.95 0.79 -17.59 0.83 -25.39 0.10 -11.42 -1.06 -19.25 -3.13 -21.92 -5.75 -0.69 -0.68 -0.88 -1.12 -0.88 -2.07 0.01 -1.22 0.38 -1.85 1.74 -2.84 0.76 -0.57 0.93 -0.76 0.34 -0.41 -1.62 0.98 -2.67 2.24 -2.67 3.21 0.01 1.84 3.15 4 8.01 5.51 5.35 1.65 13.96 2.92 22.36 3.28 2.37 0.10 10.06 0.04 12.16 -0.10z m-9.33 -1.90 c0.14 -0.18 0.57 -0.70 0.96 -1.16 0.70 -0.81 0.72 -0.85 0.77 -1.45 l0.05 -0.62 -1.36 1.37 c-0.74 0.75 -1.50 1.55 -1.68 1.79 l-0.32 0.41 0.67 0 c0.64 -0.01 0.67 -0.02 0.91 -0.34z m1.86 0.08 c0 -0.24 0 -0.25 -0.20 -0.08 -0.11 0.10 -0.20 0.21 -0.20 0.26 0 0.04 0.09 0.08 0.20 0.08 0.15 0 0.20 -0.07 0.20 -0.26z m1.75 -0.29 c0.16 -0.65 0.29 -2.16 0.30 -3.11 0 -0.80 -0.04 -0.73 1.31 -2.33 0.55 -0.63 1.09 -1.30 1.22 -1.46 0.14 -0.17 0.46 -0.56 0.72 -0.87 0.27 -0.31 0.45 -0.61 0.40 -0.64 -0.05 -0.04 -0.37 -0.31 -0.72 -0.59 -0.99 -0.80 -4.10 -3.94 -4.17 -4.19 -0.03 -0.13 -0.03 -0.54 0 -0.90 0.05 -0.54 0.02 -0.71 -0.13 -0.96 -0.18 -0.28 -0.21 -0.30 -0.49 -0.20 l-0.30 0.10 0.24 0.26 c0.21 0.22 0.25 0.36 0.25 0.82 l0 0.56 -0.46 0 c-0.45 0 -0.48 0.02 -0.70 0.42 -0.13 0.22 -0.38 0.62 -0.57 0.88 -0.31 0.43 -0.37 0.46 -0.77 0.46 l-0.43 0 0 -0.41 c0 -0.27 0.10 -0.59 0.30 -0.95 0.17 -0.30 0.24 -0.49 0.18 -0.43 -0.07 0.07 -0.29 0.13 -0.50 0.13 -0.41 0 -0.42 -0.02 -0.50 -0.92 -0.03 -0.28 -0.12 -0.54 -0.22 -0.64 -0.30 -0.29 -1.99 -1.20 -4.79 -2.60 -1.46 -0.73 -2.67 -1.36 -2.67 -1.41 0 -0.06 -0.37 -0.18 -1.44 -0.45 -0.17 -0.05 -0.26 0.02 -0.46 0.33 -0.27 0.44 -0.69 0.80 -0.93 0.80 -0.30 0 -0.37 0.14 -0.31 0.57 l0.06 0.43 0.70 -0.60 c0.52 -0.43 0.79 -0.60 1 -0.60 0.49 0 0.60 0.09 0.60 0.49 0 0.38 -0.20 0.61 -1.46 1.65 -0.19 0.16 0.10 0.09 1.15 -0.28 1.86 -0.64 2.19 -0.65 3.84 -0.04 1.54 0.57 3.90 1.58 4.12 1.78 0.14 0.12 0.17 0.31 0.17 1.04 0 0.72 -0.06 1.04 -0.28 1.70 -0.24 0.69 -0.25 0.80 -0.12 0.80 0.30 0 2.30 0.20 2.53 0.24 0.17 0.04 0.21 0.13 0.21 0.37 0.01 0.29 0.04 0.26 0.35 -0.34 0.31 -0.63 0.35 -0.66 0.66 -0.66 0.26 0 0.40 0.08 0.67 0.38 0.76 0.85 0.98 1.70 0.99 3.87 0 1.38 -0.02 1.62 -0.21 2.09 -0.18 0.41 -0.20 0.57 -0.11 0.72 0.07 0.14 0.09 0.61 0.05 1.38 -0.03 0.65 -0.01 1.79 0.05 2.53 0.11 1.28 0.12 1.34 0.32 1.34 0.18 0 0.23 -0.09 0.33 -0.56z m6.80 0.26 c1.03 -0.05 1.93 -0.10 2.03 -0.10 0.30 0 0.18 -0.17 -0.59 -0.80 -0.41 -0.33 -0.92 -0.76 -1.12 -0.95 l-0.39 -0.34 -1.13 0.60 c-0.63 0.32 -1.32 0.64 -1.53 0.71 -0.59 0.19 -0.59 0.19 -0.13 0.63 0.34 0.34 0.47 0.41 0.71 0.38 0.17 -0.02 1.13 -0.08 2.15 -0.14z m-13.43 -1.09 c0.46 -0.65 1.26 -1.78 1.78 -2.49 0.91 -1.26 0.95 -1.34 1.15 -2.24 0.12 -0.51 0.26 -0.98 0.33 -1.04 0.07 -0.06 0.49 -0.36 0.93 -0.65 l0.80 -0.54 -0.06 -0.49 c-0.07 -0.57 -0.23 -1.26 -0.29 -1.20 -0.11 0.11 -1.19 1.92 -1.79 3.01 -0.38 0.67 -1.04 1.78 -1.46 2.46 -0.80 1.26 -2.53 3.66 -2.80 3.89 -0.09 0.08 -0.21 0.21 -0.25 0.31 -0.09 0.16 -0.05 0.18 0.37 0.17 l0.47 0 0.83 -1.18z m-2.36 -0.24 c1.50 -1.90 3.18 -4.49 4.37 -6.72 0.31 -0.59 0.65 -1.20 0.77 -1.37 l0.20 -0.29 -0.33 0.27 c-1.33 1.05 -2.23 1.47 -4.99 2.36 -0.94 0.30 -1.23 0.35 -1.71 0.31 -0.68 -0.06 -4.71 -1.40 -5.45 -1.82 -0.27 -0.16 -0.73 -0.31 -1.04 -0.35 -0.29 -0.04 -1.10 -0.27 -1.80 -0.51 -1.24 -0.43 -1.27 -0.44 -1.60 -0.28 l-0.34 0.17 1.24 0.76 c4.25 2.66 6.79 4.79 8.90 7.46 0.49 0.62 0.91 1.08 0.94 1.05 0.04 -0.03 0.41 -0.51 0.85 -1.05z m10.86 0.52 c0 -0.12 -0.08 -0.33 -0.19 -0.48 l-0.18 -0.27 -0.07 0.46 c-0.03 0.25 -0.06 0.57 -0.06 0.70 l0 0.24 0.24 -0.22 c0.14 -0.13 0.24 -0.32 0.24 -0.43z m-15.21 0.24 c0.03 -0.16 0.09 -0.39 0.12 -0.52 0.06 -0.21 -0.05 -0.32 -1.09 -1.07 -1.33 -0.96 -2.61 -1.82 -2.79 -1.89 -0.11 -0.04 -0.11 0.07 0 0.62 0.08 0.36 0.13 0.81 0.11 1.01 -0.03 0.33 -0.04 0.34 -0.46 0.37 -0.34 0.03 -0.67 -0.07 -1.54 -0.43 -0.62 -0.25 -1.12 -0.44 -1.14 -0.42 -0.14 0.19 -0.63 1.60 -0.58 1.66 0.10 0.09 3.35 0.55 5.50 0.77 0.89 0.10 1.66 0.18 1.72 0.19 0.06 0 0.14 -0.12 0.17 -0.27z m30.68 -0.57 c1.13 -0.19 2.07 -0.36 2.09 -0.38 0.06 -0.05 0.06 -0.05 -0.69 -0.46 -0.67 -0.37 -1.06 -0.76 -1.33 -1.31 l-0.15 -0.32 -0.89 0.86 c-0.49 0.47 -1.21 1.13 -1.61 1.47 l-0.72 0.62 0.63 -0.07 c0.34 -0.03 1.55 -0.21 2.68 -0.41z m-39.86 -0.48 c0.03 -0.04 -0.80 -0.50 -1.87 -1.03 -1.05 -0.53 -1.92 -0.95 -1.92 -0.94 -0.21 0.34 -0.54 0.99 -0.54 1.04 0 0.03 0.52 0.19 1.15 0.32 0.63 0.15 1.49 0.35 1.92 0.45 0.86 0.21 1.15 0.23 1.25 0.15z m33.50 -0.51 l0.47 -0.48 -0.33 -0.25 -0.33 -0.25 -0.15 0.72 c-0.08 0.40 -0.14 0.73 -0.14 0.73 0.01 0 0.22 -0.21 0.48 -0.47z m-1.60 -0.64 c0.01 -0.17 -0.04 -0.15 -0.32 0.13 l-0.33 0.32 0.25 0.22 0.26 0.22 0.07 -0.35 c0.04 -0.20 0.07 -0.45 0.07 -0.55z m-5.89 0.66 c0.22 -0.06 0.21 -0.08 -0.24 -0.44 -0.26 -0.21 -0.50 -0.38 -0.53 -0.38 -0.02 0 -0.07 0.10 -0.10 0.21 -0.08 0.26 0.28 0.80 0.49 0.72 0.08 -0.04 0.25 -0.09 0.38 -0.12z m20.10 -1.12 c1.13 -0.38 2.09 -0.72 2.13 -0.76 0.04 -0.04 -0.03 -0.41 -0.16 -0.83 -0.24 -0.77 -0.41 -1.62 -0.68 -3.43 -0.08 -0.54 -0.22 -1.16 -0.31 -1.40 l-0.17 -0.41 -0.22 0.21 -0.22 0.21 0.26 0.40 0.26 0.40 -0.02 1.89 c-0.02 2.72 0.11 2.45 -1.35 2.94 -1.81 0.60 -1.80 0.60 -3.09 -0.58 -0.60 -0.54 -1.39 -1.23 -1.77 -1.53 l-0.69 -0.57 0.06 -1.22 c0.04 -0.67 0.15 -1.57 0.25 -2 0.11 -0.43 0.19 -0.78 0.18 -0.79 -0.01 0 -0.17 -0.11 -0.33 -0.22 -0.18 -0.12 -0.36 -0.19 -0.42 -0.16 -0.06 0.03 -0.10 0.51 -0.10 1.10 0 1.44 -0.03 1.51 -0.50 1.46 -0.30 -0.03 -0.37 0 -0.34 0.12 0.39 1.42 0.18 1.12 2.68 3.58 1.28 1.25 2.35 2.27 2.40 2.28 0.04 0 1.01 -0.31 2.15 -0.69z m-44.93 -0.95 c0.24 -0.37 0.68 -0.96 0.98 -1.31 l0.54 -0.64 -0.39 -0.37 c-0.21 -0.21 -0.74 -0.81 -1.18 -1.34 -0.44 -0.54 -0.85 -0.94 -0.93 -0.93 -0.08 0.02 -0.65 0.58 -1.29 1.25 l-1.14 1.22 0.15 1.09 0.15 1.09 1.23 0.63 1.23 0.63 0.12 -0.33 c0.06 -0.19 0.31 -0.64 0.55 -1.01z m27.05 0.99 c0.38 -0.20 0.83 -0.38 1 -0.41 0.28 -0.07 0.26 -0.09 -0.60 -0.62 -0.49 -0.30 -1.15 -0.68 -1.48 -0.85 -0.58 -0.29 -0.61 -0.29 -0.72 -0.12 -0.07 0.10 -0.31 0.33 -0.53 0.52 l-0.41 0.33 0.95 0.74 c0.52 0.41 0.97 0.75 1.02 0.75 0.04 0.01 0.39 -0.15 0.78 -0.35z m-35.01 -0.81 c-0.66 -1.19 -3.58 -4.69 -3.92 -4.69 -0.06 0 -0.33 0.18 -0.62 0.40 -0.54 0.41 -1.11 1.17 -1.11 1.46 0 0.29 0.57 1.06 1.04 1.41 0.89 0.65 2.38 1.39 3.95 1.94 1.08 0.39 1.14 0.34 0.65 -0.52z m43.05 0.47 c0.25 -0.23 0.67 -0.61 0.91 -0.83 l0.44 -0.40 -0.38 -0.07 c-0.21 -0.03 -0.94 -0.17 -1.61 -0.29 -1.07 -0.21 -1.23 -0.21 -1.30 -0.09 -0.05 0.08 -0.21 0.29 -0.37 0.47 l-0.28 0.32 0.96 0.64 c0.52 0.35 1 0.64 1.05 0.64 0.06 0.01 0.32 -0.18 0.59 -0.40z m-32.26 -0.77 l-0.16 -0.63 -0.39 0.42 c-0.21 0.23 -0.37 0.44 -0.35 0.46 0.05 0.05 1.01 0.43 1.04 0.41 0.01 0 -0.06 -0.30 -0.14 -0.65z m-8.87 -0.09 c0.14 -0.27 0.33 -0.54 0.43 -0.61 0.19 -0.11 0.17 -0.15 -0.21 -0.61 -0.74 -0.89 -1.14 -1.22 -1.66 -1.38 -0.86 -0.25 -0.92 -0.21 -0.48 0.32 0.61 0.73 1.28 1.79 1.46 2.29 0.09 0.25 0.18 0.46 0.19 0.46 0.02 0 0.14 -0.22 0.27 -0.49z m36.05 -0.45 c-0.01 -0.02 -0.17 0.06 -0.34 0.18 l-0.31 0.20 0.22 0.18 c0.21 0.18 0.21 0.18 0.34 -0.17 0.06 -0.20 0.11 -0.37 0.09 -0.38z m20.93 -0.03 c0.81 -0.49 1.56 -1.20 1.75 -1.65 0.17 -0.39 -0.06 -0.88 -0.69 -1.49 -0.76 -0.75 -3.59 -2.25 -3.59 -1.89 0 0.23 0.74 3.08 1.13 4.36 0.30 0.97 0.41 1.22 0.53 1.18 0.08 -0.03 0.48 -0.25 0.88 -0.50z m-31.39 -1.05 c0.25 -0.59 0.19 -0.65 -0.30 -0.32 -0.44 0.30 -0.53 0.48 -0.69 1.42 l-0.06 0.39 0.46 -0.59 c0.25 -0.32 0.53 -0.72 0.60 -0.90z m28.53 0.15 c-0.17 -0.58 -0.32 -1.04 -0.34 -1.02 -0.03 0.04 0.46 1.90 0.54 2.04 0.14 0.23 0.08 -0.09 -0.20 -1.03z m-3.44 -0.31 c0.15 -1.59 0.13 -1.83 -0.22 -2.37 -0.35 -0.55 -0.45 -0.60 -1.68 -0.92 -0.46 -0.12 -1.11 -0.32 -1.46 -0.46 -0.51 -0.21 -0.63 -0.22 -0.70 -0.11 -0.18 0.27 -0.37 1.09 -0.44 1.78 l-0.06 0.70 0.92 0.75 c0.50 0.41 1.17 0.99 1.49 1.28 l0.58 0.53 0.75 -0.25 0.76 -0.24 0.06 -0.68z m-15.02 0.07 c0.45 -0.19 0.60 -0.46 0.72 -1.35 0.07 -0.47 0.19 -0.86 0.28 -0.98 0.24 -0.28 0.51 -1.12 0.36 -1.13 -0.39 -0.04 -1.40 0.35 -2.31 0.89 -0.08 0.05 -0.34 0.12 -0.59 0.15 -0.53 0.07 -1.07 0.37 -1.07 0.61 0 0.09 -0.10 0.26 -0.21 0.39 l-0.21 0.23 0.31 0.63 c0.26 0.54 0.40 0.68 0.91 1.01 l0.61 0.39 0.45 -0.35 c0.24 -0.19 0.60 -0.40 0.76 -0.48z m6.87 -0.59 c0.26 -0.62 0.26 -0.63 0.04 -1.17 l-0.16 -0.36 -0.15 0.33 c-0.21 0.52 -0.44 1.46 -0.38 1.62 0.03 0.08 0.14 0.14 0.23 0.14 0.13 0 0.24 -0.17 0.41 -0.56z m-2.93 -0.14 c-0.48 -0.38 -0.57 -0.40 -0.73 -0.17 -0.15 0.22 -0.15 0.22 0.36 0.28 0.28 0.03 0.54 0.06 0.57 0.07 0.03 0.01 -0.06 -0.07 -0.20 -0.19z m-39.48 -1.16 c-0.56 -0.76 -0.41 -0.69 -2.12 -0.87 -0.57 -0.05 -1.29 -0.19 -1.61 -0.29 -0.58 -0.21 -0.59 -0.21 -0.34 -0.01 0.25 0.21 1.25 0.54 2.64 0.88 1.10 0.27 1.30 0.35 1.62 0.69 0.15 0.16 0.28 0.28 0.29 0.28 0.02 0 -0.20 -0.30 -0.48 -0.68z m41.11 -0.24 c0.40 -1.32 0.40 -1.29 -0.12 -1.52 l-0.46 -0.21 -0.39 0.38 c-0.21 0.21 -0.47 0.54 -0.57 0.74 l-0.18 0.36 0.69 0.53 c0.39 0.29 0.72 0.51 0.76 0.47 0.03 -0.04 0.15 -0.37 0.25 -0.75z m-23.74 0.06 c0.31 -0.11 0.77 -0.24 1.02 -0.30 0.82 -0.21 2.29 -0.90 3.13 -1.45 l0.83 -0.56 -1.27 -0.12 c-0.69 -0.06 -1.66 -0.12 -2.15 -0.12 -0.89 -0.01 -2.15 0.20 -2.33 0.38 -0.05 0.05 -0.17 0.10 -0.25 0.10 -0.09 0 -0.56 0.17 -1.04 0.38 -0.48 0.21 -1.12 0.46 -1.45 0.56 l-0.57 0.18 1.64 0.56 c0.91 0.30 1.70 0.56 1.76 0.57 0.06 0 0.36 -0.08 0.68 -0.18z m-14.52 -0.71 c0.43 -0.45 0.76 -0.82 0.74 -0.84 -0.08 -0.08 -1.51 0.71 -1.51 0.83 0 0.08 -0.12 0.13 -0.27 0.13 -0.16 0 -0.31 0.03 -0.34 0.07 -0.08 0.07 0.40 0.62 0.54 0.62 0.05 0 0.43 -0.36 0.85 -0.80z m31.21 -1.04 c0.75 -0.30 1.37 -0.60 1.37 -0.63 0 -0.05 -0.18 -0.19 -0.39 -0.30 -0.21 -0.13 -0.87 -0.54 -1.46 -0.93 l-1.05 -0.69 -0.32 0.41 c-0.20 0.25 -0.29 0.46 -0.23 0.52 0.05 0.05 0.09 0.44 0.09 0.87 0 0.73 0.02 0.81 0.27 1.05 0.15 0.15 0.28 0.26 0.31 0.26 0.03 0 0.66 -0.25 1.42 -0.56z m9.23 -0.06 c0 -0.42 -0.01 -0.44 -0.51 -0.72 -0.72 -0.40 -6.91 -4.05 -9.47 -5.58 l-0.35 -0.21 -1.21 1.48 c-0.65 0.81 -1.46 1.81 -1.78 2.21 l-0.57 0.72 0.27 0.29 0.28 0.29 0.27 -0.32 c0.16 -0.18 0.87 -1.05 1.59 -1.95 1.25 -1.57 1.33 -1.64 1.66 -1.64 0.27 0 0.75 0.24 2.17 1.10 1.01 0.62 2.71 1.59 3.78 2.17 1.07 0.59 2.29 1.24 2.69 1.46 0.55 0.29 0.77 0.48 0.92 0.76 0.11 0.20 0.21 0.36 0.22 0.36 0.02 0 0.03 -0.20 0.03 -0.43z m-4.69 -0.15 c0 -0.08 0.11 -0.26 0.24 -0.40 l0.24 -0.25 -0.75 -0.43 c-0.42 -0.23 -1.64 -0.96 -2.71 -1.59 l-1.94 -1.16 -0.21 0.21 -0.21 0.21 0.29 0.21 c0.31 0.23 1.10 0.74 2.35 1.52 1.51 0.95 2.29 1.56 2.35 1.89 0.06 0.27 0.07 0.28 0.20 0.12 0.07 -0.11 0.13 -0.25 0.13 -0.33z m-39.61 -0.27 c-0.14 -0.21 -0.29 -0.37 -0.34 -0.36 -0.05 0.01 -0.19 0.02 -0.31 0.03 -0.13 0 -0.30 0.07 -0.41 0.14 -0.17 0.13 -0.17 0.15 0.03 0.34 0.17 0.17 0.33 0.21 0.75 0.21 l0.53 0 -0.24 -0.36z m4.93 -1.07 c0.04 -0.02 -0.10 -0.21 -0.74 -1 -0.28 -0.34 -0.42 -0.62 -0.42 -0.80 0 -0.16 -0.05 -0.28 -0.10 -0.28 -0.09 0 -0.86 0.36 -0.96 0.44 -0.02 0.02 0.13 0.27 0.32 0.57 0.28 0.43 0.35 0.62 0.32 0.91 -0.03 0.36 -0.05 0.38 -0.37 0.41 -0.19 0.01 -0.39 -0.01 -0.45 -0.05 -0.05 -0.05 -0.37 -0.44 -0.70 -0.88 -0.53 -0.70 -0.61 -0.85 -0.61 -1.23 l0 -0.43 1.25 -0.55 c3.42 -1.50 6.15 -2.36 8.42 -2.69 l0.54 -0.07 0.03 -0.47 0.03 -0.47 -0.37 0.06 c-2.03 0.33 -5.41 1.28 -6.13 1.73 -0.47 0.28 -0.99 0.52 -3.14 1.40 -0.97 0.39 -1.51 0.76 -1.85 1.27 -0.16 0.23 -0.14 0.27 0.95 1.89 l1.09 1.65 1.43 -0.69 c0.78 -0.39 1.45 -0.71 1.46 -0.72z m8.37 1.28 c0.61 -0.12 1.82 -0.54 3.50 -1.20 0.23 -0.10 0.26 -0.15 0.21 -0.38 -0.03 -0.15 -0.09 -0.59 -0.12 -0.97 l-0.07 -0.71 0.39 0 c0.31 0 0.41 0.05 0.51 0.23 0.15 0.27 0.44 0.42 0.99 0.51 0.36 0.06 0.39 0.09 0.46 0.47 l0.09 0.40 0.88 0.03 0.88 0.03 0.22 -0.87 c0.21 -0.80 0.21 -0.90 0.08 -1.15 -0.19 -0.36 -0.58 -0.64 -1.62 -1.18 l-0.84 -0.43 -0.03 0.43 -0.03 0.43 -0.54 0.06 c-0.30 0.03 -0.60 0.10 -0.66 0.16 -0.07 0.06 -0.33 0.14 -0.58 0.17 -0.40 0.06 -0.48 0.04 -0.64 -0.17 -0.11 -0.13 -0.27 -0.44 -0.35 -0.69 -0.09 -0.25 -0.21 -0.49 -0.25 -0.53 -0.05 -0.03 -0.32 0.03 -0.61 0.14 -0.27 0.11 -0.84 0.24 -1.24 0.30 -0.40 0.07 -0.95 0.18 -1.22 0.25 -0.26 0.07 -0.61 0.16 -0.75 0.19 -0.32 0.08 -0.63 0.63 -1.36 2.47 -0.26 0.67 -0.53 1.29 -0.59 1.37 -0.07 0.08 -0.08 0.17 -0.03 0.21 0.14 0.13 1.09 0.42 1.64 0.50 0.77 0.12 0.89 0.11 1.68 -0.06z m-17.03 -0.70 l0.56 -0.03 -0.24 -0.63 c-0.13 -0.34 -0.23 -0.78 -0.23 -0.97 0 -0.36 -0.05 -0.40 -0.29 -0.24 -0.11 0.06 -0.16 0.31 -0.18 0.88 l-0.04 0.79 -0.56 0.25 -0.55 0.26 0.44 0.05 c0.38 0.05 0.45 0.03 0.49 -0.14 0.05 -0.17 0.16 -0.21 0.61 -0.22z m55.06 0.18 l0.21 -0.28 -0.29 -0.16 c-0.28 -0.14 -0.32 -0.14 -0.84 0.12 -0.29 0.15 -0.54 0.29 -0.54 0.33 0 0.07 0.70 0.25 1.04 0.27 0.13 0.01 0.29 -0.10 0.42 -0.28z m2.29 -0.41 c-0.04 -0.13 -0.17 -0.46 -0.29 -0.74 -0.21 -0.46 -0.28 -0.55 -0.78 -0.77 -0.65 -0.29 -0.86 -0.31 -1.37 -0.07 l-0.38 0.19 0.80 0.05 c1.10 0.08 1.58 0.45 1.59 1.25 0 0.27 0.03 0.31 0.25 0.31 0.21 0 0.23 -0.03 0.18 -0.21z m-44.24 -1.22 c0.13 -0.36 0.34 -0.96 0.48 -1.32 l0.25 -0.66 -0.61 0.07 c-0.33 0.03 -0.78 0.12 -1 0.20 -0.21 0.08 -0.63 0.21 -0.93 0.27 -0.49 0.12 -1.13 0.33 -1.91 0.64 l-0.30 0.12 0.40 0.51 0.40 0.50 0.63 -0.03 c0.63 -0.04 0.63 -0.04 1.26 0.44 l0.63 0.48 0.23 -0.27 c0.13 -0.15 0.33 -0.57 0.46 -0.94z m46.74 0.97 c0 -0.04 -0.29 -0.18 -0.64 -0.28 -0.35 -0.12 -0.63 -0.17 -0.61 -0.11 0.02 0.06 0.27 0.19 0.57 0.27 0.64 0.21 0.68 0.21 0.68 0.12z m-8.16 -0.50 c0.17 -0.19 0.16 -0.20 -0.40 -0.30 -0.31 -0.06 -0.65 -0.14 -0.76 -0.17 -0.25 -0.07 -0.14 0.05 0.37 0.38 0.50 0.31 0.58 0.32 0.79 0.09z m-3.56 -0.04 c-0.08 -0.07 -4.53 -2.86 -4.87 -3.07 -0.19 -0.11 -0.76 -0.47 -1.27 -0.80 -0.51 -0.33 -1.11 -0.72 -1.35 -0.87 -0.22 -0.15 -1.05 -0.69 -1.86 -1.21 -0.79 -0.53 -1.51 -0.95 -1.61 -0.93 -0.11 0.01 -1.11 1.17 -2.31 2.66 l-2.14 2.64 0.26 0.27 c0.14 0.15 0.27 0.26 0.30 0.26 0.03 0 0.92 -1.07 1.96 -2.39 l1.90 -2.39 0.42 0 c0.35 0 0.66 0.16 2.25 1.10 1.01 0.62 2.86 1.71 4.12 2.43 1.26 0.73 2.71 1.57 3.22 1.87 0.51 0.30 0.94 0.53 0.97 0.51 0.02 -0.03 0.02 -0.07 0 -0.08z m4.84 -1.33 c-0.11 -0.09 -2.67 -0.59 -4.35 -0.84 -0.57 -0.09 -1.11 -0.18 -1.22 -0.21 -0.20 -0.05 -0.20 -0.05 0 0.07 0.10 0.07 0.98 0.24 1.95 0.39 0.97 0.15 2.16 0.36 2.64 0.46 1.07 0.23 1.09 0.23 0.98 0.13z m-24.17 -1.59 c0 -0.05 -0.02 -0.08 -0.05 -0.08 -0.06 0 -0.44 0.74 -0.44 0.85 0.01 0.10 0.49 -0.67 0.49 -0.77z"/>
 </g>
 <g fill="#4f0906">
  <path d="M37.55 18.80 c-1.24 -0.89 -3.18 -2.11 -3.46 -2.16 -0.18 -0.04 -0.34 0.01 -0.49 0.13 l-0.22 0.19 0.25 0.96 c0.34 1.28 0.34 1.28 -0.12 1.04 -0.20 -0.10 -0.70 -0.32 -1.11 -0.50 -0.42 -0.17 -0.76 -0.33 -0.76 -0.36 0 -0.03 0.33 -0.41 0.74 -0.84 0.66 -0.72 1.35 -1.22 1.67 -1.24 0.20 0 1.23 0.64 2.26 1.41 1.04 0.77 2.29 1.90 2.11 1.91 -0.07 0 -0.45 -0.24 -0.87 -0.54z"/>
  <path d="M56.70 15.19 c-0.22 -0.35 -0.20 -0.57 0.13 -0.81 0.24 -0.18 0.50 -0.22 1.69 -0.31 0.76 -0.05 1.56 -0.10 1.77 -0.10 0.34 0 0.36 0.01 0.36 0.32 0 0.55 -0.18 0.63 -1.81 0.75 -0.85 0.08 -1.55 0.19 -1.68 0.25 -0.28 0.18 -0.27 0.18 -0.46 -0.11z"/>
 </g>
 <g fill="#282c28">
  <path d="M54.17 20.03 c-0.39 -0.41 -0.43 -0.50 -0.31 -0.60 0.08 -0.07 0.20 -0.29 0.26 -0.50 0.06 -0.21 0.15 -0.38 0.19 -0.38 0.05 0 0.22 0.13 0.40 0.27 0.18 0.16 0.61 0.47 0.95 0.70 0.45 0.30 0.59 0.44 0.49 0.49 -0.18 0.10 -1.33 0.49 -1.44 0.49 -0.05 0 -0.29 -0.21 -0.54 -0.48z"/>
  <path d="M59 18.97 c-0.31 -0.25 -0.32 -0.25 -0.67 -0.09 l-0.35 0.17 -1.52 -0.95 c-0.84 -0.53 -1.54 -0.97 -1.56 -0.99 -0.02 -0.01 0.07 -0.13 0.20 -0.24 0.13 -0.13 0.30 -0.33 0.39 -0.46 l0.16 -0.24 0.82 0.43 c1.04 0.54 2.59 1.49 3.08 1.90 0.38 0.32 0.38 0.32 0.20 0.53 -0.23 0.26 -0.33 0.25 -0.72 -0.06z"/>
  <path d="M25.94 14.18 c-0.02 -0.04 -0.04 -0.33 -0.03 -0.64 0.01 -0.48 0.04 -0.56 0.19 -0.52 0.09 0.03 0.16 0.01 0.15 -0.05 -0.01 -0.05 0.26 -0.24 0.62 -0.42 0.72 -0.38 0.78 -0.35 0.78 0.40 0 0.43 -0.05 0.57 -0.31 0.90 -0.30 0.37 -0.35 0.40 -0.83 0.40 -0.27 0.01 -0.53 -0.03 -0.56 -0.07z"/>
 </g>
 <g fill="#79160b">
  <path d="M53.81 22.58 c0 -0.11 0.43 -0.51 0.54 -0.51 0.11 0 0.33 0.31 0.34 0.47 0 0.08 -0.15 0.12 -0.44 0.12 -0.24 0 -0.44 -0.04 -0.44 -0.08z"/>
  <path d="M45.51 22.01 c0 -0.06 0.25 -0.44 0.57 -0.85 0.30 -0.40 0.75 -1 0.99 -1.33 0.46 -0.64 0.60 -0.72 0.60 -0.36 0 0.21 -0.22 0.50 -1.88 2.34 -0.15 0.17 -0.27 0.25 -0.27 0.20z"/>
  <path d="M61.08 17.75 c0.16 -0.55 2.06 -3.30 2.28 -3.30 0.19 0 1.96 1.39 1.97 1.54 0 0.17 -0.23 0.15 -1.05 -0.08 -0.95 -0.26 -1.04 -0.25 -1.35 0.18 -0.34 0.46 -1.72 1.88 -1.83 1.88 -0.05 0 -0.05 -0.10 -0.02 -0.21z"/>
  <path d="M59.77 14.80 c0 -0.09 0.06 -0.16 0.13 -0.16 0.08 0 0.21 -0.09 0.31 -0.20 0.18 -0.20 0.17 -0.20 -0.09 -0.20 -0.23 0 -0.24 -0.02 -0.14 -0.20 0.11 -0.17 0.23 -0.20 0.80 -0.20 0.64 0 0.66 0.01 0.52 0.18 -0.10 0.10 -0.17 0.29 -0.17 0.44 0 0.32 -0.03 0.33 -0.76 0.42 -0.52 0.06 -0.61 0.04 -0.61 -0.10z"/>
  <path d="M57.77 13.95 c0.04 -0.28 0.08 -0.54 0.10 -0.56 0.02 -0.02 0.23 -0.06 0.48 -0.08 0.24 -0.03 0.47 -0.10 0.50 -0.14 0.03 -0.05 0.12 -0.09 0.20 -0.09 0.17 0 0.18 0.38 0.03 0.91 -0.07 0.27 -0.15 0.36 -0.31 0.37 -0.12 0 -0.40 0.02 -0.63 0.05 l-0.42 0.05 0.07 -0.52z"/>
 </g>
 <g fill="#283448">
  <path d="M62.30 13.18 c-0.09 -0.05 -0.08 -0.16 0.03 -0.41 0.10 -0.24 0.12 -0.39 0.04 -0.52 -0.15 -0.26 0.17 -0.44 0.79 -0.44 0.53 0 0.54 0 0.36 0.20 -0.17 0.19 -0.17 0.20 0 0.20 0.13 0 0.05 0.13 -0.29 0.48 -0.48 0.50 -0.72 0.63 -0.93 0.50z"/>
  <path d="M56.84 12.98 c-0.62 -0.32 -0.85 -0.55 -0.70 -0.68 0.19 -0.20 0.16 -1.33 -0.04 -1.44 -0.37 -0.21 0.02 -0.28 1.48 -0.30 1.38 -0.01 1.55 0.01 1.80 0.19 0.15 0.11 0.30 0.20 0.33 0.20 0.03 0 0.30 0.16 0.62 0.36 l0.56 0.35 -0.54 0.23 c-0.53 0.24 -2.18 0.91 -2.82 1.15 -0.30 0.11 -0.39 0.10 -0.68 -0.06z"/>
 </g>
 <g fill="#3e3f3f">
  <path d="M54.27 20.22 c-0.16 -0.26 -0.22 -0.69 -0.12 -0.69 0.03 0 0.13 0.08 0.22 0.18 0.10 0.10 0.28 0.25 0.40 0.33 0.28 0.20 0.21 0.47 -0.12 0.47 -0.14 0 -0.28 -0.10 -0.39 -0.28z"/>
  <path d="M55.86 20.04 c-0.08 -0.03 -0.20 -0.12 -0.25 -0.20 -0.06 -0.08 -0.21 -0.16 -0.31 -0.17 -0.30 -0.02 -0.97 -0.59 -1.02 -0.87 -0.04 -0.19 -0.01 -0.22 0.11 -0.19 0.15 0.06 1.87 1.30 1.87 1.35 0 0.07 -0.26 0.11 -0.39 0.07z"/>
  <path d="M26.05 14.32 c-0.26 -0.31 -0.33 -0.45 -0.24 -0.54 0.17 -0.17 0.49 -0.14 0.42 0.04 -0.04 0.11 0.02 0.15 0.22 0.15 0.16 0 0.30 -0.07 0.34 -0.15 0.09 -0.22 0.25 -0.18 0.25 0.09 0 0.21 -0.44 0.84 -0.59 0.84 -0.03 0 -0.21 -0.20 -0.41 -0.43z"/>
  <path d="M42.29 9.92 c0 -0.08 -0.16 -0.16 -0.39 -0.20 -0.55 -0.09 -0.84 -0.23 -0.99 -0.51 -0.17 -0.32 -0.31 -0.29 -0.26 0.04 0.04 0.25 0.02 0.26 -0.18 0.18 -0.16 -0.08 -0.23 -0.24 -0.32 -0.70 -0.06 -0.33 -0.11 -0.77 -0.11 -0.98 0.01 -0.32 0.03 -0.35 0.13 -0.22 0.12 0.16 0.24 0.15 0.61 -0.02 0.29 -0.13 1.05 -0.28 1.14 -0.22 0.04 0.03 0.08 -0.04 0.08 -0.15 0 -0.14 0.06 -0.21 0.19 -0.21 0.21 0 0.25 0.31 0.37 2.10 0.05 0.92 0.04 1.03 -0.10 1.03 -0.10 0 -0.17 -0.06 -0.17 -0.14z"/>
 </g>
 <g fill="#963310">
  <path d="M47 20.26 c0.20 -0.22 0.36 -0.50 0.36 -0.63 0 -0.13 0.24 -0.58 0.54 -1 0.29 -0.42 0.54 -0.81 0.54 -0.87 0 -0.05 0.09 -0.10 0.20 -0.10 0.11 0 0.20 0.05 0.20 0.10 0 0.06 0.09 0.10 0.21 0.10 0.19 0 0.18 0.03 -0.12 0.40 -0.18 0.22 -0.76 0.85 -1.30 1.40 -0.55 0.56 -0.82 0.82 -0.62 0.60z"/>
  <path d="M61.07 17.81 c0.13 -0.34 1.14 -1.78 1.30 -1.84 0.19 -0.08 0.32 0.01 0.32 0.20 0 0.14 -1.41 1.70 -1.60 1.79 -0.05 0.02 -0.06 -0.05 -0.02 -0.15z"/>
  <path d="M66.36 16.32 c-0.37 -0.06 -0.39 -0.08 -0.42 -0.44 -0.06 -0.64 0.66 -1.90 1.08 -1.91 0.20 0 0.46 0.53 0.46 0.91 0 0.27 -0.56 1.54 -0.66 1.52 -0.04 -0.01 -0.24 -0.05 -0.46 -0.08z"/>
 </g>
 <g fill="#263c78">
  <path d="M64.02 14.28 c-0.26 -0.20 -0.56 -0.41 -0.65 -0.47 -0.17 -0.10 -0.17 -0.13 0.11 -0.38 0.17 -0.16 0.29 -0.33 0.29 -0.38 0 -0.06 0.29 -0.37 0.65 -0.70 l0.65 -0.60 0.58 0.28 c0.31 0.16 0.59 0.34 0.62 0.41 0.06 0.16 -0.32 1.73 -0.45 1.86 -0.14 0.14 -0.79 0.35 -1.07 0.35 -0.14 0 -0.46 -0.17 -0.72 -0.37z"/>
 </g>
 <g fill="#ca240c">
  <path d="M47.36 19.48 c0 -0.10 1 -1.52 1.04 -1.48 0.06 0.06 -0.08 0.36 -0.17 0.36 -0.05 0 -0.19 0.17 -0.30 0.37 -0.28 0.46 -0.58 0.85 -0.58 0.75z"/>
  <path d="M48.54 18.07 c-0.09 -0.17 -0.05 -0.44 0.30 -1.88 0.08 -0.29 0.21 -0.44 0.73 -0.80 0.87 -0.62 0.96 -0.61 0.89 0.14 -0.09 0.77 -0.22 1.08 -0.88 1.91 -0.59 0.74 -0.89 0.93 -1.04 0.63z"/>
  <path d="M65.97 15.73 c-0.03 -0.07 -0.04 -0.29 0 -0.50 0.06 -0.35 0.10 -0.39 0.35 -0.39 l0.28 0 -0.15 0.37 c-0.20 0.46 -0.39 0.66 -0.49 0.52z"/>
 </g>
 <g fill="#555657">
  <path d="M36.13 21.87 c-1.95 -0.21 -5.55 -0.71 -5.63 -0.80 -0.05 -0.04 0.79 -2.29 0.89 -2.40 0.03 -0.02 0.65 0.21 1.41 0.53 0.75 0.30 1.44 0.54 1.52 0.50 0.18 -0.07 0.16 -0.27 -0.16 -1.56 -0.11 -0.43 -0.17 -0.80 -0.14 -0.83 0.08 -0.07 0.86 0.36 1.81 1 1 0.67 3.02 2.13 3.09 2.23 0.02 0.04 -0.02 0.37 -0.11 0.72 -0.08 0.36 -0.13 0.69 -0.09 0.74 0.07 0.13 -0.63 0.10 -2.60 -0.12z"/>
  <path d="M39.06 21.78 c0.26 -0.37 0.38 -0.44 0.52 -0.30 0.07 0.07 0.07 0.18 -0.01 0.35 -0.09 0.19 -0.19 0.24 -0.41 0.24 l-0.30 0 0.21 -0.29z"/>
  <path d="M54.17 20.11 c-0.27 -0.39 -0.29 -0.73 -0.04 -0.65 0.06 0.03 0.17 0.20 0.22 0.38 0.09 0.25 0.18 0.34 0.37 0.36 0.32 0.04 0.28 0.25 -0.05 0.28 -0.18 0.02 -0.30 -0.07 -0.51 -0.37z"/>
  <path d="M27.34 12.98 c0 -0.11 -0.05 -0.28 -0.10 -0.38 -0.09 -0.16 -0.06 -0.21 0.17 -0.32 0.16 -0.08 0.44 -0.17 0.64 -0.20 0.30 -0.05 0.36 -0.03 0.36 0.12 0 0.22 -0.70 0.99 -0.91 0.99 -0.11 0 -0.17 -0.08 -0.17 -0.21z"/>
 </g>
 <g fill="#616a47">
  <path d="M56.30 19.53 c-0.14 -0.14 -0.68 -0.59 -1.22 -0.99 -0.85 -0.63 -1.16 -0.97 -0.90 -0.97 0.05 0 0.26 -0.16 0.50 -0.35 0.23 -0.21 0.48 -0.33 0.58 -0.31 0.09 0.03 0.84 0.47 1.66 0.99 l1.49 0.94 -0.93 0.48 -0.93 0.48 -0.25 -0.26z"/>
 </g>
 <g fill="#3c579d">
  <path d="M52.80 21.95 c0.02 -0.39 0.06 -0.90 0.09 -1.12 0.05 -0.40 0.07 -0.42 0.36 -0.42 0.39 0 0.65 0.38 0.65 0.95 0 0.32 -0.07 0.45 -0.47 0.84 -0.25 0.25 -0.52 0.46 -0.58 0.46 -0.07 0 -0.09 -0.24 -0.06 -0.70z"/>
  <path d="M59.96 18.31 c-0.14 -0.15 -0.39 -0.34 -0.57 -0.46 -0.40 -0.24 -0.37 -0.29 0.71 -0.96 0.46 -0.27 0.83 -0.55 0.83 -0.60 0 -0.05 0.07 -0.09 0.15 -0.09 0.20 0 0.19 0.33 -0.01 0.63 -0.09 0.14 -0.27 0.56 -0.42 0.95 -0.14 0.38 -0.30 0.71 -0.36 0.73 -0.05 0.02 -0.21 -0.08 -0.33 -0.21z"/>
  <path d="M55.99 15.88 c-0.33 -0.17 -0.61 -0.34 -0.61 -0.38 -0.01 -0.05 0.08 -0.21 0.20 -0.37 0.21 -0.30 0.58 -0.38 0.58 -0.14 0 0.08 0.04 0.15 0.10 0.15 0.10 0 0.31 0.37 0.49 0.83 0.12 0.31 0.03 0.30 -0.75 -0.09z"/>
  <path d="M61.36 15.60 c0.08 -0.86 0.13 -0.95 0.52 -0.95 0.30 0 0.33 0.03 0.33 0.29 0 0.30 -0.62 1.27 -0.80 1.27 -0.07 0 -0.09 -0.21 -0.05 -0.62z"/>
  <path d="M56.86 15.48 c-0.17 -0.36 -0.14 -0.44 0.04 -0.12 0.09 0.16 0.14 0.30 0.11 0.32 -0.02 0.02 -0.09 -0.07 -0.15 -0.21z"/>
  <path d="M64.54 14.68 c-0.40 -0.32 -0.65 -0.62 -0.53 -0.62 0.03 0 0.20 0.07 0.36 0.16 0.21 0.12 0.36 0.13 0.56 0.06 0.60 -0.22 0.60 -0.22 0.60 0.08 0 0.20 -0.08 0.34 -0.27 0.48 l-0.27 0.20 -0.44 -0.35z"/>
  <path d="M62.11 13.32 c0 -0.19 0.23 -0.43 0.50 -0.52 0.38 -0.14 0.47 -0.07 0.24 0.18 -0.17 0.19 -0.74 0.45 -0.74 0.34z"/>
  <path d="M56.64 12.93 c-0.49 -0.50 -0.27 -0.63 0.45 -0.25 l0.58 0.29 -0.28 0.11 c-0.16 0.07 -0.31 0.13 -0.34 0.16 -0.04 0.02 -0.21 -0.12 -0.40 -0.30z"/>
  <path d="M55.96 10.82 c-0.27 -0.10 -0.23 -0.20 0.40 -1 0.34 -0.42 0.57 -0.63 0.66 -0.60 0.13 0.05 2.55 1.61 2.55 1.65 0 0.06 -3.45 0 -3.61 -0.06z"/>
 </g>
 <g fill="#d14f16">
  <path d="M56.93 14.31 c0.11 -0.12 0.20 -0.28 0.20 -0.37 0 -0.21 0.40 -0.49 0.53 -0.36 0.06 0.06 0.18 0.10 0.27 0.10 0.14 0 0.18 0.08 0.18 0.34 0 0.39 -0.03 0.41 -0.81 0.47 l-0.56 0.04 0.20 -0.21z"/>
  <path d="M58.57 14.24 c0.17 -0.21 0.31 -0.86 0.19 -0.86 -0.39 0 1.24 -0.86 2.22 -1.17 0.39 -0.13 0.77 -0.02 0.87 0.23 0.07 0.16 -0.31 1.35 -0.48 1.52 -0.15 0.16 -1.55 0.37 -2.42 0.38 -0.37 0.01 -0.45 -0.02 -0.37 -0.11z"/>
 </g>
 <g fill="#dd5c17">
  <path d="M59.23 17.48 c0.03 -0.05 0.16 -0.15 0.27 -0.21 0.21 -0.12 0.21 -0.12 0.03 0.10 -0.19 0.21 -0.42 0.29 -0.30 0.11z"/>
  <path d="M57.98 16.83 c-0.58 -0.37 -0.70 -0.52 -0.98 -1.07 -0.30 -0.62 -0.31 -0.63 -0.13 -0.77 0.11 -0.08 0.33 -0.14 0.49 -0.14 0.17 0 1.06 -0.07 1.98 -0.17 0.93 -0.09 1.71 -0.15 1.73 -0.12 0.08 0.08 -0.15 1.21 -0.28 1.42 -0.08 0.12 -0.33 0.30 -0.57 0.42 -0.23 0.12 -0.61 0.36 -0.82 0.55 -0.22 0.19 -0.48 0.34 -0.59 0.33 -0.10 0 -0.48 -0.21 -0.84 -0.45z"/>
  <path d="M60.99 16.24 c0.15 -0.31 0.24 -0.41 0.24 -0.23 0 0.05 -0.09 0.19 -0.20 0.31 l-0.21 0.23 0.16 -0.31z"/>
  <path d="M65.97 15.33 c0.03 -0.24 0.18 -0.78 0.32 -1.20 0.23 -0.68 0.28 -0.76 0.50 -0.73 0.18 0.02 0.27 0.13 0.36 0.40 0.12 0.32 0.11 0.39 -0.04 0.55 -0.79 0.85 -0.98 1.06 -1.08 1.23 -0.10 0.17 -0.11 0.13 -0.06 -0.24z"/>
  <path d="M58.01 14.17 c0 -0.18 -0.04 -0.21 -0.20 -0.18 -0.11 0.03 -0.29 -0.03 -0.41 -0.13 l-0.21 -0.17 0.31 -0.17 c0.17 -0.09 0.39 -0.16 0.49 -0.16 0.17 0 0.19 0.06 0.14 0.47 -0.05 0.50 -0.12 0.67 -0.12 0.32z"/>
 </g>
 <g fill="#ba6f27">
  <path d="M45.97 22.60 c-0.19 -0.20 3.70 -4.34 4.06 -4.34 0.18 0 0.19 0.06 0.15 1.02 l-0.03 1.01 -0.73 0.85 c-0.40 0.47 -0.84 1.01 -0.98 1.18 l-0.24 0.33 -1.08 0.01 c-0.60 0 -1.11 -0.03 -1.14 -0.06z"/>
  <path d="M62.01 21.60 c0 -0.04 0.41 -0.47 0.91 -0.97 0.87 -0.85 1.25 -1.08 1.51 -0.92 0.10 0.06 -0.03 0.21 -0.44 0.57 -1.34 1.13 -1.98 1.57 -1.98 1.32z"/>
  <path d="M62.65 20.31 c0.48 -0.48 0.94 -0.88 1.03 -0.88 0.08 0 -0.25 0.40 -0.73 0.88 -0.48 0.49 -0.94 0.88 -1.03 0.88 -0.08 0 0.25 -0.39 0.73 -0.88z"/>
  <path d="M64.48 19.21 c-0.23 -0.17 -0.42 -0.35 -0.42 -0.42 0 -0.06 0.24 -0.31 0.55 -0.57 0.52 -0.42 0.59 -0.45 1.11 -0.45 0.87 0 1.05 0.12 0.70 0.47 -0.32 0.31 -1.46 1.29 -1.49 1.28 -0.02 0 -0.22 -0.15 -0.45 -0.31z"/>
 </g>
 <g fill="#60c634">
  <path d="M48.83 22.60 c0 -0.16 1.14 -1.40 1.30 -1.40 0.15 -0.01 0.17 0.09 0.17 0.72 l0 0.73 -0.73 0 c-0.40 0 -0.73 -0.03 -0.73 -0.06z"/>
  <path d="M45.31 12.91 c0 -0.11 -0.10 -0.26 -0.21 -0.37 -0.25 -0.22 -0.57 -0.88 -0.58 -1.20 0 -0.19 0.04 -0.21 0.22 -0.18 0.12 0.03 0.72 0.09 1.34 0.13 0.62 0.04 1.22 0.10 1.35 0.13 0.23 0.07 0.22 0.08 -0.19 0.41 -0.47 0.38 -1.78 1.26 -1.88 1.26 -0.03 0 -0.06 -0.08 -0.06 -0.18z"/>
 </g>
 <g fill="#476cc4">
  <path d="M52.93 22.31 c0 -0.09 0.09 -0.15 0.21 -0.15 0.18 0 0.19 0.02 0.09 0.15 -0.07 0.08 -0.16 0.15 -0.21 0.15 -0.05 0 -0.09 -0.07 -0.09 -0.15z"/>
  <path d="M53.55 21.54 c0.01 -0.21 -0.05 -0.46 -0.16 -0.63 -0.13 -0.20 -0.18 -0.22 -0.18 -0.09 0 0.24 -0.19 0.21 -0.25 -0.07 -0.09 -0.37 -0.01 -0.89 0.16 -0.92 0.09 -0.01 0.28 0.19 0.47 0.45 0.28 0.42 0.32 0.55 0.29 1.01 -0.02 0.40 -0.07 0.54 -0.20 0.56 -0.14 0.03 -0.17 -0.03 -0.14 -0.31z"/>
  <path d="M59.31 17.43 c0.16 -0.14 0.32 -0.21 0.38 -0.19 0.13 0.09 -0.10 0.29 -0.41 0.37 l-0.24 0.07 0.27 -0.25z"/>
  <path d="M60.67 17.31 c-0.19 -0.07 -0.16 -0.29 0.09 -0.52 0.12 -0.11 0.19 -0.22 0.15 -0.26 -0.04 -0.03 0.04 -0.24 0.17 -0.46 0.13 -0.22 0.26 -0.54 0.29 -0.71 0.04 -0.17 0.14 -0.33 0.21 -0.36 0.12 -0.05 0.14 0.04 0.11 0.48 -0.03 0.43 -0.11 0.64 -0.42 1.09 -0.21 0.31 -0.41 0.59 -0.46 0.60 -0.04 0.02 -0.05 0.08 -0.01 0.13 0.06 0.10 0.05 0.10 -0.13 0.02z"/>
  <path d="M61.85 15.09 l0.02 -0.44 0.37 0 c0.41 0 0.41 0.01 0 0.57 -0.32 0.42 -0.41 0.39 -0.39 -0.13z"/>
  <path d="M65.03 15.10 l-0.35 -0.33 0.43 -0.37 c0.86 -0.75 0.94 -0.72 0.66 0.22 -0.13 0.41 -0.25 0.76 -0.30 0.78 -0.05 0.01 -0.24 -0.13 -0.44 -0.30z"/>
  <path d="M62.16 12.08 c-0.16 -0.16 -0.75 -0.59 -1.32 -0.96 -0.57 -0.36 -1.26 -0.82 -1.53 -1.02 l-0.52 -0.35 0 -0.56 c0.01 -0.30 0.06 -0.64 0.13 -0.76 0.12 -0.21 0.14 -0.20 1 0.32 0.49 0.29 1.60 0.96 2.49 1.46 0.89 0.51 1.65 0.97 1.71 1.02 0.15 0.15 -0.63 0.87 -0.93 0.87 -0.14 0 -0.34 0.07 -0.45 0.15 -0.23 0.18 -0.22 0.18 -0.58 -0.18z"/>
 </g>
 <g fill="#7e8081">
  <path d="M45.83 19.85 c-0.07 -0.02 -0.13 -0.13 -0.13 -0.23 0 -0.10 -0.04 -0.19 -0.10 -0.19 -0.05 0 -0.10 -0.20 -0.10 -0.44 0 -0.24 0.05 -0.44 0.10 -0.44 0.06 0 0.10 -0.06 0.10 -0.12 0 -0.07 0.29 -0.59 0.64 -1.15 0.35 -0.57 0.91 -1.50 1.23 -2.10 0.85 -1.54 1.08 -1.89 1.26 -1.90 0.12 0 0.18 0.13 0.22 0.45 0.09 0.64 0.08 1.50 -0.02 1.50 -0.26 0 -0.51 0.45 -0.70 1.31 -0.21 0.89 -0.24 0.98 -1.09 2.16 -0.89 1.21 -1.02 1.32 -1.42 1.15z"/>
  <path d="M23.90 19.03 c-0.28 -0.99 -0.28 -1.14 -0.02 -1.96 0.15 -0.45 0.31 -0.87 0.37 -0.93 0.21 -0.28 0.51 -0.12 1.12 0.61 0.33 0.39 0.61 0.74 0.61 0.76 0 0.03 -0.18 -0.02 -0.39 -0.10 -0.49 -0.20 -0.55 -0.15 -1.07 0.83 -0.47 0.86 -0.57 0.99 -0.62 0.79z"/>
  <path d="M67.61 16.44 c-0.10 -0.03 -0.09 -0.11 0.02 -0.33 0.17 -0.31 0.35 -0.36 0.54 -0.14 0.10 0.13 0.10 0.19 -0.05 0.34 -0.18 0.20 -0.28 0.22 -0.51 0.13z"/>
  <path d="M26.60 14.51 c0.01 -0.08 0.05 -0.19 0.09 -0.21 0.04 -0.04 0.07 -0.17 0.07 -0.27 0 -0.19 0.48 -0.74 0.63 -0.74 0.03 0 0.06 0.11 0.06 0.23 0 0.15 -0.17 0.41 -0.43 0.69 -0.24 0.24 -0.42 0.39 -0.41 0.30z"/>
  <path d="M29.28 11.84 c-0.16 -0.09 -0.27 -0.20 -0.27 -0.22 0 -0.04 0.29 -0.19 0.65 -0.33 0.56 -0.21 0.68 -0.23 0.93 -0.14 0.15 0.06 0.27 0.15 0.27 0.20 0 0.06 -1.23 0.69 -1.31 0.67 0 0 -0.13 -0.08 -0.27 -0.18z"/>
  <path d="M42.15 7.99 c-0.03 -0.18 -0.08 -0.49 -0.11 -0.68 l-0.06 -0.37 0.74 0 c0.48 0 0.85 0.05 1.04 0.16 0.25 0.13 0.29 0.20 0.26 0.51 -0.03 0.36 -0.04 0.36 -0.66 0.53 -1 0.25 -1.14 0.23 -1.21 -0.14z"/>
 </g>
 <g fill="#868888">
  <path d="M44.53 22.14 c0 -0.08 -0.12 -0.21 -0.25 -0.31 -0.14 -0.09 -0.31 -0.31 -0.39 -0.50 l-0.14 -0.33 0.81 -1.09 c0.45 -0.61 0.99 -1.36 1.19 -1.66 0.41 -0.63 0.62 -0.74 0.40 -0.22 -0.09 0.20 -0.13 0.41 -0.10 0.48 0.03 0.07 -0.02 0.20 -0.10 0.28 -0.20 0.19 -0.21 0.40 -0.03 0.33 0.10 -0.04 0.13 0.02 0.09 0.20 -0.03 0.18 -0.01 0.23 0.07 0.19 0.06 -0.04 0.11 -0.01 0.11 0.06 0.01 0.08 0.06 0.06 0.15 -0.06 0.12 -0.16 0.12 -0.21 0.02 -0.27 -0.08 -0.05 -0.06 -0.08 0.07 -0.08 0.11 0 0.29 -0.10 0.42 -0.21 0.13 -0.12 0.24 -0.19 0.27 -0.17 0.05 0.06 -2.37 3.45 -2.50 3.49 -0.05 0.02 -0.09 -0.03 -0.09 -0.11z"/>
  <path d="M69.68 20.27 c-0.11 -0.09 -0.26 -0.16 -0.34 -0.16 -0.08 0 -0.39 -0.16 -0.68 -0.34 -0.34 -0.21 -0.58 -0.29 -0.63 -0.23 -0.06 0.05 -0.25 0.09 -0.44 0.09 l-0.35 0 0.88 -0.88 c0.48 -0.48 0.91 -0.88 0.95 -0.88 0.04 0 0.19 0.21 0.32 0.49 0.29 0.58 0.77 1.14 1.04 1.22 0.16 0.05 0.19 0.14 0.17 0.42 -0.03 0.33 -0.06 0.36 -0.37 0.39 -0.20 0.02 -0.43 -0.04 -0.54 -0.12z"/>
  <path d="M23.90 19.08 c-0.11 -0.11 0.05 -0.63 0.26 -0.87 0.12 -0.12 0.28 -0.33 0.38 -0.48 0.37 -0.55 0.36 -0.21 -0.03 0.51 -0.45 0.83 -0.52 0.93 -0.62 0.84z"/>
  <path d="M23.76 18.18 c-0.09 -0.06 -0.07 -0.11 0.06 -0.19 0.16 -0.10 0.18 -0.09 0.14 0.08 -0.03 0.10 -0.06 0.19 -0.07 0.19 0 0 -0.06 -0.04 -0.13 -0.08z"/>
  <path d="M24.12 16.48 c0 -0.37 0.08 -0.51 0.31 -0.60 0.19 -0.07 0.57 0.33 0.57 0.60 0 0.13 -0.02 0.13 -0.18 -0.01 -0.14 -0.13 -0.21 -0.14 -0.29 -0.05 -0.07 0.07 -0.12 0.18 -0.12 0.24 0 0.07 -0.07 0.13 -0.15 0.13 -0.10 0 -0.15 -0.10 -0.15 -0.31z"/>
  <path d="M25.71 13.77 c-0.19 -0.28 -0.16 -0.57 0.08 -0.68 0.34 -0.19 0.50 -0.05 0.46 0.41 -0.02 0.33 -0.07 0.43 -0.22 0.45 -0.12 0.01 -0.24 -0.06 -0.31 -0.18z"/>
  <path d="M27.15 13.60 c0.18 -0.60 0.30 -0.82 0.68 -1.20 0.45 -0.45 0.62 -0.46 0.66 -0.05 0.03 0.22 -0.07 0.38 -0.58 0.89 -0.68 0.68 -0.91 0.79 -0.77 0.36z"/>
  <path d="M36.78 9.80 c-0.10 -0.09 -0.16 -0.32 -0.16 -0.58 l0 -0.42 0.78 -0.30 c0.43 -0.17 1.17 -0.42 1.66 -0.57 0.49 -0.16 0.88 -0.33 0.88 -0.39 0 -0.31 0.43 0.08 0.45 0.41 0.01 0.11 0.04 0.39 0.08 0.63 l0.08 0.45 -0.53 0.13 c-0.28 0.08 -0.98 0.28 -1.54 0.46 -1.15 0.37 -1.47 0.40 -1.70 0.18z"/>
  <path d="M44.60 8.18 c-0.13 -0.20 -0.21 -0.22 -0.69 -0.20 -0.44 0.03 -0.55 0 -0.55 -0.12 0 -0.09 0.06 -0.16 0.14 -0.16 0.27 0 0.25 -0.19 -0.03 -0.34 -0.17 -0.08 -0.33 -0.15 -0.37 -0.14 -0.04 0.01 -0.26 0.01 -0.49 0 -0.35 -0.01 -0.42 -0.04 -0.42 -0.21 0 -0.14 0.11 -0.22 0.40 -0.31 0.38 -0.11 0.44 -0.10 0.94 0.17 0.87 0.45 1.40 0.84 1.54 1.13 0.20 0.36 0.19 0.38 -0.09 0.38 -0.13 0 -0.29 -0.10 -0.38 -0.21z"/>
 </g>
 <g fill="#888c91">
  <path d="M22.31 19.18 c-1.71 -0.62 -2.11 -0.78 -3.01 -1.23 -1.76 -0.87 -2.57 -1.55 -2.79 -2.39 -0.19 -0.66 0.24 -1.43 1.25 -2.18 0.35 -0.27 0.71 -0.49 0.80 -0.49 0.39 0 3.43 3.54 4.17 4.88 0.31 0.57 0.55 1.67 0.35 1.65 -0.05 0 -0.39 -0.11 -0.77 -0.24z"/>
  <path d="M79.80 17.31 c-0.45 -1.43 -0.86 -2.92 -1.13 -4.16 -0.26 -1.17 -0.31 -1.63 -0.17 -1.63 0.21 0 2.09 0.84 2.87 1.29 2.57 1.46 2.80 3 0.66 4.41 -0.57 0.38 -1.77 1.04 -1.89 1.04 -0.02 0 -0.18 -0.43 -0.34 -0.95z"/>
  <path d="M23.44 12.43 c-0.46 -0.02 -0.92 -0.05 -1.04 -0.08 -0.21 -0.05 -0.76 -0.78 -0.68 -0.92 0.03 -0.04 0.23 -0.13 0.47 -0.20 0.23 -0.07 0.51 -0.17 0.62 -0.21 0.47 -0.19 0.54 -0.19 0.68 0.03 0.09 0.12 0.33 0.45 0.54 0.74 0.38 0.52 0.47 0.71 0.32 0.67 -0.05 -0.01 -0.45 -0.03 -0.91 -0.05z"/>
 </g>
 <g fill="#909091">
  <path d="M43.75 21.09 c0 -0.10 0.09 -0.23 0.21 -0.29 0.11 -0.07 0.18 -0.14 0.15 -0.17 -0.06 -0.06 0.98 -1.45 1.30 -1.74 l0.21 -0.19 -0.10 0.27 c-0.16 0.39 -0.29 0.63 -0.48 0.83 -0.35 0.37 -0.49 0.59 -0.43 0.65 0.04 0.04 0.02 0.04 -0.04 0.01 -0.19 -0.11 -0.46 0.28 -0.39 0.57 0.06 0.21 0.03 0.24 -0.19 0.24 -0.18 0 -0.24 -0.05 -0.24 -0.20z"/>
  <path d="M70.43 20.69 c-0.23 -0.11 -0.45 -0.27 -0.48 -0.36 -0.03 -0.09 -0.13 -0.24 -0.21 -0.33 -0.18 -0.21 -0.05 -0.22 0.21 -0.03 0.28 0.21 0.39 0.06 0.15 -0.21 -0.12 -0.13 -0.19 -0.26 -0.16 -0.29 0.08 -0.08 2.31 1.03 2.31 1.14 0 0.09 -0.88 0.28 -1.20 0.27 -0.12 0 -0.40 -0.10 -0.63 -0.20z"/>
  <path d="M23.78 18.18 c-0.05 -0.04 -0.22 -0.32 -0.38 -0.63 -0.31 -0.63 -1.16 -1.81 -1.86 -2.58 -0.47 -0.52 -0.58 -0.78 -0.28 -0.66 0.10 0.04 0.46 0.14 0.81 0.21 1.54 0.36 1.63 0.40 2.20 0.98 0.56 0.57 0.63 0.71 0.40 0.71 -0.08 0 -0.25 0.39 -0.46 1.03 -0.21 0.62 -0.37 1 -0.43 0.95z"/>
  <path d="M75.05 15.21 c-0.05 -0.07 -0.16 -0.22 -0.22 -0.36 -0.12 -0.22 -0.18 -0.24 -0.84 -0.24 -0.69 0 -0.76 -0.02 -2.02 -0.66 -1.85 -0.94 -1.72 -0.80 -1.46 -1.63 0.12 -0.38 0.25 -0.71 0.30 -0.74 0.04 -0.02 0.47 0.11 0.94 0.28 0.47 0.19 1.23 0.43 1.69 0.55 1.22 0.32 1.33 0.37 1.67 0.90 0.33 0.52 0.45 1.11 0.34 1.69 -0.07 0.35 -0.22 0.44 -0.40 0.22z"/>
  <path d="M25.56 13.79 c-0.40 -0.41 -0.37 -0.53 0.16 -0.65 0.21 -0.06 0.25 -0.04 0.21 0.07 -0.03 0.07 0.04 0.23 0.15 0.35 0.17 0.18 0.19 0.25 0.10 0.41 -0.15 0.26 -0.20 0.25 -0.62 -0.18z"/>
  <path d="M27.09 13.79 c0.08 -0.16 0.12 -0.32 0.08 -0.36 -0.04 -0.05 -0.02 -0.06 0.03 -0.02 0.06 0.03 0.29 -0.11 0.53 -0.31 0.33 -0.28 0.43 -0.43 0.44 -0.69 0.02 -0.40 0.16 -0.47 0.40 -0.20 0.19 0.21 0.18 0.21 -0.55 0.94 -0.40 0.41 -0.80 0.78 -0.90 0.83 -0.17 0.10 -0.17 0.09 -0.03 -0.19z"/>
  <path d="M78.50 12.25 c-0.03 -0.05 -0.08 -0.21 -0.09 -0.38 -0.03 -0.21 0 -0.30 0.14 -0.32 0.12 -0.03 0.17 0.03 0.16 0.20 -0.01 0.30 -0.14 0.63 -0.21 0.51z"/>
  <path d="M70.33 10.44 c-0.71 -0.43 -0.80 -0.52 -0.80 -0.78 0 -0.21 0.05 -0.28 0.20 -0.28 0.25 0 2.45 0.47 2.52 0.54 0.07 0.07 -0.87 1.03 -1.01 1.03 -0.06 0 -0.47 -0.22 -0.91 -0.50z"/>
 </g>
 <g fill="#95f03e">
  <path d="M43.02 13 c-0.64 -0.30 -1.51 -0.66 -1.92 -0.80 -0.57 -0.18 -0.76 -0.27 -0.76 -0.40 0 -0.11 0.07 -0.18 0.18 -0.18 0.10 0 0.22 -0.05 0.27 -0.10 0.21 -0.21 1.48 -0.39 2.74 -0.39 l1.28 0 0.13 0.36 c0.06 0.20 0.29 0.55 0.51 0.78 0.46 0.50 0.42 0.61 -0.38 0.96 -0.81 0.36 -0.80 0.36 -2.04 -0.23z"/>
 </g>
 <g fill="#9d9e9d">
  <path d="M58.11 22.18 c0 -0.11 0.11 -0.32 0.24 -0.48 0.14 -0.17 0.27 -0.43 0.30 -0.60 0.10 -0.45 0.51 -0.42 1.12 0.10 0.39 0.33 0.48 0.46 0.48 0.72 0 0.39 -0.13 0.44 -1.29 0.44 -0.78 0 -0.86 -0.02 -0.86 -0.19z"/>
  <path d="M64.85 21.71 c0.08 -0.09 0.44 -0.42 0.81 -0.74 0.61 -0.52 0.70 -0.58 1.01 -0.53 0.19 0.04 0.41 0.15 0.51 0.25 0.09 0.10 0.29 0.21 0.45 0.22 0.23 0.02 0.30 0.08 0.32 0.29 0.03 0.23 0 0.26 -0.39 0.31 -0.23 0.03 -0.92 0.13 -1.52 0.21 -1.37 0.19 -1.35 0.19 -1.18 -0.02z"/>
  <path d="M73.54 11.89 c-1.01 -0.23 -1.10 -0.31 -0.78 -0.58 0.44 -0.34 1.36 -0.77 1.66 -0.77 0.30 0 1.01 0.30 1.12 0.49 0.10 0.16 -0.73 1.07 -0.97 1.06 -0.12 0 -0.58 -0.10 -1.04 -0.21z"/>
  <path d="M32.62 11.64 c0 -0.04 0.15 -0.21 0.33 -0.39 0.19 -0.18 0.42 -0.54 0.53 -0.81 l0.18 -0.50 1.22 -0.48 c0.79 -0.32 1.42 -0.51 1.80 -0.54 0.53 -0.05 0.57 -0.04 0.41 0.10 -0.30 0.24 -0.11 0.61 0.30 0.56 0.06 -0.01 0.12 0.07 0.12 0.17 0 0.15 -0.18 0.24 -0.80 0.45 -0.45 0.15 -1.27 0.49 -1.83 0.75 -0.56 0.26 -1.08 0.48 -1.18 0.48 -0.10 0 -0.22 0.07 -0.29 0.15 -0.13 0.15 -0.78 0.21 -0.78 0.07z"/>
  <path d="M42.42 10.54 c-0.05 -0.09 -0.23 -1.80 -0.23 -2.27 0 -0.21 0.04 -0.35 0.08 -0.32 0.05 0.03 0.23 0.01 0.42 -0.04 0.19 -0.05 0.59 -0.14 0.90 -0.20 0.42 -0.09 0.56 -0.15 0.52 -0.25 -0.07 -0.19 0.01 -0.18 0.36 0.08 0.81 0.56 0.90 0.92 0.54 2.29 l-0.21 0.82 -1.16 -0.02 c-0.63 -0.02 -1.17 -0.06 -1.20 -0.10z"/>
  <path d="M69.46 9.88 c-0.28 -0.19 -0.52 -0.41 -0.52 -0.49 0 -0.12 0.10 -0.13 0.52 -0.08 0.49 0.07 0.88 0.25 0.53 0.25 -0.21 0 -0.21 0.18 -0.01 0.40 0.27 0.30 0 0.26 -0.52 -0.09z"/>
  <path d="M41.97 6.88 c-0.04 -0.33 -0.03 -0.34 0.31 -0.34 0.58 0 0.79 0.36 0.34 0.57 -0.45 0.21 -0.61 0.15 -0.65 -0.22z"/>
 </g>
 <g fill="#27c4f8">
  <path d="M39.01 13.84 c-1.13 -0.37 -2.07 -0.69 -2.09 -0.72 -0.11 -0.09 0.27 -0.30 0.82 -0.46 0.32 -0.10 1.06 -0.37 1.64 -0.62 l1.05 -0.44 0.85 0.27 c0.81 0.26 2.96 1.21 3.22 1.43 0.15 0.13 -0.35 0.37 -1.24 0.63 -0.30 0.09 -0.88 0.26 -1.28 0.39 -0.40 0.13 -0.77 0.22 -0.83 0.22 -0.05 -0.01 -1.02 -0.32 -2.15 -0.70z"/>
 </g>
 <g fill="#a9aaa9">
  <path d="M55.66 21.92 c0 -0.49 0.16 -0.63 0.67 -0.63 0.28 0 0.30 0.02 0.30 0.38 0 0.62 -0.07 0.69 -0.55 0.69 l-0.43 0 0 -0.44z"/>
  <path d="M58.24 22 c0.21 -1.45 0.18 -1.35 0.54 -1.38 0.39 -0.04 0.46 0.02 0.55 0.47 l0.07 0.34 -0.21 -0.20 -0.22 -0.20 0.05 0.22 c0.04 0.12 0.02 0.21 -0.04 0.21 -0.05 0 -0.08 0.05 -0.06 0.11 0.04 0.11 -0.54 0.77 -0.65 0.77 -0.04 0 -0.05 -0.17 -0.01 -0.36z"/>
  <path d="M59.24 22.28 c-0.47 -0.06 -0.47 -0.06 -0.27 -0.24 0.15 -0.13 0.31 -0.17 0.60 -0.14 0.37 0.03 0.38 0.02 0.23 -0.14 -0.15 -0.17 -0.14 -0.18 0.10 -0.18 0.23 0 0.26 0.04 0.26 0.33 0 0.30 -0.16 0.49 -0.37 0.43 -0.04 0 -0.28 -0.04 -0.55 -0.07z"/>
  <path d="M64.94 21.75 c0 -0.02 0.14 -0.16 0.30 -0.32 0.25 -0.24 0.29 -0.25 0.26 -0.09 -0.02 0.16 0.03 0.21 0.29 0.22 0.51 0.05 0.25 0.21 -0.33 0.21 -0.29 0 -0.53 -0.01 -0.53 -0.03z"/>
  <path d="M67.61 21.37 c0.01 -0.06 -0.11 -0.13 -0.25 -0.14 -0.16 -0.02 -0.35 -0.11 -0.44 -0.21 -0.25 -0.28 -0.51 -0.33 -0.77 -0.16 -0.14 0.08 -0.27 0.13 -0.30 0.09 -0.07 -0.07 0.22 -0.34 1.54 -1.46 l0.74 -0.62 0.30 0.25 c0.28 0.23 0.66 0.45 1.43 0.80 0.27 0.13 0.35 0.28 0.15 0.28 -0.07 0 -0.38 0.21 -0.69 0.47 -0.32 0.25 -0.71 0.54 -0.88 0.63 -0.36 0.21 -0.86 0.23 -0.82 0.06z"/>
  <path d="M78.24 18.76 c0.25 -0.31 0.39 -0.38 0.66 -0.38 0.19 -0.01 0.43 0.03 0.53 0.07 0.22 0.09 0.24 0.08 -0.85 0.46 l-0.67 0.22 0.33 -0.37z"/>
  <path d="M48.77 14.49 c0 -0.54 -0.05 -0.86 -0.12 -0.91 -0.15 -0.09 0.97 -1.91 1.17 -1.91 0.20 0 0.48 0.97 0.53 1.86 l0.06 0.78 -0.77 0.52 c-0.42 0.27 -0.78 0.51 -0.81 0.51 -0.03 0 -0.05 -0.38 -0.06 -0.84z"/>
  <path d="M63.45 13.46 c0.17 -0.18 0.33 -0.41 0.36 -0.52 0.03 -0.12 0.30 -0.44 0.60 -0.73 0.51 -0.50 0.54 -0.52 0.80 -0.40 l0.27 0.13 -0.54 0.48 c-0.29 0.27 -0.74 0.68 -1 0.93 -0.56 0.52 -0.98 0.62 -0.50 0.12z"/>
  <path d="M68.95 9.52 c-0.33 -0.24 -0.32 -0.28 0.05 -0.24 0.21 0.02 0.54 0.27 0.54 0.41 0 0.15 -0.25 0.08 -0.59 -0.17z"/>
  <path d="M42.48 6.98 c-0.06 -0.08 -0.18 -0.11 -0.24 -0.09 -0.15 0.06 -0.34 -0.23 -0.34 -0.50 0 -0.21 0.22 -0.16 1.08 0.23 0.50 0.23 0.58 0.29 0.36 0.29 -0.15 0.01 -0.37 0.05 -0.51 0.10 -0.18 0.07 -0.27 0.06 -0.35 -0.04z"/>
 </g>
 <g fill="#b8b8b7">
  <path d="M43.49 22.49 c-0.57 -0.04 -0.62 -0.06 -0.62 -0.26 0 -0.60 1.20 -1.04 1.76 -0.64 0.19 0.14 0.26 0.25 0.22 0.38 -0.07 0.27 -0.40 0.60 -0.60 0.58 -0.09 -0.01 -0.44 -0.03 -0.77 -0.05z"/>
  <path d="M55.76 22.17 c0 -0.21 0.04 -0.39 0.09 -0.39 0.05 0 0.13 -0.12 0.19 -0.26 0.13 -0.38 1.80 -1.30 2.34 -1.30 0.45 0 0.70 0.22 0.70 0.63 0 0.22 -0.02 0.25 -0.15 0.15 -0.08 -0.07 -0.15 -0.11 -0.16 -0.09 -0.07 0.39 -0.06 0.64 0.04 0.76 0.09 0.12 0.09 0.13 -0.01 0.07 -0.08 -0.05 -0.17 0.04 -0.26 0.27 -0.17 0.39 -0.21 0.41 -1.78 0.50 l-1.01 0.06 0 -0.40z m0.53 -0.25 c0.11 -0.27 0.07 -0.34 -0.14 -0.23 -0.22 0.12 -0.26 0.39 -0.06 0.39 0.08 0 0.17 -0.07 0.20 -0.16z"/>
  <path d="M59.25 22.29 c-0.60 -0.05 -0.50 -0.22 0.12 -0.22 0.52 0 0.64 -0.07 0.49 -0.26 -0.09 -0.10 -0.06 -0.13 0.15 -0.13 0.21 0 0.25 0.04 0.25 0.28 0 0.21 -0.06 0.29 -0.21 0.34 -0.13 0.03 -0.24 0.05 -0.27 0.04 -0.03 -0.01 -0.25 -0.03 -0.52 -0.05z"/>
  <path d="M73.08 17.36 c-0.27 -0.31 -0.19 -0.54 0.49 -1.27 0.30 -0.34 0.78 -0.86 1.04 -1.15 0.45 -0.50 0.49 -0.52 0.55 -0.32 0.03 0.13 0.10 0.20 0.15 0.17 0.10 -0.06 0.12 0.94 0.03 1.68 l-0.06 0.50 -0.95 0.30 c-0.52 0.18 -0.97 0.31 -1 0.31 -0.03 0 -0.15 -0.10 -0.25 -0.21z"/>
  <path d="M70.84 15.40 c-0.79 -0.63 -0.74 -0.52 -0.63 -1.54 0.16 -1.32 0.15 -1.31 0.48 -1.07 0.44 0.32 2.47 1.35 2.92 1.48 0.26 0.08 0.41 0.18 0.41 0.27 0 0.10 -0.40 0.38 -0.98 0.72 -1.19 0.69 -1.48 0.71 -2.21 0.14z"/>
  <path d="M50.13 13.62 c0.04 -0.11 0.02 -0.37 -0.04 -0.59 -0.05 -0.21 -0.11 -0.46 -0.12 -0.54 -0.02 -0.08 -0.10 -0.28 -0.20 -0.46 -0.10 -0.20 -0.13 -0.33 -0.07 -0.37 0.18 -0.11 0.28 0.05 0.43 0.57 0.26 0.93 0.28 1.29 0.10 1.45 -0.15 0.12 -0.16 0.12 -0.11 -0.06z"/>
  <path d="M32.79 11.75 c-0.23 -0.06 -0.22 -0.16 0.04 -0.38 0.13 -0.12 0.18 -0.13 0.13 -0.04 -0.05 0.09 0.01 0.07 0.14 -0.05 0.31 -0.27 0.69 -0.27 0.69 0.01 0 0.12 -0.06 0.26 -0.13 0.32 -0.17 0.13 -0.63 0.21 -0.87 0.14z"/>
  <path d="M37.77 11.47 c-0.26 -0.15 -0.80 -0.98 -0.91 -1.43 -0.06 -0.25 -0.04 -0.27 0.85 -0.56 0.92 -0.30 2.61 -0.80 2.71 -0.80 0.08 0 0.29 0.91 0.29 1.23 0 0.25 -0.11 0.40 -0.43 0.58 -0.10 0.06 -0.23 0.25 -0.29 0.44 -0.08 0.23 -0.21 0.39 -0.45 0.51 -0.42 0.21 -1.42 0.22 -1.78 0.03z"/>
  <path d="M42.48 10.40 c0 -0.21 0.03 -0.23 0.39 -0.21 0.38 0.03 0.68 0.20 0.68 0.36 0 0.05 -0.24 0.09 -0.54 0.09 -0.51 0 -0.54 -0.01 -0.54 -0.24z"/>
  <path d="M36.19 8.40 c-0.33 -0.83 -0.45 -1.46 -0.27 -1.46 0.37 0 2.26 -0.42 2.78 -0.63 0.37 -0.15 0.70 -0.23 0.75 -0.21 0.05 0.03 0.19 0.31 0.30 0.63 0.12 0.32 0.27 0.63 0.34 0.69 0.08 0.06 0.14 0.21 0.14 0.32 -0.01 0.18 -0.21 0.27 -1.49 0.70 -0.82 0.27 -1.64 0.58 -1.85 0.65 l-0.35 0.16 -0.35 -0.87z"/>
 </g>
 <g fill="#c3c3c3">
  <path d="M42.73 22.30 c-0.04 -0.10 0.04 -0.25 0.21 -0.41 0.15 -0.15 0.43 -0.46 0.63 -0.70 0.35 -0.41 0.38 -0.43 0.48 -0.24 0.06 0.11 0.25 0.33 0.44 0.51 l0.32 0.31 -0.36 0 c-0.78 0.02 -1.14 0.17 -1.25 0.50 -0.08 0.23 -0.39 0.26 -0.48 0.04z"/>
  <path d="M59.42 22.27 c-0.27 -0.07 -0.26 -0.08 0.14 -0.09 0.38 -0.01 0.42 -0.03 0.37 -0.21 -0.05 -0.18 -0.01 -0.20 0.25 -0.17 0.23 0.02 0.32 0.08 0.34 0.25 0.03 0.17 -0.01 0.21 -0.20 0.21 -0.13 0 -0.31 0.02 -0.42 0.04 -0.11 0.02 -0.32 0.01 -0.49 -0.04z"/>
  <path d="M28.76 18.34 c-0.43 -0.21 -0.79 -0.40 -0.80 -0.41 -0.06 -0.06 -0.32 -1.61 -0.32 -1.91 0 -0.50 0.59 -1.07 1.09 -1.07 0.31 0 0.43 0.08 1.04 0.74 0.69 0.74 0.69 0.74 0.69 1.31 0 0.30 -0.03 0.83 -0.06 1.16 l-0.07 0.60 -0.40 0 c-0.26 -0.01 -0.65 -0.14 -1.18 -0.41z"/>
  <path d="M71.48 15.94 c-0.46 -0.41 -0.48 -0.51 -0.09 -0.51 0.75 0.01 0.73 -0.02 0.59 0.63 l-0.06 0.27 -0.44 -0.39z"/>
  <path d="M70.37 15.03 c-0.28 -0.22 -0.32 -0.53 -0.10 -0.82 0.15 -0.19 0.15 -0.18 0.10 0.15 -0.04 0.29 -0.01 0.38 0.19 0.53 0.24 0.19 0.32 0.35 0.16 0.35 -0.04 0 -0.20 -0.09 -0.34 -0.21z"/>
  <path d="M37.80 11.76 c-0.12 -0.15 -0.21 -0.40 -0.21 -0.60 l0 -0.33 0.24 0.19 c0.15 0.12 0.33 0.18 0.47 0.15 0.18 -0.04 0.19 -0.03 0.07 0.06 -0.12 0.08 -0.04 0.11 0.32 0.11 0.39 0 0.52 -0.05 0.76 -0.28 0.19 -0.19 0.26 -0.34 0.22 -0.45 -0.06 -0.16 0.31 -0.52 0.48 -0.46 0.04 0.01 0.07 -0.05 0.07 -0.14 0 -0.08 0.05 -0.12 0.11 -0.08 0.08 0.04 0.10 -0.11 0.06 -0.50 -0.04 -0.46 -0.02 -0.54 0.09 -0.42 0.11 0.11 0.48 1.74 0.41 1.79 -0.42 0.25 -0.93 0.50 -1.66 0.77 -0.50 0.19 -0.98 0.36 -1.06 0.40 -0.11 0.04 -0.23 -0.03 -0.37 -0.21z"/>
  <path d="M42.87 10.48 c0 -0.05 0.04 -0.14 0.09 -0.21 0.08 -0.12 0.13 -0.12 0.34 0.03 0.33 0.21 0.32 0.25 -0.09 0.25 -0.19 0 -0.34 -0.03 -0.34 -0.07z"/>
 </g>
 <g fill="#d6d6d6">
  <path d="M47.66 92.62 c-4.65 -0.31 -7.46 -0.70 -10.64 -1.50 -4.30 -1.07 -7.06 -2.44 -9.01 -4.46 -1.88 -1.94 -2.52 -3.56 -3.19 -8.18 -0.24 -1.68 -1.40 -10.34 -3.17 -23.97 -0.29 -2.29 -0.80 -6.15 -1.12 -8.59 -0.32 -2.44 -0.78 -5.98 -1.03 -7.86 -0.24 -1.88 -0.65 -5.02 -0.92 -6.98 -1.18 -8.84 -1.50 -11.43 -1.45 -11.48 0.03 -0.03 0.49 0.16 1.02 0.43 4.70 2.41 13.87 4.22 24.88 4.90 4.29 0.27 12.06 0.22 16.46 -0.10 9.48 -0.70 17.69 -2.43 22.20 -4.70 0.63 -0.31 1.18 -0.58 1.23 -0.58 0.04 0 0.02 0.43 -0.05 0.96 -0.13 0.99 -0.60 4.50 -1.60 12.03 -0.97 7.29 -1.73 13.07 -2.10 15.97 -0.20 1.50 -0.59 4.54 -0.88 6.74 -0.29 2.21 -0.64 4.86 -0.77 5.91 -1.52 11.95 -2.49 18.86 -2.83 20.41 -0.89 3.90 -2.89 6.21 -6.99 8.06 -4.28 1.92 -11.20 3.12 -17.72 3.06 -1.02 -0.01 -2.05 -0.03 -2.29 -0.04z"/>
  <path d="M45.02 24.32 c-6.99 -0.30 -14.65 -1.30 -19.68 -2.55 -3.99 -1 -6.96 -2.19 -8.73 -3.51 -1.04 -0.77 -1.12 -0.88 -0.93 -1.15 0.08 -0.12 0.21 -0.21 0.27 -0.21 0.08 0 0.17 -0.07 0.20 -0.16 0.05 -0.14 0.16 -0.07 0.55 0.31 2.68 2.63 10.51 4.69 21.92 5.75 7.74 0.72 16.90 0.68 24.80 -0.10 8.82 -0.88 16.46 -2.92 19.38 -5.18 0.82 -0.64 1.07 -0.64 1.07 -0.01 0 0.39 -0.03 0.44 -0.56 0.83 -1.17 0.87 -2.90 1.68 -5.31 2.49 -5.19 1.74 -11.62 2.82 -20.25 3.39 -2.07 0.13 -10.34 0.20 -12.74 0.09z"/>
  <path d="M68.21 21.04 c0.55 -0.50 1.37 -1.12 1.47 -1.12 0.14 0 1.80 0.82 1.80 0.89 0 0.08 -2.29 0.48 -3.08 0.55 l-0.59 0.04 0.39 -0.35z"/>
  <path d="M40.26 19.79 c-0.82 -1.12 -1.10 -1.58 -1.10 -1.80 0 -0.22 0.18 -0.49 0.73 -1.13 0.40 -0.46 0.82 -0.88 0.94 -0.94 0.48 -0.26 2.31 -0.57 2.55 -0.43 0.09 0.05 0.42 0.40 0.75 0.78 0.96 1.12 0.94 1.18 -1.19 3.96 -0.78 1.03 -0.81 1.05 -1.19 1.05 l-0.39 0 -1.09 -1.49z"/>
  <path d="M60.79 20.61 c-0.20 -0.21 -0.24 -0.32 -0.18 -0.41 0.06 -0.07 0.14 -0.27 0.18 -0.44 0.06 -0.27 0.11 -0.32 0.36 -0.32 l0.29 0 -0.06 0.47 c-0.11 0.73 -0.17 1 -0.24 1 -0.04 0 -0.20 -0.13 -0.35 -0.29z"/>
  <path d="M28.73 19.15 c-0.65 -0.32 -1.19 -0.63 -1.19 -0.67 0 -0.05 0.07 -0.28 0.15 -0.51 0.08 -0.22 0.15 -0.52 0.15 -0.64 0 -0.33 0.26 -0.29 0.34 0.04 0.05 0.22 0.21 0.34 0.88 0.68 0.46 0.22 0.88 0.41 0.93 0.41 0.06 0 0.10 -0.15 0.10 -0.31 0.01 -0.86 0.35 -1.07 0.41 -0.24 0.03 0.38 -0.02 0.63 -0.18 0.95 -0.12 0.24 -0.24 0.54 -0.29 0.66 -0.09 0.22 -0.09 0.22 -1.29 -0.36z"/>
  <path d="M72.24 16.57 l-0.87 -0.80 1.15 -0.67 c1.44 -0.84 2.25 -1.05 2.54 -0.66 0.25 0.33 0.20 0.44 -1.20 1.96 -0.34 0.36 -0.62 0.73 -0.62 0.82 0 0.09 -0.03 0.17 -0.07 0.17 -0.05 0 -0.47 -0.36 -0.94 -0.81z"/>
  <path d="M34.77 12.29 c-0.66 -0.10 -1.85 -0.50 -1.87 -0.63 -0.04 -0.24 2.34 -1.42 3.80 -1.87 0.41 -0.13 0.42 -0.13 0.51 0.12 0.18 0.46 0.90 1.61 1.10 1.75 0.20 0.14 0.20 0.15 -0.14 0.28 -0.91 0.38 -2.27 0.52 -3.41 0.34z"/>
  <path d="M39 11.53 c0.11 -0.12 0.29 -0.26 0.41 -0.33 0.12 -0.07 0.42 -0.24 0.66 -0.40 0.57 -0.34 0.78 -0.37 0.82 -0.10 0.03 0.18 -0.10 0.25 -0.83 0.54 -0.47 0.19 -0.88 0.33 -0.91 0.33 -0.03 0 -0.12 0.04 -0.20 0.09 -0.09 0.06 -0.07 0 0.04 -0.13z"/>
  <path d="M31.21 10.82 c-0.70 -0.53 -0.80 -0.55 -1.53 -0.23 -0.11 0.05 -0.30 -0.14 -0.73 -0.67 -0.31 -0.41 -0.58 -0.80 -0.58 -0.86 0 -0.20 1.32 -0.75 2.39 -1 0.29 -0.07 0.71 -0.20 0.93 -0.28 0.21 -0.08 0.57 -0.16 0.78 -0.16 0.21 0 0.57 -0.07 0.78 -0.15 0.21 -0.08 0.51 -0.15 0.65 -0.15 l0.27 0 -0.19 0.47 c-0.10 0.25 -0.39 1.03 -0.64 1.72 -0.73 2.03 -0.98 2.18 -2.14 1.31z"/>
  <path d="M33.54 10.35 c0.19 -0.63 0.69 -1.87 1.04 -2.54 0.22 -0.45 0.35 -0.60 0.57 -0.64 0.15 -0.03 0.39 -0.10 0.55 -0.15 0.39 -0.13 0.45 -0.12 0.45 0.09 0 0.09 0.18 0.58 0.38 1.07 0.38 0.91 0.38 0.91 0.18 1 -0.12 0.05 -0.81 0.31 -1.53 0.59 -0.91 0.35 -1.39 0.59 -1.54 0.76 l-0.21 0.26 0.14 -0.44z"/>
  <path d="M58.79 9.79 c-0.14 -0.10 -0.54 -0.36 -0.90 -0.60 -0.37 -0.24 -0.66 -0.46 -0.66 -0.49 0 -0.03 0.19 -0.28 0.40 -0.58 0.38 -0.48 0.42 -0.51 0.62 -0.39 0.12 0.07 0.41 0.25 0.66 0.41 l0.45 0.28 -0.15 0.28 c-0.09 0.18 -0.13 0.47 -0.11 0.76 0.01 0.26 0.01 0.48 -0.02 0.47 -0.03 0 -0.16 -0.07 -0.29 -0.16z"/>
 </g>
 <g fill="#f9f9f8">
  <path d="M45.95 94.41 c-2.98 -0.21 -6.60 -0.78 -9.31 -1.45 -6.30 -1.56 -10.05 -3.98 -11.97 -7.71 -0.77 -1.50 -1.16 -2.81 -1.51 -5.13 -0.27 -1.78 -2.36 -17.41 -3.66 -27.49 -0.40 -3.09 -1.06 -8.14 -1.46 -11.23 -1.33 -10.16 -2.19 -16.70 -2.65 -20.11 -0.24 -1.85 -0.42 -3.38 -0.40 -3.41 0.03 -0.02 0.35 0.21 0.71 0.51 l0.66 0.55 0.57 4.18 c0.31 2.29 0.78 5.84 1.04 7.88 0.27 2.04 0.71 5.36 0.98 7.37 0.66 5.08 0.89 6.80 1.56 12.01 0.32 2.50 0.81 6.19 1.07 8.20 0.26 2.01 0.80 6.04 1.18 8.94 0.38 2.90 0.82 6.24 0.98 7.42 0.41 3.13 0.77 5.57 0.93 6.35 0.94 4.54 3.39 7.27 8.31 9.22 3.09 1.22 6.88 2.01 12.24 2.57 1.93 0.21 8.75 0.17 10.60 -0.05 3.68 -0.44 5.99 -0.87 8.53 -1.59 5.18 -1.48 8.30 -3.63 9.88 -6.77 0.72 -1.45 1.01 -2.45 1.41 -5.09 0.31 -2.04 1.63 -11.92 3.04 -22.85 1.11 -8.64 3.12 -23.83 3.96 -30.03 0.26 -1.98 0.61 -4.53 0.74 -5.66 0.23 -1.81 0.29 -2.07 0.47 -2.20 0.12 -0.08 0.41 -0.34 0.67 -0.58 0.25 -0.23 0.49 -0.41 0.52 -0.37 0.03 0.03 -0.30 2.74 -0.74 6.04 -0.44 3.29 -1.04 7.83 -1.33 10.09 -0.29 2.26 -0.75 5.73 -1.02 7.71 -0.60 4.47 -1.53 11.60 -2.10 16.06 -0.47 3.64 -1.64 12.62 -2.35 17.87 -0.79 5.91 -1.10 7.42 -1.88 9.11 -1.09 2.35 -3.19 4.48 -5.78 5.86 -3.70 1.96 -9.29 3.32 -15.55 3.77 -1.67 0.13 -6.63 0.12 -8.33 -0.01z"/>
  <path d="M50.79 21.19 c-0.08 -0.88 -0.10 -1.89 -0.06 -2.53 0.06 -0.92 0.05 -1.10 -0.10 -1.36 -0.18 -0.28 -0.17 -0.30 0.11 -1.05 0.26 -0.70 0.28 -0.87 0.27 -1.99 -0.02 -1.86 -0.34 -2.93 -1.09 -3.65 l-0.30 -0.27 -0.35 0.70 c-0.20 0.40 -0.60 1.09 -0.88 1.55 -0.27 0.46 -0.80 1.38 -1.15 2.02 -1.25 2.31 -2.89 4.80 -4.40 6.68 -0.37 0.46 -0.69 0.89 -0.71 0.96 -0.12 0.29 -0.43 0.06 -1.17 -0.88 -1.69 -2.16 -2.77 -3.23 -4.91 -4.88 -1.09 -0.84 -3.29 -2.33 -4.68 -3.17 -0.62 -0.37 -1.14 -0.73 -1.16 -0.79 -0.02 -0.06 0.26 -0.26 0.63 -0.45 0.64 -0.32 0.68 -0.32 1.01 -0.19 0.84 0.35 2.54 0.89 3.03 0.96 0.29 0.04 0.76 0.20 1.04 0.35 0.46 0.25 4.51 1.69 5.15 1.82 0.19 0.04 0.68 -0.08 1.42 -0.31 3.04 -0.97 4.09 -1.50 5.29 -2.69 0.63 -0.61 0.74 -0.94 0.37 -1.03 -0.25 -0.06 -2.25 -0.24 -2.61 -0.24 -0.28 0 -0.26 -0.17 0.18 -1.37 0.36 -0.99 0.41 -1.92 0.14 -2.17 -0.44 -0.39 -5.10 -2.23 -5.63 -2.23 -0.17 0 -1.08 0.26 -2.03 0.60 -1.29 0.44 -1.84 0.58 -2.15 0.56 l-0.42 -0.03 0.93 -0.77 c1.08 -0.90 1.66 -1.44 1.66 -1.53 0 -0.04 -0.08 -0.10 -0.17 -0.13 -0.11 -0.04 -0.26 0.04 -0.46 0.22 -0.43 0.40 -1.61 1.28 -1.73 1.28 -0.07 0 -0.08 -0.20 -0.04 -0.51 0.06 -0.58 -0.03 -0.80 -0.30 -0.74 -0.16 0.03 -0.20 0.15 -0.23 0.71 l-0.05 0.68 -0.54 0.07 c-0.82 0.12 -2.27 0.45 -3.54 0.82 -1.97 0.58 -6.12 2.29 -6.12 2.55 0 0.14 1.11 1.67 1.31 1.81 0.06 0.04 0.15 0.03 0.20 -0.02 0.06 -0.06 -0.09 -0.37 -0.41 -0.84 -0.28 -0.41 -0.51 -0.77 -0.51 -0.81 0 -0.11 2.53 -1.16 4.15 -1.72 1.31 -0.46 3.76 -1.09 4.91 -1.27 0.40 -0.07 0.42 -0.06 0.32 0.11 -0.27 0.48 -0.38 0.53 -1.80 0.82 -0.78 0.17 -1.72 0.38 -2.09 0.50 -1.57 0.48 -3.54 1.28 -3.54 1.44 0 0.11 0.25 0.44 1.01 1.33 l0.57 0.66 -1.84 0.91 c-1.01 0.50 -1.87 0.88 -1.90 0.86 -0.16 -0.09 -2.42 -3.58 -2.42 -3.74 0 -0.22 0.43 -0.84 0.80 -1.15 0.18 -0.15 0.75 -0.44 1.29 -0.66 2.17 -0.88 2.67 -1.10 3.13 -1.39 0.69 -0.43 5.10 -1.68 5.91 -1.68 0.11 0 0.52 -0.13 0.91 -0.29 0.38 -0.16 0.89 -0.33 1.11 -0.39 0.39 -0.10 0.66 -0.35 1.13 -1.02 0.21 -0.30 0.48 -0.32 1.11 -0.07 0.25 0.10 0.63 0.21 0.84 0.24 0.20 0.04 0.36 0.11 0.36 0.16 0 0.04 1.20 0.67 2.67 1.41 2.81 1.40 4.49 2.30 4.79 2.60 0.12 0.12 0.21 0.38 0.24 0.82 0.10 0.94 0.25 0.98 0.61 0.16 0.25 -0.61 0.73 -0.93 1.72 -1.18 1.03 -0.25 1.16 -0.24 1.41 0.14 0.18 0.27 0.20 0.41 0.14 1.07 -0.03 0.41 -0.01 0.83 0.04 0.93 0.15 0.26 3.41 3.46 4.11 4.02 0.35 0.28 0.73 0.63 0.86 0.76 l0.22 0.24 -0.38 0.40 c-0.21 0.22 -0.60 0.66 -0.86 1 -0.26 0.32 -0.92 1.11 -1.46 1.76 -1.35 1.60 -1.31 1.53 -1.31 2.33 -0.01 0.95 -0.15 2.45 -0.30 3.11 l-0.12 0.56 -0.51 0 -0.51 0 -0.12 -1.46z m-8.14 -1.26 c1.07 -1.41 1.79 -2.42 1.79 -2.56 0 -0.12 -1.12 -1.46 -1.33 -1.58 -0.13 -0.07 -0.65 0.03 -1.60 0.31 -0.47 0.14 -0.62 0.25 -1.29 1.03 l-0.76 0.86 0.30 0.41 c0.16 0.21 0.65 0.90 1.09 1.49 0.44 0.61 0.85 1.09 0.90 1.09 0.06 0 0.46 -0.47 0.90 -1.05z m5.79 -10.72 c0.21 -0.30 0.49 -0.76 0.62 -1.02 0.23 -0.51 0.32 -0.56 0.62 -0.33 0.28 0.21 0.43 0.18 0.43 -0.13 0 -0.28 -0.37 -0.71 -0.72 -0.84 -0.21 -0.07 -0.48 0.11 -0.39 0.25 0.03 0.05 -0.23 0.61 -0.59 1.24 -0.35 0.63 -0.64 1.20 -0.64 1.27 0 0.26 0.31 0.06 0.68 -0.45z"/>
  <path d="M46.23 22.11 c0.98 -1.21 1.36 -1.60 1.55 -1.60 0.16 0 -0.02 0.23 -0.77 1.01 -1.07 1.10 -1.37 1.33 -0.78 0.60z"/>
  <path d="M55.21 21.94 c-0.34 -0.33 -0.62 -0.63 -0.62 -0.67 0 -0.03 0.34 -0.18 0.76 -0.31 0.41 -0.14 1.28 -0.54 1.92 -0.89 0.64 -0.35 1.20 -0.63 1.23 -0.63 0.07 0 0.70 0.52 2.06 1.70 0.73 0.63 0.76 0.67 0.63 0.88 -0.10 0.14 -0.26 0.21 -0.52 0.23 -0.36 0.02 -0.44 -0.03 -1.31 -0.85 -0.51 -0.49 -0.97 -0.88 -1.01 -0.89 -0.04 0 -0.61 0.29 -1.25 0.64 -1.04 0.58 -1.17 0.67 -1.11 0.86 0.21 0.70 -0.06 0.68 -0.80 -0.07z"/>
  <path d="M42.53 22.22 c0.34 -0.28 0.49 -0.30 0.58 -0.09 0.11 0.29 0.06 0.33 -0.40 0.33 l-0.47 -0.01 0.29 -0.23z"/>
  <path d="M62.74 21.99 c0.06 -0.05 0.59 -0.51 1.17 -1 1.68 -1.43 2.45 -2.11 3.69 -3.31 0.85 -0.83 1.17 -1.09 1.25 -1.02 0.07 0.07 0.09 0.22 0.05 0.36 -0.10 0.39 -2.17 2.40 -3.86 3.76 -1.34 1.07 -1.55 1.21 -1.95 1.26 -0.30 0.03 -0.42 0.01 -0.35 -0.06z"/>
  <path d="M61.75 21.05 c0.03 -0.08 0.16 -0.66 0.27 -1.32 0.20 -1.06 0.24 -1.18 0.42 -1.18 0.20 0 1.33 0.73 1.33 0.86 0 0.16 -1.73 1.78 -1.88 1.78 -0.12 0 -0.17 -0.05 -0.14 -0.14z"/>
  <path d="M27.10 20.46 c-2.51 -0.57 -2.69 -0.62 -2.69 -0.79 0 -0.21 0.78 -1.61 0.93 -1.66 0.06 -0.03 0.44 0.14 0.84 0.36 0.40 0.23 1.34 0.71 2.09 1.07 0.75 0.36 1.40 0.68 1.44 0.72 0.04 0.04 -0.01 0.21 -0.09 0.40 -0.21 0.42 -0.20 0.42 -2.52 -0.11z"/>
  <path d="M60.29 20.15 l-0.48 -0.42 0.34 -0.30 c0.73 -0.63 1.35 -1.06 1.50 -1.06 0.10 0 0.15 0.05 0.12 0.13 -0.03 0.06 -0.13 0.37 -0.22 0.67 -0.10 0.31 -0.22 0.57 -0.29 0.57 -0.10 0 -0.29 0.62 -0.25 0.79 0.05 0.18 -0.29 0 -0.71 -0.37z"/>
  <path d="M75.05 19.93 c0.21 -0.20 1.03 -0.50 1.35 -0.50 0.37 0 -0.03 0.28 -0.68 0.49 -0.79 0.24 -0.91 0.24 -0.66 0.01z"/>
  <path d="M70.67 17.71 c-1.30 -1.26 -2.41 -2.39 -2.47 -2.51 -0.07 -0.12 -0.21 -0.57 -0.32 -1 -0.12 -0.43 -0.35 -1.06 -0.53 -1.42 -0.29 -0.59 -0.36 -0.65 -1.04 -1.03 -0.40 -0.22 -1.61 -0.88 -2.69 -1.46 -1.07 -0.58 -2.77 -1.55 -3.78 -2.17 -1 -0.61 -1.85 -1.10 -1.88 -1.10 -0.03 0 -0.49 0.54 -1.01 1.20 -0.75 0.94 -2.22 2.74 -2.44 2.99 -0.06 0.08 -1.10 -1 -1.10 -1.13 0 -0.08 0.36 -0.58 0.81 -1.13 0.45 -0.55 1.28 -1.57 1.85 -2.27 0.57 -0.70 1.10 -1.33 1.18 -1.40 0.13 -0.11 0.42 0.03 1.94 0.94 0.99 0.59 2.77 1.65 3.98 2.36 1.21 0.71 2.66 1.57 3.22 1.90 0.57 0.33 1.16 0.67 1.33 0.76 0.28 0.15 0.31 0.21 0.35 0.77 0.05 0.61 0.32 1.33 0.45 1.20 0.04 -0.03 0.09 -0.69 0.13 -1.47 0.03 -0.77 0.08 -1.44 0.12 -1.46 0.06 -0.07 1.44 0.83 1.44 0.93 0 0.04 -0.11 0.50 -0.24 1.03 -0.14 0.53 -0.27 1.39 -0.30 1.90 l-0.07 0.95 0.69 0.56 c0.38 0.30 1.17 1 1.77 1.53 0.60 0.54 1.12 0.98 1.17 0.98 0.06 0 0.65 -0.19 1.32 -0.40 1.43 -0.48 1.29 -0.25 1.39 -2.30 0.08 -1.67 0.03 -1.94 -0.41 -2.52 -0.20 -0.26 -0.31 -0.50 -0.26 -0.57 0.04 -0.07 0.30 -0.39 0.59 -0.73 0.41 -0.48 0.51 -0.66 0.46 -0.83 -0.18 -0.58 -0.72 -0.85 -1.67 -0.85 -0.73 0 -1.13 0.18 -2.17 0.97 -0.29 0.21 -0.56 0.37 -0.59 0.34 -0.09 -0.09 1.21 -1.32 1.86 -1.75 0.89 -0.60 1.40 -0.72 2.06 -0.51 0.93 0.29 1.08 0.45 1.46 1.40 0.20 0.48 0.47 1.44 0.61 2.14 0.14 0.69 0.51 2.08 0.80 3.08 0.74 2.43 0.71 2.21 0.24 2.17 -0.21 -0.02 -0.44 -0.09 -0.49 -0.16 -0.13 -0.16 -0.95 -3.36 -1.08 -4.26 -0.06 -0.40 -0.19 -0.99 -0.26 -1.29 -0.13 -0.49 -0.19 -0.57 -0.38 -0.57 -0.28 0 -0.29 0.10 -0.04 0.80 0.11 0.30 0.25 1.06 0.34 1.70 0.18 1.38 0.27 1.84 0.64 3.08 0.16 0.52 0.28 1.01 0.28 1.09 0 0.17 -0.02 0.18 -2.86 1.13 l-2.04 0.68 -2.35 -2.29z"/>
  <path d="M63.36 18.46 c-0.47 -0.31 -0.91 -0.59 -0.98 -0.61 -0.09 -0.03 -0.04 -0.15 0.15 -0.38 0.15 -0.19 0.41 -0.52 0.59 -0.75 0.25 -0.35 0.35 -0.42 0.56 -0.38 0.14 0.03 0.78 0.17 1.43 0.30 0.65 0.14 1.47 0.27 1.84 0.31 0.35 0.04 0.64 0.10 0.64 0.14 0 0.04 -0.26 0.32 -0.59 0.63 -0.50 0.48 -0.61 0.54 -0.77 0.45 -0.41 -0.21 -0.75 -0.12 -1.36 0.39 -0.32 0.27 -0.61 0.49 -0.62 0.48 -0.02 0 -0.42 -0.26 -0.89 -0.58z"/>
  <path d="M27.33 18.43 l-0.36 -0.21 -0.17 -1.29 c-0.09 -0.71 -0.16 -1.34 -0.14 -1.40 0.09 -0.23 2.56 -2.74 2.71 -2.74 0.22 0 0.63 0.39 1.47 1.40 0.39 0.48 0.93 1.04 1.18 1.27 l0.47 0.41 -0.73 0.88 c-0.40 0.48 -0.87 1.08 -1.03 1.34 -0.47 0.72 -0.58 0.63 -0.58 -0.45 l0 -0.92 -0.72 -0.77 -0.73 -0.76 -0.40 0.40 -0.41 0.40 0.11 0.51 c0.19 0.87 0.05 2.04 -0.24 2.12 -0.05 0.02 -0.24 -0.07 -0.44 -0.19z"/>
  <path d="M83.40 18.08 c0 -0.06 0.05 -0.13 0.10 -0.16 0.19 -0.12 0.11 -0.51 -0.11 -0.57 -0.20 -0.05 -0.20 -0.08 0.15 -0.49 0.46 -0.56 0.64 -1.03 0.64 -1.61 0 -1.10 -1.05 -2.29 -2.80 -3.17 -0.56 -0.27 -1.01 -0.53 -1.01 -0.58 0 -0.17 0.48 -0.57 0.68 -0.57 0.27 0 1.26 0.51 2.10 1.07 1.95 1.32 2.66 2.94 1.93 4.40 -0.40 0.79 -1.69 2.06 -1.69 1.66z"/>
  <path d="M15.39 17.14 c-0.79 -0.96 -0.97 -2.05 -0.50 -3.06 0.32 -0.70 1.20 -1.59 2.10 -2.14 0.40 -0.25 0.82 -0.53 0.93 -0.63 0.11 -0.10 0.40 -0.26 0.66 -0.37 l0.46 -0.20 0 -0.62 c0 -0.89 0.05 -0.98 0.62 -1.25 0.41 -0.20 0.52 -0.30 0.59 -0.56 0.08 -0.34 0.31 -0.43 0.54 -0.21 0.21 0.21 0.13 0.45 -0.24 0.63 -0.30 0.16 -0.38 0.25 -0.40 0.53 -0.04 0.43 0.46 1.81 0.87 2.39 0.17 0.24 0.28 0.47 0.25 0.50 -0.03 0.03 -0.36 -0.12 -0.74 -0.31 -0.72 -0.38 -1.04 -0.41 -1.04 -0.10 0 0.44 1.66 1.08 3.17 1.23 0.57 0.06 1.16 0.13 1.32 0.15 0.24 0.03 0.44 0.23 1.11 1.13 0.45 0.60 0.87 1.22 0.94 1.39 0.14 0.33 0.28 1.23 0.21 1.23 -0.02 0 -0.51 -0.52 -1.07 -1.16 -0.57 -0.63 -1.15 -1.20 -1.30 -1.26 -0.15 -0.06 -0.64 -0.21 -1.10 -0.31 -1.92 -0.48 -2.37 -0.65 -3.06 -1.22 -0.36 -0.29 -0.72 -0.64 -0.81 -0.78 -0.20 -0.29 -0.34 -0.30 -0.59 -0.04 -0.10 0.11 -0.45 0.39 -0.77 0.63 -1.24 0.88 -1.76 1.72 -1.69 2.71 0.03 0.44 0.11 0.66 0.35 1.02 0.25 0.36 0.29 0.48 0.21 0.63 -0.06 0.11 -0.15 0.17 -0.20 0.14 -0.05 -0.03 -0.15 0.03 -0.21 0.15 -0.07 0.11 -0.16 0.20 -0.19 0.20 -0.04 0 -0.22 -0.20 -0.42 -0.44z"/>
  <path d="M78.77 10.99 c-0.65 -0.21 -0.67 -0.23 -0.85 -0.69 -0.10 -0.25 -0.17 -0.49 -0.14 -0.51 0.03 -0.04 1.70 0.46 2.26 0.66 l0.24 0.10 -0.26 0.34 c-0.29 0.39 -0.34 0.40 -1.25 0.10z"/>
  <path d="M20.92 10.74 c-0.25 -0.41 -0.16 -0.54 0.64 -0.81 0.42 -0.15 0.80 -0.26 0.86 -0.26 0.10 0 0.48 0.58 0.41 0.63 -0.06 0.06 -1.58 0.63 -1.69 0.63 -0.06 0 -0.16 -0.09 -0.22 -0.20z"/>
  <path d="M66.85 10.24 c-0.64 -0.38 -2.21 -1.29 -3.47 -2.02 -1.26 -0.72 -3.13 -1.83 -4.13 -2.43 -1.02 -0.62 -1.90 -1.10 -1.97 -1.08 -0.07 0.02 -1.04 1.16 -2.15 2.55 -1.10 1.39 -2.05 2.51 -2.09 2.49 -0.05 -0.02 -0.33 -0.25 -0.63 -0.54 l-0.55 -0.51 0.27 -0.32 c0.16 -0.18 1.22 -1.48 2.36 -2.90 l2.08 -2.57 0.40 0.06 c0.27 0.05 0.82 0.35 1.77 0.98 0.75 0.50 1.50 0.98 1.66 1.06 0.17 0.08 0.46 0.27 0.65 0.43 0.20 0.15 0.81 0.56 1.37 0.90 1.48 0.91 5.75 3.60 5.81 3.65 0.06 0.07 -0.08 0.95 -0.16 0.95 -0.03 -0.01 -0.59 -0.32 -1.23 -0.69z"/>
  <path d="M71.44 9.06 c-0.48 -0.10 -1.68 -0.31 -2.65 -0.46 -1.73 -0.26 -1.80 -0.28 -2.47 -0.70 -0.40 -0.24 -0.65 -0.46 -0.61 -0.51 0.14 -0.14 7.80 1.14 7.98 1.33 0.03 0.02 -0.14 0.16 -0.35 0.30 -0.46 0.30 -0.69 0.30 -1.90 0.04z"/>
  <path d="M51.83 6.87 c-0.04 -0.03 -0.07 -0.17 -0.07 -0.29 0 -0.21 0.04 -0.22 0.55 -0.22 l0.54 0 -0.21 0.29 c-0.20 0.28 -0.63 0.40 -0.81 0.22z"/>
 </g>
</svg>